{
.appVersion = "3133";
copyright = "Copyright 2021 The Outfit Project Authors (https://github.com/Outfitio/Outfit-Fonts)";
customParameters = (
{
name = fsType;
value = (
);
},
{
name = "Use Typo Metrics";
value = 1;
},
{
name = codePageRanges;
value = (
1252
);
},
{
name = unicodeRanges;
value = (
0
);
},
{
name = licenseURL;
value = "https://scripts.sil.org/OFL";
},
{
name = license;
value = "This Font Software is licensed under the SIL Open Font License, Version 1.1. This license is available with a FAQ at: https://scripts.sil.org/OFL";
},
{
name = Axes;
value = (
{
Name = Weight;
Tag = wght;
}
);
}
);
date = "2021-06-01 13:26:22 +0000";
designer = "Rodrigo Fuenzalida";
designerURL = www.rfuenzalida.com;
familyName = Outfit;
featurePrefixes = (
{
automatic = 1;
code = "languagesystem DFLT dflt;\012";
name = Languagesystems;
}
);
features = (
{
automatic = 1;
code = "feature sups;\012feature frac;\012feature ordn;\012feature pnum;\012feature tnum;\012feature salt;\012feature ss01;\012";
name = aalt;
},
{
automatic = 1;
code = "lookup ccmp_Other_1 {\012	@CombiningTopAccents = [gravecomb];\012	sub [i]' @CombiningTopAccents by [idotless];\012} ccmp_Other_1;\012";
name = ccmp;
},
{
automatic = 1;
code = "sub one by onesuperior;\012sub two by twosuperior;\012sub three by threesuperior;\012sub four by foursuperior;\012";
name = sups;
},
{
automatic = 1;
code = "sub one slash four by onequarter;\012sub one slash two by onehalf;\012sub three slash four by threequarters;\012";
name = frac;
},
{
automatic = 1;
code = "sub [zero one two three four five six seven eight nine] [A a]' by ordfeminine;\012sub [zero one two three four five six seven eight nine] [O o]' by ordmasculine;\012";
name = ordn;
},
{
automatic = 1;
code = "sub zero.tf by zero;\012sub one.tf by one;\012sub two.tf by two;\012sub three.tf by three;\012sub four.tf by four;\012sub five.tf by five;\012sub six.tf by six;\012sub seven.tf by seven;\012sub eight.tf by eight;\012sub nine.tf by nine;\012";

glyphs = (
{
glyphname = A;
lastChange = "2021-09-13 16:12:17 +0000";
layers = (
{
anchors = (
{
name = bottom;
position = "{351, 0}";
},
{
name = ogonek;
position = "{632, 10}";
},
{
name = top;
position = "{351, 700}";
}
);
background = {
paths = (
{
closed = 1;
nodes = (
"362 709 LINE",
"342 709 LINE",
"24 0 LINE",
"146 0 LINE",
"377 523 LINE",
"322 523 LINE",
"552 0 LINE",
"678 0 LINE"
);
},
{
closed = 1;
nodes = (
"166 124 LINE",
"537 124 LINE",
"537 224 LINE",
"166 224 LINE"
);
}
);
};
layerId = m01;
paths = (
{
closed = 1;
nodes = (
"146 0 LINE",
"372 567 LINE",
"330 567 LINE",
"554 0 LINE",
"678 0 LINE",
"392 700 LINE",
"312 700 LINE",
"24 0 LINE"
);
},
{
closed = 1;
nodes = (
"537 135 LINE",
"537 235 LINE",
"166 235 LINE",
"166 135 LINE"
);
}
);
width = 702;
},
{
anchors = (
{
name = bottom;
position = "{378, 0}";
},
{
name = ogonek;
position = "{680, 10}";
},
{
name = top;
position = "{378, 712}";
}
);
layerId = "9F43D23A-D415-475F-B4C7-798B571F7CAB";
paths = (
{
closed = 1;
nodes = (
"210 0 LINE",
"414 605 LINE",
"342 605 LINE",
"541 0 LINE",
"749 0 LINE",
"481 712 LINE",
"277 712 LINE",
"6 0 LINE"
);
},
{
closed = 1;
nodes = (
"580 120 LINE",
"580 276 LINE",
"182 276 LINE",
"182 120 LINE"
);
}
);
width = 755;
},
{
anchors = (
{
name = bottom;
position = "{339, 0}";
},
{
name = ogonek;
position = "{610, 10}";
},
{
name = top;
position = "{339, 676}";
}
);
layerId = "0B0D9703-EF89-4C57-A339-A59A1335C1A4";
paths = (
{
closed = 1;
nodes = (
"84 0 LINE",
"347 648 LINE",
"332 648 LINE",
"593 0 LINE",
"628 0 LINE",
"355 676 LINE",
"325 676 LINE",
"50 0 LINE"
);
},
{
closed = 1;
nodes = (
"514 223 LINE",
"514 252 LINE",
"165 252 LINE",
"165 223 LINE"
);
}
);
width = 678;
}
);
leftKerningGroup = A;
rightKerningGroup = A;
unicode = 0041;
userData = {
KernOnName = A;
};
},
{
glyphname = AE;
lastChange = "2021-09-16 19:52:55 +0000";
layers = (
{
layerId = "0B0D9703-EF89-4C57-A339-A59A1335C1A4";
paths = (
{
closed = 1;
nodes = (
"84 0 LINE",
"346 647 LINE",
"505 647 LINE",
"505 676 LINE",
"325 676 LINE",
"50 0 LINE"
);
},
{
closed = 1;
nodes = (
"513 273 LINE",
"513 301 LINE",
"180 301 LINE",
"180 273 LINE"
);
},
{
closed = 1;
nodes = (
"893 0 LINE",
"893 29 LINE",
"516 29 LINE",
"516 0 LINE"
);
},
{
closed = 1;
nodes = (
"530 0 LINE",
"530 676 LINE",
"498 676 LINE",
"498 0 LINE"
);
},
{
closed = 1;
nodes = (
"863 333 LINE",
"863 361 LINE",
"510 361 LINE",
"510 333 LINE"
);
},
{
closed = 1;
nodes = (
"887 647 LINE",
"887 676 LINE",
"516 676 LINE",
"516 647 LINE"
);
}
);
width = 947;
},
{
layerId = m01;
paths = (
{
closed = 1;
nodes = (
"146 0 LINE",
"383 595 LINE",
"592 595 LINE",
"592 700 LINE",
"312 700 LINE",
"24 0 LINE"
);
},
{
closed = 1;
nodes = (
"537 235 LINE",
"537 335 LINE",
"166 335 LINE",
"166 235 LINE"
);
},
{
closed = 1;
nodes = (
"939 0 LINE",
"939 105 LINE",
"573 105 LINE",
"573 0 LINE"
);
},
{
closed = 1;
nodes = (
"609 0 LINE",
"609 700 LINE",
"494 700 LINE",
"494 0 LINE"
);
},
{
closed = 1;
nodes = (
"905 307 LINE",
"905 408 LINE",
"573 408 LINE",
"573 307 LINE"
);
},
{
closed = 1;
nodes = (
"934 595 LINE",
"934 700 LINE",
"573 700 LINE",
"573 595 LINE"
);
}
);
width = 982;
},
{
layerId = "9F43D23A-D415-475F-B4C7-798B571F7CAB";
paths = (
{
closed = 1;
nodes = (
"210 0 LINE",
"394 546 LINE",
"503 546 LINE",
"503 712 LINE",
"277 712 LINE",
"6 0 LINE"
);
},
{
closed = 1;
nodes = (
"540 170 LINE",
"540 326 LINE",
"182 326 LINE",
"182 170 LINE"
);
},
{
closed = 1;
nodes = (
"970 0 LINE",
"970 166 LINE",
"618 166 LINE",
"618 0 LINE"
);
},
{
closed = 1;
nodes = (
"656 0 LINE",
"656 712 LINE",
"456 712 LINE",
"456 0 LINE"
);
},
{
closed = 1;
nodes = (
"933 282 LINE",
"933 444 LINE",
"618 444 LINE",
"618 282 LINE"
);
},
{
closed = 1;
nodes = (
"964 546 LINE",
"964 712 LINE",
"618 712 LINE",
"618 546 LINE"
);
}
);
width = 1006;
}
);
leftKerningGroup = A;
rightKerningGroup = E;
rightMetricsKey = E;
unicode = 00C6;
},
{
glyphname = B;
lastChange = "2021-07-28 20:34:02 +0000";
layers = (
{
background = {
paths = (
{
closed = 1;
nodes = (
"562 612 OFFCURVE",
"483 700 OFFCURVE",
"341 700 CURVE SMOOTH",
"155 700 LINE",
"155 600 LINE",
"348 600 LINE SMOOTH",
"408 600 OFFCURVE",
"447 569 OFFCURVE",
"447 509 CURVE SMOOTH",
"447 449 OFFCURVE",
"408 418 OFFCURVE",
"348 418 CURVE SMOOTH",
"155 418 LINE",
"155 318 LINE",
"356 318 LINE SMOOTH",
"426 318 OFFCURVE",
"467 267 OFFCURVE",
"467 209 CURVE SMOOTH",
"467 151 OFFCURVE",
"426 100 OFFCURVE",
"356 100 CURVE SMOOTH",
"155 100 LINE",
"155 0 LINE",
"361 0 LINE SMOOTH",
"493 0 OFFCURVE",
"582 91 OFFCURVE",
"582 209 CURVE SMOOTH",
"582 277 OFFCURVE",
"553 335 OFFCURVE",
"503 373 CURVE",
"542 408 OFFCURVE",
"562 457 OFFCURVE",
"562 509 CURVE SMOOTH"
);
}
);
};
layerId = m01;
paths = (
{
closed = 1;
nodes = (
"351 0 LINE SMOOTH",
"501 0 OFFCURVE",
"582 91 OFFCURVE",
"582 199 CURVE SMOOTH",
"582 287 OFFCURVE",
"530 354 OFFCURVE",
"442 390 CURVE",
"433 354 LINE",
"511 389 OFFCURVE",
"553 446 OFFCURVE",
"553 519 CURVE SMOOTH",
"553 612 OFFCURVE",
"484 700 OFFCURVE",
"342 700 CURVE SMOOTH",
"155 700 LINE",
"155 600 LINE",
"339 600 LINE SMOOTH",
"399 600 OFFCURVE",
"438 569 OFFCURVE",
"438 509 CURVE SMOOTH",
"438 449 OFFCURVE",
"399 418 OFFCURVE",
"339 418 CURVE SMOOTH",
"155 418 LINE",
"155 318 LINE",
"356 318 LINE SMOOTH",
"426 318 OFFCURVE",
"467 267 OFFCURVE",
"467 209 CURVE SMOOTH",
"467 151 OFFCURVE",
"426 100 OFFCURVE",
"356 100 CURVE SMOOTH",
"155 100 LINE",
"155 0 LINE"
);
},
{
closed = 1;
nodes = (
"191 0 LINE",
"191 700 LINE",
"76 700 LINE",
"76 0 LINE"
);
}
);
width = 622;
},
{
layerId = "9F43D23A-D415-475F-B4C7-798B571F7CAB";
paths = (
{
closed = 1;
nodes = (
"387 0 LINE SMOOTH",
"535 0 OFFCURVE",
"634 86 OFFCURVE",
"634 210 CURVE SMOOTH",
"634 324 OFFCURVE",
"551 403 OFFCURVE",
"401 413 CURVE",
"403 344 LINE",
"541 353 OFFCURVE",
"615 421 OFFCURVE",
"615 523 CURVE SMOOTH",
"615 633 OFFCURVE",
"529 712 OFFCURVE",
"399 712 CURVE SMOOTH",
"221 712 LINE",
"221 568 LINE",
"343 568 LINE SMOOTH",
"386 568 OFFCURVE",
"417 547 OFFCURVE",
"417 502 CURVE SMOOTH",
"417 457 OFFCURVE",
"385 436 OFFCURVE",
"343 436 CURVE SMOOTH",
"221 436 LINE",
"221 298 LINE",
"352 298 LINE SMOOTH",
"403 298 OFFCURVE",
"436 269 OFFCURVE",
"436 221 CURVE SMOOTH",
"436 173 OFFCURVE",
"403 144 OFFCURVE",
"352 144 CURVE SMOOTH",
"221 144 LINE",
"221 0 LINE"
);
},
{
closed = 1;
nodes = (
"255 0 LINE",
"255 712 LINE",
"59 712 LINE",
"59 0 LINE"
);
}
);
width = 659;
},
{
background = {
components = (
{
name = E;
transform = "{1, 0, 0, 1, -5, 0}";
}
);
paths = (
{
closed = 0;
nodes = (
"424 354 LINE",
"496 374 OFFCURVE",
"536 440 OFFCURVE",
"536 507 CURVE SMOOTH",
"536 594 OFFCURVE",
"482 676 OFFCURVE",
"349 676 CURVE SMOOTH"
);
}
);
};
layerId = "0B0D9703-EF89-4C57-A339-A59A1335C1A4";
paths = (
{
closed = 1;
nodes = (
"345 0 LINE SMOOTH",
"478 0 OFFCURVE",
"564 73 OFFCURVE",
"564 186 CURVE SMOOTH",
"564 274 OFFCURVE",
"510 340 OFFCURVE",
"419 362 CURVE",
"414 350 LINE",
"490 373 OFFCURVE",
"531 430 OFFCURVE",
"531 510 CURVE SMOOTH",
"531 613 OFFCURVE",
"456 676 OFFCURVE",
"341 676 CURVE SMOOTH",
"115 676 LINE",
"115 647 LINE",
"341 647 LINE SMOOTH",
"437 647 OFFCURVE",
"499 595 OFFCURVE",
"499 508 CURVE SMOOTH",
"499 422 OFFCURVE",
"445 369 OFFCURVE",
"357 369 CURVE SMOOTH",
"115 369 LINE",
"115 342 LINE",
"362 342 LINE SMOOTH",
"461 342 OFFCURVE",
"531 277 OFFCURVE",
"531 186 CURVE SMOOTH",
"531 91 OFFCURVE",
"459 29 OFFCURVE",
"350 29 CURVE SMOOTH",
"115 29 LINE",
"115 0 LINE"
);
},
{
closed = 1;
nodes = (
"131 0 LINE",
"131 676 LINE",
"99 676 LINE",
"99 0 LINE"
);
}
);
width = 627;
}
);
leftKerningGroup = H;
unicode = 0042;
},
{
glyphname = C;
lastChange = "2021-09-16 19:46:56 +0000";
layers = (
{
anchors = (
{
name = bottom;
position = "{374, 0}";
},
{
name = top;
position = "{374, 700}";
}
);
background = {
paths = (
{
closed = 1;
nodes = (
"506 -10 OFFCURVE",
"592 30 OFFCURVE",
"656 95 CURVE",
"578 173 LINE",
"536 128 OFFCURVE",
"479 100 OFFCURVE",
"394 100 CURVE SMOOTH",
"256 100 OFFCURVE",
"159 202 OFFCURVE",
"159 350 CURVE SMOOTH",
"159 497 OFFCURVE",
"256 600 OFFCURVE",
"394 600 CURVE SMOOTH",
"472 600 OFFCURVE",
"531 573 OFFCURVE",
"573 528 CURVE",
"651 606 LINE",
"587 670 OFFCURVE",
"507 710 OFFCURVE",
"394 710 CURVE SMOOTH",
"190 710 OFFCURVE",
"41 550 OFFCURVE",
"41 350 CURVE SMOOTH",
"41 149 OFFCURVE",
"190 -10 OFFCURVE",
"394 -10 CURVE SMOOTH"
);
}
);
};
layerId = m01;
paths = (
{
closed = 1;
nodes = (
"506 -10 OFFCURVE",
"592 30 OFFCURVE",
"656 95 CURVE",
"578 173 LINE",
"536 128 OFFCURVE",
"479 100 OFFCURVE",
"394 100 CURVE SMOOTH",
"256 100 OFFCURVE",
"159 202 OFFCURVE",
"159 350 CURVE SMOOTH",
"159 497 OFFCURVE",
"256 600 OFFCURVE",
"394 600 CURVE SMOOTH",
"472 600 OFFCURVE",
"531 573 OFFCURVE",
"573 528 CURVE",
"651 606 LINE",
"587 670 OFFCURVE",
"507 710 OFFCURVE",
"394 710 CURVE SMOOTH",
"190 710 OFFCURVE",
"41 550 OFFCURVE",
"41 350 CURVE SMOOTH",
"41 149 OFFCURVE",
"190 -10 OFFCURVE",
"394 -10 CURVE SMOOTH"
);
}
);
width = 683;
},
{
anchors = (
{
name = bottom;
position = "{382, 0}";
},
{
name = top;
position = "{403, 712}";
}
);
layerId = "9F43D23A-D415-475F-B4C7-798B571F7CAB";
paths = (
{
closed = 1;
nodes = (
"530 -12 OFFCURVE",
"614 24 OFFCURVE",
"685 85 CURVE",
"551 219 LINE",
"516 183 OFFCURVE",
"469 164 OFFCURVE",
"409 164 CURVE SMOOTH",
"302 164 OFFCURVE",
"227 238 OFFCURVE",
"227 357 CURVE SMOOTH",
"227 475 OFFCURVE",
"302 548 OFFCURVE",
"409 548 CURVE SMOOTH",
"470 548 OFFCURVE",
"516 527 OFFCURVE",
"548 492 CURVE",
"681 626 LINE",
"613 687 OFFCURVE",
"520 724 OFFCURVE",
"409 724 CURVE SMOOTH",
"191 724 OFFCURVE",
"23 569 OFFCURVE",
"23 357 CURVE SMOOTH",
"23 145 OFFCURVE",
"193 -12 OFFCURVE",
"411 -12 CURVE SMOOTH"
);
}
);
width = 695;
},
{
anchors = (
{
name = bottom;
position = "{388, 0}";
},
{
name = top;
position = "{388, 676}";
}
);
layerId = "0B0D9703-EF89-4C57-A339-A59A1335C1A4";
paths = (
{
closed = 1;
nodes = (
"504 -10 OFFCURVE",
"590 30 OFFCURVE",
"650 97 CURVE",
"627 120 LINE",
"573 59 OFFCURVE",
"493 21 OFFCURVE",
"402 21 CURVE SMOOTH",
"230 21 OFFCURVE",
"100 159 OFFCURVE",
"100 339 CURVE SMOOTH",
"100 518 OFFCURVE",
"229 655 OFFCURVE",
"400 655 CURVE SMOOTH",
"489 655 OFFCURVE",
"568 618 OFFCURVE",
"622 557 CURVE",
"645 580 LINE",
"584 646 OFFCURVE",
"497 686 OFFCURVE",
"400 686 CURVE SMOOTH",
"210 686 OFFCURVE",
"66 535 OFFCURVE",
"66 339 CURVE SMOOTH",
"66 143 OFFCURVE",
"212 -10 OFFCURVE",
"405 -10 CURVE SMOOTH"
);
}
);
width = 703;
}
);
leftKerningGroup = O;
rightKerningGroup = C;
unicode = 0043;
userData = {
KernOnName = C;
};
},
{
glyphname = D;
lastChange = "2021-09-13 17:00:54 +0000";
layers = (
{
layerId = m01;
paths = (
{
closed = 1;
nodes = (
"344 0 LINE SMOOTH",
"545 0 OFFCURVE",
"699 152 OFFCURVE",
"699 350 CURVE SMOOTH",
"699 549 OFFCURVE",
"544 700 OFFCURVE",
"342 700 CURVE SMOOTH",
"155 700 LINE",
"155 595 LINE",
"339 595 LINE SMOOTH",
"481 595 OFFCURVE",
"581 495 OFFCURVE",
"581 351 CURVE SMOOTH",
"581 205 OFFCURVE",
"482 105 OFFCURVE",
"339 105 CURVE SMOOTH",
"155 105 LINE",
"155 0 LINE"
);
},
{
closed = 1;
nodes = (
"191 0 LINE",
"191 700 LINE",
"76 700 LINE",
"76 0 LINE"
);
}
);
width = 740;
},
{
layerId = "9F43D23A-D415-475F-B4C7-798B571F7CAB";
paths = (
{
closed = 1;
nodes = (
"361 0 LINE SMOOTH",
"582 0 OFFCURVE",
"745 141 OFFCURVE",
"745 356 CURVE SMOOTH",
"745 572 OFFCURVE",
"582 712 OFFCURVE",
"359 712 CURVE SMOOTH",
"183 712 LINE",
"183 542 LINE",
"359 542 LINE SMOOTH",
"470 542 OFFCURVE",
"541 481 OFFCURVE",
"541 357 CURVE SMOOTH",
"541 232 OFFCURVE",
"471 170 OFFCURVE",
"359 170 CURVE SMOOTH",
"193 170 LINE",
"193 0 LINE"
);
},
{
closed = 1;
nodes = (
"259 0 LINE",
"259 712 LINE",
"59 712 LINE",
"59 0 LINE"
);
}
);
width = 768;
},
{
layerId = "0B0D9703-EF89-4C57-A339-A59A1335C1A4";
paths = (
{
closed = 1;
nodes = (
"333 0 LINE SMOOTH",
"531 0 OFFCURVE",
"672 142 OFFCURVE",
"672 338 CURVE SMOOTH",
"672 535 OFFCURVE",
"530 676 OFFCURVE",
"331 676 CURVE SMOOTH",
"114 676 LINE",
"114 646 LINE",
"331 646 LINE SMOOTH",
"511 646 OFFCURVE",
"638 517 OFFCURVE",
"638 339 CURVE SMOOTH",
"638 159 OFFCURVE",
"511 30 OFFCURVE",
"331 30 CURVE SMOOTH",
"110 30 LINE",
"110 0 LINE"
);
},
{
closed = 1;
nodes = (
"131 0 LINE",
"131 676 LINE",
"99 676 LINE",
"99 0 LINE"
);
}
);
width = 738;
}
);
leftKerningGroup = H;
rightKerningGroup = D;
unicode = 0044;
},
{
glyphname = Eth;
lastChange = "2021-09-13 17:01:33 +0000";
layers = (
{
components = (
{
alignment = -1;
name = D;
}
);
layerId = "0B0D9703-EF89-4C57-A339-A59A1335C1A4";
paths = (
{
closed = 1;
nodes = (
"14 334 LINE",
"356 334 LINE",
"356 362 LINE",
"14 362 LINE"
);
}
);
width = 738;
},
{
components = (
{
alignment = -1;
name = D;
transform = "{1, 0, 0, 1, 20, 0}";
}
);
layerId = m01;
paths = (
{
closed = 1;
nodes = (
"24 305 LINE",
"406 305 LINE",
"406 400 LINE",
"24 400 LINE"
);
}
);
width = 760;
},
{
components = (
{
alignment = -1;
name = D;
transform = "{1, 0, 0, 1, 20, 0}";
}
);
layerId = "9F43D23A-D415-475F-B4C7-798B571F7CAB";
paths = (
{
closed = 1;
nodes = (
"18 285 LINE",
"403 285 LINE",
"403 430 LINE",
"18 430 LINE"
);
}
);
width = 788;
}
);
leftKerningGroup = H;
rightKerningGroup = D;
rightMetricsKey = D;
unicode = 00D0;
},
{
glyphname = E;
lastChange = "2021-09-13 16:47:53 +0000";
layers = (
{
anchors = (
{
name = bottom;
position = "{295, 0}";
},
{
name = ogonek;
position = "{531, 10}";
},
{
name = top;
position = "{315, 700}";
},
{
name = topleft;
position = "{20, 700}";
}
);
layerId = m01;
paths = (
{
closed = 1;
nodes = (
"191 0 LINE",
"191 700 LINE",
"76 700 LINE",
"76 0 LINE"
);
},
{
closed = 1;
nodes = (
"547 0 LINE",
"547 105 LINE",
"155 105 LINE",
"155 0 LINE"
);
},
{
closed = 1;
nodes = (
"513 307 LINE",
"513 408 LINE",
"155 408 LINE",
"155 307 LINE"
);
},
{
closed = 1;
nodes = (
"542 595 LINE",
"542 700 LINE",
"155 700 LINE",
"155 595 LINE"
);
}
);
width = 590;
},
{
anchors = (
{
name = bottom;
position = "{320, 0}";
},
{
name = ogonek;
position = "{575, 10}";
},
{
name = top;
position = "{340, 712}";
},
{
name = topleft;
position = "{20, 712}";
}
);
background = {
components = (
{
name = H;
transform = "{1, 0, 0, 1, -2, 0}";
}
);
};
layerId = "9F43D23A-D415-475F-B4C7-798B571F7CAB";
paths = (
{
closed = 1;
nodes = (
"259 0 LINE",
"259 712 LINE",
"59 712 LINE",
"59 0 LINE"
);
},
{
closed = 1;
nodes = (
"603 0 LINE",
"603 166 LINE",
"221 166 LINE",
"221 0 LINE"
);
},
{
closed = 1;
nodes = (
"566 282 LINE",
"566 444 LINE",
"221 444 LINE",
"221 282 LINE"
);
},
{
closed = 1;
nodes = (
"597 546 LINE",
"597 712 LINE",
"221 712 LINE",
"221 546 LINE"
);
}
);
width = 639;
},
{
anchors = (
{
name = bottom;
position = "{294, 0}";
},
{
name = ogonek;
position = "{529, 10}";
},
{
name = top;
position = "{317, 676}";
},
{
name = topleft;
position = "{20, 676}";
}
);
layerId = "0B0D9703-EF89-4C57-A339-A59A1335C1A4";
paths = (
{
closed = 1;
nodes = (
"131 0 LINE",
"131 676 LINE",
"99 676 LINE",
"99 0 LINE"
);
},
{
closed = 1;
nodes = (
"534 0 LINE",
"534 29 LINE",
"117 29 LINE",
"117 0 LINE"
);
},
{
closed = 1;
nodes = (
"504 333 LINE",
"504 361 LINE",
"117 361 LINE",
"117 333 LINE"
);
},
{
closed = 1;
nodes = (
"528 647 LINE",
"528 676 LINE",
"117 676 LINE",
"117 647 LINE"
);
}
);
width = 588;
}
);
leftKerningGroup = H;
rightKerningGroup = E;
unicode = 0045;
userData = {
KernOnName = E;
};
},
{
glyphname = F;
lastChange = "2021-07-22 20:34:11 +0000";
layers = (
{
layerId = m01;
paths = (
{
closed = 1;
nodes = (
"191 0 LINE",
"191 700 LINE",
"76 700 LINE",
"76 0 LINE"
);
},
{
closed = 1;
nodes = (
"511 300 LINE",
"511 405 LINE",
"155 405 LINE",
"155 300 LINE"
);
},
{
closed = 1;
nodes = (
"528 595 LINE",
"528 700 LINE",
"155 700 LINE",
"155 595 LINE"
);
}
);
width = 566;
},
{
layerId = "9F43D23A-D415-475F-B4C7-798B571F7CAB";
paths = (
{
closed = 1;
nodes = (
"259 0 LINE",
"259 712 LINE",
"59 712 LINE",
"59 0 LINE"
);
},
{
closed = 1;
nodes = (
"571 253 LINE",
"571 419 LINE",
"221 419 LINE",
"221 253 LINE"
);
},
{
closed = 1;
nodes = (
"586 546 LINE",
"586 712 LINE",
"221 712 LINE",
"221 546 LINE"
);
}
);
width = 614;
},
{
layerId = "0B0D9703-EF89-4C57-A339-A59A1335C1A4";
paths = (
{
closed = 1;
nodes = (
"131 0 LINE",
"131 676 LINE",
"99 676 LINE",
"99 0 LINE"
);
},
{
closed = 1;
nodes = (
"498 321 LINE",
"498 350 LINE",
"117 350 LINE",
"117 321 LINE"
);
},
{
closed = 1;
nodes = (
"515 647 LINE",
"515 676 LINE",
"117 676 LINE",
"117 647 LINE"
);
}
);
width = 567;
}
);
leftKerningGroup = H;
unicode = 0046;
},
{
glyphname = G;
lastChange = "2021-07-28 20:29:34 +0000";
layers = (
{
background = {
paths = (
{
closed = 1;
nodes = (
"592 -10 OFFCURVE",
"734 115 OFFCURVE",
"734 379 CURVE",
"388 379 LINE",
"388 274 LINE",
"687 274 LINE",
"615 326 LINE",
"615 178 OFFCURVE",
"530 100 OFFCURVE",
"390 100 CURVE SMOOTH",
"258 100 OFFCURVE",
"159 203 OFFCURVE",
"159 351 CURVE SMOOTH",
"159 498 OFFCURVE",
"256 600 OFFCURVE",
"400 600 CURVE SMOOTH",
"480 600 OFFCURVE",
"553 568 OFFCURVE",
"595 509 CURVE",
"673 587 LINE",
"609 665 OFFCURVE",
"511 710 OFFCURVE",
"400 710 CURVE SMOOTH",
"197 710 OFFCURVE",
"41 551 OFFCURVE",
"41 351 CURVE SMOOTH",
"41 151 OFFCURVE",
"199 -10 OFFCURVE",
"392 -10 CURVE SMOOTH"
);
}
);
};
layerId = m01;
paths = (
{
closed = 1;
nodes = (
"590 -10 OFFCURVE",
"734 113 OFFCURVE",
"734 363 CURVE SMOOTH",
"734 379 LINE",
"388 379 LINE",
"388 274 LINE",
"687 274 LINE",
"615 326 LINE",
"615 178 OFFCURVE",
"530 100 OFFCURVE",
"390 100 CURVE SMOOTH",
"258 100 OFFCURVE",
"159 203 OFFCURVE",
"159 351 CURVE SMOOTH",
"159 498 OFFCURVE",
"256 600 OFFCURVE",
"400 600 CURVE SMOOTH",
"480 600 OFFCURVE",
"553 568 OFFCURVE",
"595 509 CURVE",
"673 587 LINE",
"609 665 OFFCURVE",
"511 710 OFFCURVE",
"400 710 CURVE SMOOTH",
"197 710 OFFCURVE",
"41 551 OFFCURVE",
"41 351 CURVE SMOOTH",
"41 151 OFFCURVE",
"199 -10 OFFCURVE",
"392 -10 CURVE SMOOTH"
);
}
);
width = 772;
},
{
background = {
paths = (
{
closed = 1;
nodes = (
"639 -12 OFFCURVE",
"781 147 OFFCURVE",
"781 420 CURVE",
"386 420 LINE",
"386 260 LINE",
"717 250 LINE",
"580 337 LINE",
"580 231 OFFCURVE",
"520 164 OFFCURVE",
"413 164 CURVE SMOOTH",
"301 164 OFFCURVE",
"226 241 OFFCURVE",
"226 357 CURVE SMOOTH",
"226 473 OFFCURVE",
"300 548 OFFCURVE",
"416 548 CURVE SMOOTH",
"491 548 OFFCURVE",
"539 520 OFFCURVE",
"589 453 CURVE",
"724 588 LINE",
"659 675 OFFCURVE",
"551 724 OFFCURVE",
"419 724 CURVE SMOOTH",
"190 724 OFFCURVE",
"23 568 OFFCURVE",
"23 356 CURVE SMOOTH",
"23 146 OFFCURVE",
"189 -12 OFFCURVE",
"410 -12 CURVE SMOOTH"
);
}
);
};
layerId = "9F43D23A-D415-475F-B4C7-798B571F7CAB";
paths = (
{
closed = 1;
nodes = (
"632 -12 OFFCURVE",
"781 133 OFFCURVE",
"781 390 CURVE SMOOTH",
"781 420 LINE",
"386 420 LINE",
"386 260 LINE",
"717 250 LINE",
"580 337 LINE",
"580 231 OFFCURVE",
"520 164 OFFCURVE",
"413 164 CURVE SMOOTH",
"301 164 OFFCURVE",
"226 241 OFFCURVE",
"226 357 CURVE SMOOTH",
"226 473 OFFCURVE",
"310 548 OFFCURVE",
"416 548 CURVE SMOOTH",
"491 548 OFFCURVE",
"539 520 OFFCURVE",
"589 463 CURVE",
"724 598 LINE",
"659 675 OFFCURVE",
"551 724 OFFCURVE",
"419 724 CURVE SMOOTH",
"200 724 OFFCURVE",
"23 568 OFFCURVE",
"23 356 CURVE SMOOTH",
"23 146 OFFCURVE",
"189 -12 OFFCURVE",
"410 -12 CURVE SMOOTH"
);
}
);
width = 797;
},
{
background = {
components = (
{
name = O;
transform = "{1, 0, 0, 1, -5, 0}";
}
);
};
layerId = "0B0D9703-EF89-4C57-A339-A59A1335C1A4";
paths = (
{
closed = 1;
nodes = (
"594 -9 OFFCURVE",
"715 120 OFFCURVE",
"715 335 CURVE SMOOTH",
"715 341 LINE",
"392 341 LINE",
"392 312 LINE",
"694 312 LINE",
"682 322 LINE",
"680 135 OFFCURVE",
"571 22 OFFCURVE",
"404 22 CURVE SMOOTH",
"226 22 OFFCURVE",
"100 154 OFFCURVE",
"100 337 CURVE SMOOTH",
"100 521 OFFCURVE",
"228 656 OFFCURVE",
"407 656 CURVE SMOOTH",
"508 656 OFFCURVE",
"591 613 OFFCURVE",
"644 534 CURVE",
"668 558 LINE",
"612 640 OFFCURVE",
"517 687 OFFCURVE",
"407 687 CURVE SMOOTH",
"210 687 OFFCURVE",
"66 538 OFFCURVE",
"66 338 CURVE SMOOTH",
"66 138 OFFCURVE",
"208 -9 OFFCURVE",
"406 -9 CURVE SMOOTH"
);
}
);
width = 774;
}
);
leftKerningGroup = O;
unicode = 0047;
},
{
glyphname = H;
lastChange = "2021-07-28 19:16:30 +0000";
layers = (
{
layerId = m01;
paths = (
{
closed = 1;
nodes = (
"191 0 LINE",
"191 700 LINE",
"76 700 LINE",
"76 0 LINE"
);
},
{
closed = 1;
nodes = (
"636 0 LINE",
"636 700 LINE",
"521 700 LINE",
"521 0 LINE"
);
},
{
closed = 1;
nodes = (
"546 310 LINE",
"546 415 LINE",
"155 415 LINE",
"155 310 LINE"
);
}
);
width = 712;
},
{
layerId = "9F43D23A-D415-475F-B4C7-798B571F7CAB";
paths = (
{
closed = 1;
nodes = (
"259 0 LINE",
"259 712 LINE",
"59 712 LINE",
"59 0 LINE"
);
},
{
closed = 1;
nodes = (
"689 0 LINE",
"689 712 LINE",
"489 712 LINE",
"489 0 LINE"
);
},
{
closed = 1;
nodes = (
"567 280 LINE",
"567 446 LINE",
"168 446 LINE",
"168 280 LINE"
);
}
);
width = 748;
},
{
layerId = "0B0D9703-EF89-4C57-A339-A59A1335C1A4";
paths = (
{
closed = 1;
nodes = (
"131 0 LINE",
"131 676 LINE",
"99 676 LINE",
"99 0 LINE"
);
},
{
closed = 1;
nodes = (
"588 0 LINE",
"588 676 LINE",
"556 676 LINE",
"556 0 LINE"
);
},
{
closed = 1;
nodes = (
"572 333 LINE",
"572 362 LINE",
"117 362 LINE",
"117 333 LINE"
);
}
);
width = 687;
}
);
leftKerningGroup = H;
rightKerningGroup = H;
unicode = 0048;
userData = {
KernOnName = H;
KernOnSpecialSpacing = {
L = hyphen;
};
};
},
{
glyphname = I;
lastChange = "2021-09-13 16:48:34 +0000";
layers = (
{
anchors = (
{
name = bottom;
position = "{134, 0}";
},
{
name = ogonek;
position = "{240, 10}";
},
{
name = top;
position = "{134, 700}";
},
{
name = topleft;
position = "{20, 700}";
}
);
layerId = m01;
paths = (
{
closed = 1;
nodes = (
"191 0 LINE",
"191 700 LINE",
"76 700 LINE",
"76 0 LINE"
);
}
);
width = 267;
},
{
anchors = (
{
name = bottom;
position = "{159, 0}";
},
{
name = ogonek;
position = "{286, 10}";
},
{
name = top;
position = "{159, 712}";
},
{
name = topleft;
position = "{20, 712}";
}
);
layerId = "9F43D23A-D415-475F-B4C7-798B571F7CAB";
paths = (
{
closed = 1;
nodes = (
"259 0 LINE",
"259 712 LINE",
"59 712 LINE",
"59 0 LINE"
);
}
);
width = 318;
},
{
anchors = (
{
name = bottom;
position = "{115, 0}";
},
{
name = ogonek;
position = "{207, 10}";
},
{
name = top;
position = "{115, 676}";
},
{
name = topleft;
position = "{20, 676}";
}
);
layerId = "0B0D9703-EF89-4C57-A339-A59A1335C1A4";
paths = (
{
closed = 1;
nodes = (
"131 0 LINE",
"131 676 LINE",
"99 676 LINE",
"99 0 LINE"
);
}
);
width = 230;
}
);
leftKerningGroup = H;
rightKerningGroup = H;
unicode = 0049;
},
{
glyphname = J;
lastChange = "2021-07-28 20:17:13 +0000";
layers = (
{
layerId = m01;
paths = (
{
closed = 1;
nodes = (
"339 -10 OFFCURVE",
"427 84 OFFCURVE",
"427 225 CURVE SMOOTH",
"427 700 LINE",
"312 700 LINE",
"312 216 LINE SMOOTH",
"312 143 OFFCURVE",
"272 100 OFFCURVE",
"204 100 CURVE SMOOTH",
"163 100 OFFCURVE",
"127 119 OFFCURVE",
"104 154 CURVE",
"23 80 LINE",
"62 25 OFFCURVE",
"127 -10 OFFCURVE",
"208 -10 CURVE SMOOTH"
);
}
);
width = 494;
},
{
layerId = "9F43D23A-D415-475F-B4C7-798B571F7CAB";
paths = (
{
closed = 1;
nodes = (
"410 -12 OFFCURVE",
"522 94 OFFCURVE",
"522 270 CURVE SMOOTH",
"522 712 LINE",
"321 712 LINE",
"321 262 LINE SMOOTH",
"321 194 OFFCURVE",
"279 164 OFFCURVE",
"230 164 CURVE SMOOTH",
"188 164 OFFCURVE",
"158 180 OFFCURVE",
"133 212 CURVE",
"5 84 LINE",
"59 21 OFFCURVE",
"125 -12 OFFCURVE",
"222 -12 CURVE SMOOTH"
);
}
);
width = 569;
},
{
layerId = "0B0D9703-EF89-4C57-A339-A59A1335C1A4";
paths = (
{
closed = 1;
nodes = (
"309 -10 OFFCURVE",
"404 57 OFFCURVE",
"404 193 CURVE SMOOTH",
"404 676 LINE",
"372 676 LINE",
"372 199 LINE SMOOTH",
"372 70 OFFCURVE",
"291 21 OFFCURVE",
"215 21 CURVE SMOOTH",
"151 21 OFFCURVE",
"107 45 OFFCURVE",
"71 90 CURVE",
"49 68 LINE",
"91 18 OFFCURVE",
"142 -10 OFFCURVE",
"215 -10 CURVE SMOOTH"
);
}
);
width = 496;
}
);
rightKerningGroup = U;
unicode = 004A;
},
{
glyphname = K;
lastChange = "2021-07-22 20:34:11 +0000";
layers = (
{
background = {
components = (
{
name = H;
transform = "{1, 0, 0, 1, 8, 0}";
}
);
};
layerId = m01;
paths = (
{
closed = 1;
nodes = (
"649 0 LINE",
"290 399 LINE",
"289 336 LINE",
"639 700 LINE",
"492 700 LINE",
"175 365 LINE",
"499 0 LINE"
);
},
{
closed = 1;
nodes = (
"191 0 LINE",
"191 700 LINE",
"76 700 LINE",
"76 0 LINE"
);
}
);
width = 672;
},
{
layerId = "9F43D23A-D415-475F-B4C7-798B571F7CAB";
paths = (
{
closed = 1;
nodes = (
"731 0 LINE",
"445 406 LINE",
"446 342 LINE",
"720 712 LINE",
"479 712 LINE",
"242 371 LINE",
"491 0 LINE"
);
},
{
closed = 1;
nodes = (
"259 0 LINE",
"259 712 LINE",
"59 712 LINE",
"59 0 LINE"
);
}
);
width = 737;
},
{
background = {
components = (
{
name = H;
transform = "{1, 0, 0, 1, -5, 0}";
}
);
};
layerId = "0B0D9703-EF89-4C57-A339-A59A1335C1A4";
paths = (
{
closed = 1;
nodes = (
"598 0 LINE",
"155 363 LINE",
"155 342 LINE",
"588 676 LINE",
"539 676 LINE",
"120 352 LINE",
"548 0 LINE"
);
},
{
closed = 1;
nodes = (
"131 0 LINE",
"131 676 LINE",
"99 676 LINE",
"99 0 LINE"
);
}
);
width = 646;
}
);
leftKerningGroup = H;
unicode = 004B;
userData = {
KernOnName = K;
};
},
{
glyphname = L;
lastChange = "2021-07-22 20:34:11 +0000";
layers = (
{
layerId = m01;
paths = (
{
closed = 1;
nodes = (
"191 0 LINE",
"191 700 LINE",
"76 700 LINE",
"76 0 LINE"
);
},
{
closed = 1;
nodes = (
"521 0 LINE",
"521 105 LINE",
"155 105 LINE",
"155 0 LINE"
);
}
);
width = 550;
},
{
layerId = "9F43D23A-D415-475F-B4C7-798B571F7CAB";
paths = (
{
closed = 1;
nodes = (
"259 0 LINE",
"259 712 LINE",
"59 712 LINE",
"59 0 LINE"
);
},
{
closed = 1;
nodes = (
"555 0 LINE",
"555 170 LINE",
"222 170 LINE",
"222 0 LINE"
);
}
);
width = 572;
},
{
layerId = "0B0D9703-EF89-4C57-A339-A59A1335C1A4";
paths = (
{
closed = 1;
nodes = (
"131 0 LINE",
"131 676 LINE",
"99 676 LINE",
"99 0 LINE"
);
},
{
closed = 1;
nodes = (
"509 0 LINE",
"509 29 LINE",
"117 29 LINE",
"117 0 LINE"
);
}
);
width = 558;
}
);
leftKerningGroup = H;
unicode = 004C;
userData = {
KernOnName = L;
};
},
{
glyphname = M;
lastChange = "2021-07-22 20:34:11 +0000";
layers = (
{
background = {
paths = (
{
closed = 1;
nodes = (
"191 0 LINE",
"191 476 LINE",
"96 710 LINE",
"76 710 LINE",
"76 0 LINE"
);
},
{
closed = 1;
nodes = (
"411 126 LINE",
"431 126 LINE",
"441 265 LINE",
"96 710 LINE",
"96 531 LINE"
);
},
{
closed = 1;
nodes = (
"766 710 LINE",
"746 710 LINE",
"651 476 LINE",
"651 0 LINE",
"766 0 LINE"
);
},
{
closed = 1;
nodes = (
"746 710 LINE",
"401 265 LINE",
"411 126 LINE",
"431 126 LINE",
"746 531 LINE"
);
}
);
};
layerId = m01;
paths = (
{
closed = 1;
nodes = (
"191 0 LINE",
"191 498 LINE",
"165 491 LINE",
"381 136 LINE",
"461 136 LINE",
"677 491 LINE",
"651 498 LINE",
"651 0 LINE",
"766 0 LINE",
"766 700 LINE",
"686 700 LINE",
"395 221 LINE",
"447 221 LINE",
"156 700 LINE",
"76 700 LINE",
"76 0 LINE"
);
}
);
width = 842;
},
{
layerId = "9F43D23A-D415-475F-B4C7-798B571F7CAB";
paths = (
{
closed = 1;
nodes = (
"257 0 LINE",
"257 384 LINE",
"229 376 LINE",
"373 168 LINE",
"501 168 LINE",
"646 376 LINE",
"617 384 LINE",
"617 0 LINE",
"815 0 LINE",
"815 712 LINE",
"670 712 LINE",
"406 324 LINE",
"469 324 LINE",
"204 712 LINE",
"59 712 LINE",
"59 0 LINE"
);
}
);
width = 874;
},
{
background = {
paths = (
{
closed = 1;
nodes = (
"456 136 LINE",
"681 507 LINE",
"681 700 LINE",
"386 214 LINE",
"376 136 LINE"
);
},
{
closed = 1;
nodes = (
"186 0 LINE",
"186 496 LINE",
"151 700 LINE",
"71 700 LINE",
"71 0 LINE"
);
},
{
closed = 1;
nodes = (
"456 136 LINE",
"446 214 LINE",
"151 700 LINE",
"151 507 LINE",
"376 136 LINE"
);
},
{
closed = 1;
nodes = (
"761 0 LINE",
"761 700 LINE",
"681 700 LINE",
"646 496 LINE",
"646 0 LINE"
);
}
);
};
layerId = "0B0D9703-EF89-4C57-A339-A59A1335C1A4";
paths = (
{
closed = 1;
nodes = (
"131 0 LINE",
"131 622 LINE",
"123 620 LINE",
"403 161 LINE",
"427 161 LINE",
"707 620 LINE",
"699 622 LINE",
"699 0 LINE",
"731 0 LINE",
"731 676 LINE",
"707 676 LINE",
"404 180 LINE",
"426 180 LINE",
"123 676 LINE",
"99 676 LINE",
"99 0 LINE"
);
}
);
width = 830;
}
);
leftKerningGroup = H;
rightKerningGroup = H;
unicode = 004D;
},
{
glyphname = N;
lastChange = "2021-09-13 16:49:04 +0000";
layers = (
{
anchors = (
{
name = bottom;
position = "{359, 0}";
},
{
name = top;
position = "{359, 700}";
}
);
background = {
paths = (
{
closed = 1;
nodes = (
"575 163 LINE",
"156 700 LINE",
"142 537 LINE",
"561 0 LINE"
);
},
{
closed = 1;
nodes = (
"191 0 LINE",
"191 568 LINE",
"156 700 LINE",
"76 700 LINE",
"76 0 LINE"
);
},
{
closed = 1;
nodes = (
"641 0 LINE",
"641 700 LINE",
"526 700 LINE",
"526 123 LINE",
"561 0 LINE"
);
}
);
};
layerId = m01;
paths = (
{
closed = 1;
nodes = (
"191 0 LINE",
"191 568 LINE",
"156 700 LINE",
"76 700 LINE",
"76 0 LINE"
);
},
{
closed = 1;
nodes = (
"575 153 LINE",
"156 700 LINE",
"142 547 LINE",
"561 0 LINE"
);
},
{
closed = 1;
nodes = (
"641 0 LINE",
"641 700 LINE",
"526 700 LINE",
"526 123 LINE",
"561 0 LINE"
);
}
);
width = 717;
},
{
anchors = (
{
name = bottom;
position = "{379, 0}";
},
{
name = top;
position = "{379, 712}";
}
);
background = {
components = (
{
name = H;
transform = "{1, 0, 0, 1, -2, 0}";
}
);
};
layerId = "9F43D23A-D415-475F-B4C7-798B571F7CAB";
paths = (
{
closed = 1;
nodes = (
"259 0 LINE",
"259 562 LINE",
"199 712 LINE",
"59 712 LINE",
"59 0 LINE"
);
},
{
closed = 1;
nodes = (
"612 193 LINE",
"199 712 LINE",
"136 519 LINE",
"549 0 LINE"
);
},
{
closed = 1;
nodes = (
"699 0 LINE",
"699 712 LINE",
"499 712 LINE",
"499 158 LINE",
"549 0 LINE"
);
}
);
width = 758;
},
{
anchors = (
{
name = bottom;
position = "{345, 0}";
},
{
name = top;
position = "{345, 676}";
}
);
layerId = "0B0D9703-EF89-4C57-A339-A59A1335C1A4";
paths = (
{
closed = 1;
nodes = (
"131 0 LINE",
"131 634 LINE",
"123 676 LINE",
"99 676 LINE",
"99 0 LINE"
);
},
{
closed = 1;
nodes = (
"573 43 LINE",
"123 676 LINE",
"116 633 LINE",
"566 0 LINE"
);
},
{
closed = 1;
nodes = (
"590 0 LINE",
"590 676 LINE",
"558 676 LINE",
"558 42 LINE",
"566 0 LINE"
);
}
);
width = 689;
}
);
leftKerningGroup = H;
rightKerningGroup = H;
unicode = 004E;
},
{
glyphname = O;
lastChange = "2021-09-13 16:50:04 +0000";
layers = (
{
anchors = (
{
name = bottom;
position = "{397, 0}";
},
{
name = center;
position = "{397, 350}";
},
{
name = ogonek;
position = "{715, 10}";
},
{
name = top;
position = "{397, 700}";
},
{
name = topleft;
position = "{20, 700}";
},
{
name = topright;
position = "{774, 700}";
}
);
layerId = m01;
paths = (
{
closed = 1;
nodes = (
"596 -10 OFFCURVE",
"753 150 OFFCURVE",
"753 350 CURVE SMOOTH",
"753 551 OFFCURVE",
"595 710 OFFCURVE",
"396 710 CURVE SMOOTH",
"197 710 OFFCURVE",
"40 551 OFFCURVE",
"40 351 CURVE SMOOTH",
"40 151 OFFCURVE",
"199 -10 OFFCURVE",
"398 -10 CURVE SMOOTH"
);
},
{
closed = 1;
nodes = (
"256 100 OFFCURVE",
"158 203 OFFCURVE",
"158 351 CURVE SMOOTH",
"158 498 OFFCURVE",
"256 600 OFFCURVE",
"396 600 CURVE SMOOTH",
"536 600 OFFCURVE",
"635 497 OFFCURVE",
"635 351 CURVE SMOOTH",
"635 203 OFFCURVE",
"537 100 OFFCURVE",
"396 100 CURVE SMOOTH"
);
}
);
width = 794;
},
{
anchors = (
{
name = bottom;
position = "{409, 0}";
},
{
name = center;
position = "{409, 356}";
},
{
name = ogonek;
position = "{736, 10}";
},
{
name = top;
position = "{409, 712}";
},
{
name = topleft;
position = "{20, 712}";
},
{
name = topright;
position = "{798, 712}";
}
);
layerId = "9F43D23A-D415-475F-B4C7-798B571F7CAB";
paths = (
{
closed = 1;
nodes = (
"632 -14 OFFCURVE",
"795 144 OFFCURVE",
"795 356 CURVE SMOOTH",
"795 569 OFFCURVE",
"632 726 OFFCURVE",
"409 726 CURVE SMOOTH",
"186 726 OFFCURVE",
"23 569 OFFCURVE",
"23 357 CURVE SMOOTH",
"23 145 OFFCURVE",
"188 -14 OFFCURVE",
"411 -14 CURVE SMOOTH"
);
},
{
closed = 1;
nodes = (
"297 162 OFFCURVE",
"227 238 OFFCURVE",
"227 357 CURVE SMOOTH",
"227 475 OFFCURVE",
"297 550 OFFCURVE",
"409 550 CURVE SMOOTH",
"520 550 OFFCURVE",
"591 475 OFFCURVE",
"591 357 CURVE SMOOTH",
"591 238 OFFCURVE",
"521 162 OFFCURVE",
"409 162 CURVE SMOOTH"
);
}
);
width = 818;
},
{
anchors = (
{
name = bottom;
position = "{397, 0}";
},
{
name = center;
position = "{397, 338}";
},
{
name = ogonek;
position = "{714, 10}";
},
{
name = top;
position = "{397, 676}";
},
{
name = topleft;
position = "{20, 676}";
},
{
name = topright;
position = "{773, 676}";
}
);
layerId = "0B0D9703-EF89-4C57-A339-A59A1335C1A4";
paths = (
{
closed = 1;
nodes = (
"586 -10 OFFCURVE",
"727 142 OFFCURVE",
"727 338 CURVE SMOOTH",
"727 535 OFFCURVE",
"585 686 OFFCURVE",
"396 686 CURVE SMOOTH",
"207 686 OFFCURVE",
"66 535 OFFCURVE",
"66 339 CURVE SMOOTH",
"66 143 OFFCURVE",
"209 -10 OFFCURVE",
"398 -10 CURVE SMOOTH"
);
},
{
closed = 1;
nodes = (
"227 21 OFFCURVE",
"100 159 OFFCURVE",
"100 339 CURVE SMOOTH",
"100 518 OFFCURVE",
"226 655 OFFCURVE",
"396 655 CURVE SMOOTH",
"566 655 OFFCURVE",
"693 517 OFFCURVE",
"693 339 CURVE SMOOTH",
"693 159 OFFCURVE",
"566 21 OFFCURVE",
"396 21 CURVE SMOOTH"
);
}
);
width = 793;
}
);
leftKerningGroup = O;
rightKerningGroup = O;
unicode = 004F;
userData = {
KernOnName = O;
};
},
{
glyphname = Oslash;
lastChange = "2021-09-13 16:54:12 +0000";
layers = (
{
components = (
{
name = O;
transform = "{1, 0, 0, 1, -1, 0}";
}
);
layerId = "0B0D9703-EF89-4C57-A339-A59A1335C1A4";
paths = (
{
closed = 1;
nodes = (
"76 39 LINE",
"96 18 LINE",
"715 637 LINE",
"695 658 LINE"
);
}
);
width = 793;
},
{
components = (
{
name = O;
}
);
layerId = m01;
paths = (
{
closed = 1;
nodes = (
"41 70 LINE",
"117 -6 LINE",
"753 630 LINE",
"677 706 LINE"
);
}
);
width = 794;
},
{
components = (
{
name = O;
}
);
layerId = "9F43D23A-D415-475F-B4C7-798B571F7CAB";
paths = (
{
closed = 1;
nodes = (
"12 80 LINE",
"133 -41 LINE",
"806 632 LINE",
"685 753 LINE"
);
}
);
width = 818;
}
);
leftKerningGroup = O;
rightKerningGroup = O;
unicode = 00D8;
},
{
glyphname = OE;
lastChange = "2021-09-13 16:55:57 +0000";
layers = (
{
layerId = "0B0D9703-EF89-4C57-A339-A59A1335C1A4";
paths = (
{
closed = 1;
nodes = (
"596 -10 OFFCURVE",
"720 142 OFFCURVE",
"720 338 CURVE SMOOTH",
"720 535 OFFCURVE",
"595 686 OFFCURVE",
"396 686 CURVE SMOOTH",
"207 686 OFFCURVE",
"66 535 OFFCURVE",
"66 339 CURVE SMOOTH",
"66 143 OFFCURVE",
"209 -10 OFFCURVE",
"398 -10 CURVE SMOOTH"
);
},
{
closed = 1;
nodes = (
"227 21 OFFCURVE",
"100 159 OFFCURVE",
"100 339 CURVE SMOOTH",
"100 518 OFFCURVE",
"226 655 OFFCURVE",
"396 655 CURVE SMOOTH",
"576 655 OFFCURVE",
"693 517 OFFCURVE",
"693 339 CURVE SMOOTH",
"693 159 OFFCURVE",
"576 21 OFFCURVE",
"396 21 CURVE SMOOTH"
);
},
{
closed = 1;
nodes = (
"725 0 LINE",
"725 676 LINE",
"693 676 LINE",
"693 0 LINE"
);
},
{
closed = 1;
nodes = (
"1128 0 LINE",
"1128 29 LINE",
"711 29 LINE",
"711 0 LINE"
);
},
{
closed = 1;
nodes = (
"1098 333 LINE",
"1098 361 LINE",
"711 361 LINE",
"711 333 LINE"
);
},
{
closed = 1;
nodes = (
"1122 647 LINE",
"1122 676 LINE",
"711 676 LINE",
"711 647 LINE"
);
}
);
width = 1182;
},
{
layerId = m01;
paths = (
{
closed = 1;
nodes = (
"596 -10 OFFCURVE",
"723 150 OFFCURVE",
"723 350 CURVE SMOOTH",
"723 551 OFFCURVE",
"595 710 OFFCURVE",
"396 710 CURVE SMOOTH",
"197 710 OFFCURVE",
"40 551 OFFCURVE",
"40 351 CURVE SMOOTH",
"40 151 OFFCURVE",
"199 -10 OFFCURVE",
"398 -10 CURVE SMOOTH"
);
},
{
closed = 1;
nodes = (
"256 100 OFFCURVE",
"158 203 OFFCURVE",
"158 351 CURVE SMOOTH",
"158 498 OFFCURVE",
"256 600 OFFCURVE",
"396 600 CURVE SMOOTH",
"536 600 OFFCURVE",
"635 497 OFFCURVE",
"635 351 CURVE SMOOTH",
"635 203 OFFCURVE",
"537 100 OFFCURVE",
"396 100 CURVE SMOOTH"
);
},
{
closed = 1;
nodes = (
"750 0 LINE",
"750 700 LINE",
"635 700 LINE",
"635 0 LINE"
);
},
{
closed = 1;
nodes = (
"1106 0 LINE",
"1106 105 LINE",
"714 105 LINE",
"714 0 LINE"
);
},
{
closed = 1;
nodes = (
"1072 307 LINE",
"1072 408 LINE",
"714 408 LINE",
"714 307 LINE"
);
},
{
closed = 1;
nodes = (
"1101 595 LINE",
"1101 700 LINE",
"714 700 LINE",
"714 595 LINE"
);
}
);
width = 1149;
},
{
layerId = "9F43D23A-D415-475F-B4C7-798B571F7CAB";
paths = (
{
closed = 1;
nodes = (
"622 -14 OFFCURVE",
"705 144 OFFCURVE",
"705 356 CURVE SMOOTH",
"705 569 OFFCURVE",
"622 726 OFFCURVE",
"399 726 CURVE SMOOTH",
"186 726 OFFCURVE",
"23 569 OFFCURVE",
"23 357 CURVE SMOOTH",
"23 145 OFFCURVE",
"188 -14 OFFCURVE",
"401 -14 CURVE SMOOTH"
);
},
{
closed = 1;
nodes = (
"297 162 OFFCURVE",
"227 238 OFFCURVE",
"227 357 CURVE SMOOTH",
"227 475 OFFCURVE",
"297 550 OFFCURVE",
"409 550 CURVE SMOOTH",
"520 550 OFFCURVE",
"591 475 OFFCURVE",
"591 357 CURVE SMOOTH",
"591 238 OFFCURVE",
"521 162 OFFCURVE",
"409 162 CURVE SMOOTH"
);
},
{
closed = 1;
nodes = (
"791 0 LINE",
"791 712 LINE",
"591 712 LINE",
"591 0 LINE"
);
},
{
closed = 1;
nodes = (
"1135 0 LINE",
"1135 166 LINE",
"753 166 LINE",
"753 0 LINE"
);
},
{
closed = 1;
nodes = (
"1098 282 LINE",
"1098 444 LINE",
"753 444 LINE",
"753 282 LINE"
);
},
{
closed = 1;
nodes = (
"1129 546 LINE",
"1129 712 LINE",
"753 712 LINE",
"753 546 LINE"
);
}
);
width = 1171;
}
);
leftKerningGroup = O;
leftMetricsKey = O;
rightKerningGroup = E;
rightMetricsKey = E;
unicode = 0152;
},
{
glyphname = P;
lastChange = "2021-07-28 19:18:03 +0000";
layers = (
{
background = {
paths = (
{
closed = 1;
nodes = (
"401 368 OFFCURVE",
"453 419 OFFCURVE",
"453 484 CURVE SMOOTH",
"453 548 OFFCURVE",
"401 600 OFFCURVE",
"337 600 CURVE SMOOTH",
"272 600 OFFCURVE",
"221 548 OFFCURVE",
"221 484 CURVE SMOOTH",
"221 419 OFFCURVE",
"272 368 OFFCURVE",
"337 368 CURVE SMOOTH"
);
}
);
};
layerId = m01;
paths = (
{
closed = 1;
nodes = (
"336 264 LINE SMOOTH",
"468 264 OFFCURVE",
"568 350 OFFCURVE",
"568 482 CURVE SMOOTH",
"568 614 OFFCURVE",
"468 700 OFFCURVE",
"336 700 CURVE SMOOTH",
"155 700 LINE",
"155 600 LINE",
"330 600 LINE SMOOTH",
"402 600 OFFCURVE",
"453 554 OFFCURVE",
"453 482 CURVE SMOOTH",
"453 410 OFFCURVE",
"402 364 OFFCURVE",
"330 364 CURVE SMOOTH",
"155 364 LINE",
"155 264 LINE"
);
},
{
closed = 1;
nodes = (
"191 0 LINE",
"191 700 LINE",
"76 700 LINE",
"76 0 LINE"
);
}
);
width = 604;
},
{
layerId = "9F43D23A-D415-475F-B4C7-798B571F7CAB";
paths = (
{
closed = 1;
nodes = (
"389 250 LINE SMOOTH",
"526 250 OFFCURVE",
"634 336 OFFCURVE",
"634 481 CURVE SMOOTH",
"634 626 OFFCURVE",
"526 712 OFFCURVE",
"389 712 CURVE SMOOTH",
"221 712 LINE",
"221 568 LINE",
"350 568 LINE SMOOTH",
"395 568 OFFCURVE",
"436 539 OFFCURVE",
"436 481 CURVE SMOOTH",
"436 423 OFFCURVE",
"395 394 OFFCURVE",
"350 394 CURVE SMOOTH",
"221 394 LINE",
"221 250 LINE"
);
},
{
closed = 1;
nodes = (
"259 0 LINE",
"259 712 LINE",
"59 712 LINE",
"59 0 LINE"
);
}
);
width = 652;
},
{
layerId = "0B0D9703-EF89-4C57-A339-A59A1335C1A4";
paths = (
{
closed = 1;
nodes = (
"350 288 LINE SMOOTH",
"465 288 OFFCURVE",
"551 364 OFFCURVE",
"551 482 CURVE SMOOTH",
"551 600 OFFCURVE",
"465 676 OFFCURVE",
"350 676 CURVE SMOOTH",
"115 676 LINE",
"115 647 LINE",
"345 647 LINE SMOOTH",
"444 647 OFFCURVE",
"518 584 OFFCURVE",
"518 482 CURVE SMOOTH",
"518 380 OFFCURVE",
"444 317 OFFCURVE",
"345 317 CURVE SMOOTH",
"115 317 LINE",
"115 288 LINE"
);
},
{
closed = 1;
nodes = (
"131 0 LINE",
"131 676 LINE",
"99 676 LINE",
"99 0 LINE"
);
}
);
width = 611;
}
);
leftKerningGroup = H;
unicode = 0050;
},
{
glyphname = Thorn;
lastChange = "2021-09-13 16:57:03 +0000";
layers = (
{
layerId = "0B0D9703-EF89-4C57-A339-A59A1335C1A4";
paths = (
{
closed = 1;
nodes = (
"350 153 LINE SMOOTH",
"465 153 OFFCURVE",
"551 229 OFFCURVE",
"551 347 CURVE SMOOTH",
"551 465 OFFCURVE",
"465 541 OFFCURVE",
"350 541 CURVE SMOOTH",
"115 541 LINE",
"115 512 LINE",
"345 512 LINE SMOOTH",
"444 512 OFFCURVE",
"518 449 OFFCURVE",
"518 347 CURVE SMOOTH",
"518 245 OFFCURVE",
"444 182 OFFCURVE",
"345 182 CURVE SMOOTH",
"115 182 LINE",
"115 153 LINE"
);
},
{
closed = 1;
nodes = (
"131 0 LINE",
"131 676 LINE",
"99 676 LINE",
"99 0 LINE"
);
}
);
width = 611;
},
{
layerId = m01;
paths = (
{
closed = 1;
nodes = (
"336 140 LINE SMOOTH",
"468 140 OFFCURVE",
"568 226 OFFCURVE",
"568 358 CURVE SMOOTH",
"568 490 OFFCURVE",
"468 576 OFFCURVE",
"336 576 CURVE SMOOTH",
"155 576 LINE",
"155 476 LINE",
"330 476 LINE SMOOTH",
"402 476 OFFCURVE",
"453 430 OFFCURVE",
"453 358 CURVE SMOOTH",
"453 286 OFFCURVE",
"402 240 OFFCURVE",
"330 240 CURVE SMOOTH",
"155 240 LINE",
"155 140 LINE"
);
},
{
closed = 1;
nodes = (
"191 0 LINE",
"191 700 LINE",
"76 700 LINE",
"76 0 LINE"
);
}
);
width = 604;
},
{
layerId = "9F43D23A-D415-475F-B4C7-798B571F7CAB";
paths = (
{
closed = 1;
nodes = (
"389 130 LINE SMOOTH",
"526 130 OFFCURVE",
"634 216 OFFCURVE",
"634 361 CURVE SMOOTH",
"634 506 OFFCURVE",
"526 592 OFFCURVE",
"389 592 CURVE SMOOTH",
"221 592 LINE",
"221 448 LINE",
"350 448 LINE SMOOTH",
"395 448 OFFCURVE",
"436 419 OFFCURVE",
"436 361 CURVE SMOOTH",
"436 303 OFFCURVE",
"395 274 OFFCURVE",
"350 274 CURVE SMOOTH",
"221 274 LINE",
"221 130 LINE"
);
},
{
closed = 1;
nodes = (
"259 0 LINE",
"259 712 LINE",
"59 712 LINE",
"59 0 LINE"
);
}
);
width = 652;
}
);
unicode = 00DE;
},
{
glyphname = Q;
lastChange = "2021-07-28 20:30:01 +0000";
layers = (
{
layerId = m01;
paths = (
{
closed = 1;
nodes = (
"597 -10 OFFCURVE",
"754 150 OFFCURVE",
"754 350 CURVE SMOOTH",
"754 551 OFFCURVE",
"596 710 OFFCURVE",
"397 710 CURVE SMOOTH",
"198 710 OFFCURVE",
"41 551 OFFCURVE",
"41 351 CURVE SMOOTH",
"41 151 OFFCURVE",
"200 -10 OFFCURVE",
"399 -10 CURVE SMOOTH"
);
},
{
closed = 1;
nodes = (
"257 100 OFFCURVE",
"159 203 OFFCURVE",
"159 351 CURVE SMOOTH",
"159 498 OFFCURVE",
"257 600 OFFCURVE",
"397 600 CURVE SMOOTH",
"537 600 OFFCURVE",
"636 497 OFFCURVE",
"636 351 CURVE SMOOTH",
"636 203 OFFCURVE",
"538 100 OFFCURVE",
"397 100 CURVE SMOOTH"
);
},
{
closed = 1;
nodes = (
"793 26 LINE",
"478 341 LINE",
"404 267 LINE",
"719 -48 LINE"
);
}
);
width = 820;
},
{
layerId = "9F43D23A-D415-475F-B4C7-798B571F7CAB";
paths = (
{
closed = 1;
nodes = (
"632 -14 OFFCURVE",
"795 144 OFFCURVE",
"795 356 CURVE SMOOTH",
"795 569 OFFCURVE",
"632 726 OFFCURVE",
"409 726 CURVE SMOOTH",
"186 726 OFFCURVE",
"23 569 OFFCURVE",
"23 357 CURVE SMOOTH",
"23 145 OFFCURVE",
"188 -14 OFFCURVE",
"411 -14 CURVE SMOOTH"
);
},
{
closed = 1;
nodes = (
"297 162 OFFCURVE",
"227 238 OFFCURVE",
"227 357 CURVE SMOOTH",
"227 475 OFFCURVE",
"297 550 OFFCURVE",
"409 550 CURVE SMOOTH",
"520 550 OFFCURVE",
"591 475 OFFCURVE",
"591 357 CURVE SMOOTH",
"591 238 OFFCURVE",
"521 162 OFFCURVE",
"409 162 CURVE SMOOTH"
);
},
{
closed = 1;
nodes = (
"828 43 LINE",
"483 388 LINE",
"375 280 LINE",
"720 -65 LINE"
);
}
);
width = 818;
},
{
layerId = "0B0D9703-EF89-4C57-A339-A59A1335C1A4";
paths = (
{
closed = 1;
nodes = (
"586 -10 OFFCURVE",
"727 142 OFFCURVE",
"727 338 CURVE SMOOTH",
"727 535 OFFCURVE",
"585 686 OFFCURVE",
"396 686 CURVE SMOOTH",
"207 686 OFFCURVE",
"66 535 OFFCURVE",
"66 339 CURVE SMOOTH",
"66 143 OFFCURVE",
"209 -10 OFFCURVE",
"398 -10 CURVE SMOOTH"
);
},
{
closed = 1;
nodes = (
"227 21 OFFCURVE",
"100 159 OFFCURVE",
"100 339 CURVE SMOOTH",
"100 518 OFFCURVE",
"226 655 OFFCURVE",
"396 655 CURVE SMOOTH",
"566 655 OFFCURVE",
"693 517 OFFCURVE",
"693 339 CURVE SMOOTH",
"693 159 OFFCURVE",
"566 21 OFFCURVE",
"396 21 CURVE SMOOTH"
);
},
{
closed = 1;
nodes = (
"786 -31 LINE",
"432 323 LINE",
"412 303 LINE",
"766 -51 LINE"
);
}
);
width = 807;
}
);
leftKerningGroup = O;
unicode = 0051;
},
{
glyphname = R;
lastChange = "2021-07-22 20:34:11 +0000";
layers = (
{
background = {
components = (
{
name = H;
transform = "{1, 0, 0, 1, 8, 0}";
}
);
};
layerId = m01;
paths = (
{
closed = 1;
nodes = (
"338 297 LINE SMOOTH",
"470 297 OFFCURVE",
"559 376 OFFCURVE",
"559 498 CURVE SMOOTH",
"559 614 OFFCURVE",
"470 700 OFFCURVE",
"338 700 CURVE SMOOTH",
"155 700 LINE",
"155 600 LINE",
"333 600 LINE SMOOTH",
"403 600 OFFCURVE",
"444 554 OFFCURVE",
"444 496 CURVE SMOOTH",
"444 431 OFFCURVE",
"403 392 OFFCURVE",
"332 392 CURVE SMOOTH",
"155 392 LINE",
"155 297 LINE"
);
},
{
closed = 1;
nodes = (
"191 0 LINE",
"191 700 LINE",
"76 700 LINE",
"76 0 LINE"
);
},
{
closed = 1;
nodes = (
"605 0 LINE",
"322 343 LINE",
"215 304 LINE",
"460 0 LINE"
);
}
);
width = 628;
},
{
layerId = "9F43D23A-D415-475F-B4C7-798B571F7CAB";
paths = (
{
closed = 1;
nodes = (
"364 284 LINE SMOOTH",
"521 284 OFFCURVE",
"624 370 OFFCURVE",
"624 498 CURVE SMOOTH",
"624 626 OFFCURVE",
"521 712 OFFCURVE",
"374 712 CURVE SMOOTH",
"221 712 LINE",
"221 568 LINE",
"342 568 LINE SMOOTH",
"397 568 OFFCURVE",
"426 539 OFFCURVE",
"426 495 CURVE SMOOTH",
"426 451 OFFCURVE",
"397 422 OFFCURVE",
"342 422 CURVE SMOOTH",
"221 422 LINE",
"221 284 LINE"
);
},
{
closed = 1;
nodes = (
"259 0 LINE",
"259 712 LINE",
"59 712 LINE",
"59 0 LINE"
);
},
{
closed = 1;
nodes = (
"670 0 LINE",
"429 343 LINE",
"249 304 LINE",
"443 0 LINE"
);
}
);
width = 675;
},
{
layerId = "0B0D9703-EF89-4C57-A339-A59A1335C1A4";
paths = (
{
closed = 1;
nodes = (
"332 318 LINE SMOOTH",
"465 318 OFFCURVE",
"539 391 OFFCURVE",
"539 497 CURVE SMOOTH",
"539 603 OFFCURVE",
"465 676 OFFCURVE",
"332 676 CURVE SMOOTH",
"115 676 LINE",
"115 647 LINE",
"337 647 LINE SMOOTH",
"448 647 OFFCURVE",
"506 587 OFFCURVE",
"506 497 CURVE SMOOTH",
"506 407 OFFCURVE",
"448 347 OFFCURVE",
"337 347 CURVE SMOOTH",
"115 347 LINE",
"115 318 LINE"
);
},
{
closed = 1;
nodes = (
"131 0 LINE",
"131 676 LINE",
"99 676 LINE",
"99 0 LINE"
);
},
{
closed = 1;
nodes = (
"590 0 LINE",
"311 338 LINE",
"276 332 LINE",
"547 0 LINE"
);
}
);
width = 637;
}
);
leftKerningGroup = H;
unicode = 0052;
},
{
glyphname = S;
lastChange = "2021-07-28 20:35:32 +0000";
layers = (
{
background = {
paths = (
{
closed = 1;
nodes = (
"65 638 OFFCURVE",
"165 710 OFFCURVE",
"303 710 CURVE SMOOTH",
"399 710 OFFCURVE",
"473 670 OFFCURVE",
"519 614 CURVE",
"441 536 LINE",
"401 581 OFFCURVE",
"360 603 OFFCURVE",
"300 603 CURVE SMOOTH",
"221 603 OFFCURVE",
"180 574 OFFCURVE",
"180 520 CURVE SMOOTH",
"180 367 OFFCURVE",
"517 447 OFFCURVE",
"517 194 CURVE SMOOTH",
"517 67 OFFCURVE",
"415 -10 OFFCURVE",
"261 -10 CURVE SMOOTH",
"164 -10 OFFCURVE",
"87 26 OFFCURVE",
"26 94 CURVE",
"104 172 LINE",
"143 126 OFFCURVE",
"196 97 OFFCURVE",
"267 97 CURVE SMOOTH",
"352 97 OFFCURVE",
"402 131 OFFCURVE",
"402 189 CURVE SMOOTH",
"402 349 OFFCURVE",
"65 268 OFFCURVE",
"65 515 CURVE SMOOTH"
);
}
);
};
layerId = m01;
paths = (
{
closed = 1;
nodes = (
"422 -10 OFFCURVE",
"517 68 OFFCURVE",
"517 194 CURVE SMOOTH",
"517 454 OFFCURVE",
"185 375 OFFCURVE",
"185 523 CURVE SMOOTH",
"185 574 OFFCURVE",
"226 603 OFFCURVE",
"296 603 CURVE SMOOTH",
"352 603 OFFCURVE",
"393 581 OFFCURVE",
"433 536 CURVE",
"511 614 LINE",
"465 670 OFFCURVE",
"391 710 OFFCURVE",
"299 710 CURVE SMOOTH",
"170 710 OFFCURVE",
"70 638 OFFCURVE",
"70 515 CURVE SMOOTH",
"70 265 OFFCURVE",
"402 351 OFFCURVE",
"402 187 CURVE SMOOTH",
"402 131 OFFCURVE",
"352 97 OFFCURVE",
"275 97 CURVE SMOOTH",
"192 97 OFFCURVE",
"143 130 OFFCURVE",
"104 186 CURVE",
"26 108 LINE",
"87 30 OFFCURVE",
"160 -10 OFFCURVE",
"271 -10 CURVE SMOOTH"
);
}
);
width = 556;
},
{
background = {
paths = (
{
closed = 1;
nodes = (
"459 -12 OFFCURVE",
"568 68 OFFCURVE",
"568 197 CURVE SMOOTH",
"568 462 OFFCURVE",
"187 382 OFFCURVE",
"187 533 CURVE SMOOTH",
"187 585 OFFCURVE",
"234 615 OFFCURVE",
"315 615 CURVE SMOOTH",
"379 615 OFFCURVE",
"426 592 OFFCURVE",
"472 546 CURVE",
"561 626 LINE",
"508 683 OFFCURVE",
"424 724 OFFCURVE",
"318 724 CURVE SMOOTH",
"170 724 OFFCURVE",
"56 650 OFFCURVE",
"56 525 CURVE SMOOTH",
"56 269 OFFCURVE",
"436 357 OFFCURVE",
"436 189 CURVE SMOOTH",
"436 132 OFFCURVE",
"379 97 OFFCURVE",
"290 97 CURVE SMOOTH",
"195 97 OFFCURVE",
"139 131 OFFCURVE",
"94 188 CURVE",
"5 109 LINE",
"75 29 OFFCURVE",
"159 -12 OFFCURVE",
"286 -12 CURVE SMOOTH"
);
}
);
};
layerId = "9F43D23A-D415-475F-B4C7-798B571F7CAB";
paths = (
{
closed = 1;
nodes = (
"477 -12 OFFCURVE",
"585 71 OFFCURVE",
"585 216 CURVE SMOOTH",
"585 470 OFFCURVE",
"254 427 OFFCURVE",
"254 524 CURVE SMOOTH",
"254 551 OFFCURVE",
"280 564 OFFCURVE",
"322 564 CURVE SMOOTH",
"374 564 OFFCURVE",
"416 544 OFFCURVE",
"460 501 CURVE",
"586 626 LINE",
"526 688 OFFCURVE",
"430 724 OFFCURVE",
"324 724 CURVE SMOOTH",
"162 724 OFFCURVE",
"57 640 OFFCURVE",
"57 502 CURVE SMOOTH",
"57 256 OFFCURVE",
"388 297 OFFCURVE",
"388 195 CURVE SMOOTH",
"388 166 OFFCURVE",
"360 148 OFFCURVE",
"305 148 CURVE SMOOTH",
"239 148 OFFCURVE",
"183 174 OFFCURVE",
"131 224 CURVE",
"6 99 LINE",
"82 22 OFFCURVE",
"167 -12 OFFCURVE",
"289 -12 CURVE SMOOTH"
);
}
);
width = 609;
},
{
background = {
components = (
{
name = H;
transform = "{1, 0, 0, 1, -75, 0}";
}
);
};
layerId = "0B0D9703-EF89-4C57-A339-A59A1335C1A4";
paths = (
{
closed = 1;
nodes = (
"410 -10 OFFCURVE",
"488 49 OFFCURVE",
"488 162 CURVE SMOOTH",
"488 410 OFFCURVE",
"130 314 OFFCURVE",
"130 524 CURVE SMOOTH",
"130 606 OFFCURVE",
"193 656 OFFCURVE",
"284 656 CURVE SMOOTH",
"362 656 OFFCURVE",
"419 624 OFFCURVE",
"464 567 CURVE",
"487 589 LINE",
"439 651 OFFCURVE",
"370 686 OFFCURVE",
"284 686 CURVE SMOOTH",
"172 686 OFFCURVE",
"97 621 OFFCURVE",
"97 523 CURVE SMOOTH",
"97 280 OFFCURVE",
"455 379 OFFCURVE",
"455 156 CURVE SMOOTH",
"455 71 OFFCURVE",
"385 20 OFFCURVE",
"287 20 CURVE SMOOTH",
"199 20 OFFCURVE",
"129 50 OFFCURVE",
"73 126 CURVE",
"50 104 LINE",
"104 33 OFFCURVE",
"181 -10 OFFCURVE",
"285 -10 CURVE SMOOTH"
);
}
);
width = 552;
}
);
unicode = 0053;
},
{
glyphname = T;
lastChange = "2021-07-28 20:35:46 +0000";
layers = (
{
layerId = m01;
paths = (
{
closed = 1;
nodes = (
"367 0 LINE",
"367 680 LINE",
"252 680 LINE",
"252 0 LINE"
);
},
{
closed = 1;
nodes = (
"595 595 LINE",
"595 700 LINE",
"24 700 LINE",
"24 595 LINE"
);
}
);
width = 619;
},
{
background = {
components = (
{
name = H;
transform = "{1, 0, 0, 1, -45, 0}";
}
);
};
layerId = "9F43D23A-D415-475F-B4C7-798B571F7CAB";
paths = (
{
closed = 1;
nodes = (
"429 0 LINE",
"429 712 LINE",
"229 712 LINE",
"229 0 LINE"
);
},
{
closed = 1;
nodes = (
"643 542 LINE",
"643 712 LINE",
"16 712 LINE",
"16 542 LINE"
);
}
);
width = 659;
},
{
layerId = "0B0D9703-EF89-4C57-A339-A59A1335C1A4";
paths = (
{
closed = 1;
nodes = (
"338 0 LINE",
"338 657 LINE",
"306 657 LINE",
"306 0 LINE"
);
},
{
closed = 1;
nodes = (
"595 647 LINE",
"595 676 LINE",
"49 676 LINE",
"49 647 LINE"
);
}
);
width = 644;
}
);
leftKerningGroup = T;
rightKerningGroup = T;
unicode = 0054;
userData = {
KernOnName = T;
KernOnSpecialSpacing = {
L = hyphen;
};
};
},
{
glyphname = U;
lastChange = "2021-09-13 16:57:41 +0000";
layers = (
{
anchors = (
{
name = bottom;
position = "{345, 0}";
},
{
name = ogonek;
position = "{621, 10}";
},
{
name = top;
position = "{345, 700}";
},
{
name = topright;
position = "{670, 700}";
}
);
layerId = m01;
paths = (
{
closed = 1;
nodes = (
"505 -10 OFFCURVE",
"622 107 OFFCURVE",
"622 265 CURVE SMOOTH",
"622 700 LINE",
"507 700 LINE",
"507 266 LINE SMOOTH",
"507 165 OFFCURVE",
"439 100 OFFCURVE",
"346 100 CURVE SMOOTH",
"253 100 OFFCURVE",
"183 165 OFFCURVE",
"183 267 CURVE SMOOTH",
"183 700 LINE",
"68 700 LINE",
"68 266 LINE SMOOTH",
"68 108 OFFCURVE",
"187 -10 OFFCURVE",
"346 -10 CURVE SMOOTH"
);
}
);
width = 690;
},
{
anchors = (
{
name = bottom;
position = "{357, 0}";
},
{
name = ogonek;
position = "{643, 10}";
},
{
name = top;
position = "{357, 712}";
},
{
name = topright;
position = "{694, 712}";
}
);
layerId = "9F43D23A-D415-475F-B4C7-798B571F7CAB";
paths = (
{
closed = 1;
nodes = (
"546 -12 OFFCURVE",
"668 112 OFFCURVE",
"668 288 CURVE SMOOTH",
"668 712 LINE",
"467 712 LINE",
"467 270 LINE SMOOTH",
"467 202 OFFCURVE",
"421 164 OFFCURVE",
"358 164 CURVE SMOOTH",
"295 164 OFFCURVE",
"246 202 OFFCURVE",
"246 271 CURVE SMOOTH",
"246 712 LINE",
"46 712 LINE",
"46 289 LINE SMOOTH",
"46 113 OFFCURVE",
"170 -12 OFFCURVE",
"358 -12 CURVE SMOOTH"
);
}
);
width = 714;
},
{
anchors = (
{
name = bottom;
position = "{331, 0}";
},
{
name = ogonek;
position = "{596, 10}";
},
{
name = top;
position = "{331, 676}";
},
{
name = topright;
position = "{642, 676}";
}
);
layerId = "0B0D9703-EF89-4C57-A339-A59A1335C1A4";
paths = (
{
closed = 1;
nodes = (
"468 -10 OFFCURVE",
"572 91 OFFCURVE",
"572 227 CURVE SMOOTH",
"572 676 LINE",
"540 676 LINE",
"540 233 LINE SMOOTH",
"540 104 OFFCURVE",
"450 21 OFFCURVE",
"331 21 CURVE SMOOTH",
"212 21 OFFCURVE",
"122 104 OFFCURVE",
"122 234 CURVE SMOOTH",
"122 676 LINE",
"90 676 LINE",
"90 228 LINE SMOOTH",
"90 92 OFFCURVE",
"193 -10 OFFCURVE",
"331 -10 CURVE SMOOTH"
);
}
);
width = 662;
}
);
leftKerningGroup = U;
rightKerningGroup = U;
unicode = 0055;
},
{
glyphname = V;
lastChange = "2021-07-28 20:36:09 +0000";
layers = (
{
background = {
paths = (
{
closed = 1;
nodes = (
"334 -9 LINE",
"354 -9 LINE",
"666 700 LINE",
"544 700 LINE",
"319 177 LINE",
"374 177 LINE",
"150 700 LINE",
"24 700 LINE"
);
}
);
};
layerId = m01;
paths = (
{
closed = 1;
nodes = (
"387 0 LINE",
"672 700 LINE",
"549 700 LINE",
"326 133 LINE",
"370 133 LINE",
"149 700 LINE",
"24 700 LINE",
"307 0 LINE"
);
}
);
width = 696;
},
{
guideLines = (
{
angle = 20.1316;
position = "{97, 641}";
showMeasurement = 1;
}
);
layerId = "9F43D23A-D415-475F-B4C7-798B571F7CAB";
paths = (
{
closed = 1;
nodes = (
"458 0 LINE",
"723 712 LINE",
"514 712 LINE",
"318 137 LINE",
"412 137 LINE",
"219 712 LINE",
"7 712 LINE",
"268 0 LINE"
);
}
);
width = 730;
},
{
layerId = "0B0D9703-EF89-4C57-A339-A59A1335C1A4";
paths = (
{
closed = 1;
nodes = (
"345 0 LINE",
"612 676 LINE",
"578 676 LINE",
"323 29 LINE",
"338 29 LINE",
"85 676 LINE",
"50 676 LINE",
"315 0 LINE"
);
}
);
width = 662;
}
);
unicode = 0056;
userData = {
KernOnName = V;
};
},
{
glyphname = W;
lastChange = "2021-07-28 20:36:22 +0000";
layers = (
{
background = {
components = (
{
alignment = -1;
name = M;
transform = "{1, 0, 0, 1, 70, 0}";
}
);
};
layerId = m01;
paths = (
{
closed = 1;
nodes = (
"336 0 LINE",
"506 538 LINE",
"476 538 LINE",
"646 0 LINE",
"726 0 LINE",
"956 700 LINE",
"843 700 LINE",
"670 161 LINE",
"700 161 LINE",
"531 700 LINE",
"451 700 LINE",
"282 161 LINE",
"312 161 LINE",
"139 700 LINE",
"26 700 LINE",
"256 0 LINE"
);
}
);
width = 982;
},
{
layerId = "9F43D23A-D415-475F-B4C7-798B571F7CAB";
paths = (
{
closed = 1;
nodes = (
"398 0 LINE",
"554 547 LINE",
"468 547 LINE",
"624 0 LINE",
"790 0 LINE",
"1014 712 LINE",
"817 712 LINE",
"659 164 LINE",
"750 164 LINE",
"594 712 LINE",
"429 712 LINE",
"273 164 LINE",
"365 164 LINE",
"207 712 LINE",
"8 712 LINE",
"232 0 LINE"
);
}
);
width = 1022;
},
{
background = {
components = (
{
name = M;
transform = "{1, 0, 0, 1, 19, 0}";
}
);
};
layerId = "0B0D9703-EF89-4C57-A339-A59A1335C1A4";
paths = (
{
closed = 1;
nodes = (
"294 0 LINE",
"494 644 LINE",
"481 644 LINE",
"682 0 LINE",
"710 0 LINE",
"925 676 LINE",
"891 676 LINE",
"689 30 LINE",
"705 30 LINE",
"503 676 LINE",
"472 676 LINE",
"271 30 LINE",
"286 30 LINE",
"85 676 LINE",
"51 676 LINE",
"266 0 LINE"
);
}
);
width = 976;
}
);
unicode = 0057;
},
{
glyphname = X;
lastChange = "2021-07-28 18:29:46 +0000";
layers = (
{
background = {
paths = (
{
closed = 1;
nodes = (
"674 0 LINE",
"400 406 LINE",
"379 406 LINE",
"172 700 LINE",
"36 700 LINE",
"313 312 LINE",
"334 312 LINE",
"540 0 LINE"
);
},
{
closed = 1;
nodes = (
"153 0 LINE",
"369 307 LINE",
"290 374 LINE",
"24 0 LINE"
);
},
{
closed = 1;
nodes = (
"662 700 LINE",
"533 700 LINE",
"329 402 LINE",
"408 335 LINE"
);
}
);
};
layerId = m01;
paths = (
{
closed = 1;
nodes = (
"674 0 LINE",
"400 406 LINE",
"379 406 LINE",
"172 700 LINE",
"36 700 LINE",
"313 312 LINE",
"334 312 LINE",
"540 0 LINE"
);
},
{
closed = 1;
nodes = (
"153 0 LINE",
"369 307 LINE",
"290 374 LINE",
"24 0 LINE"
);
},
{
closed = 1;
nodes = (
"662 700 LINE",
"533 700 LINE",
"329 402 LINE",
"408 335 LINE"
);
}
);
width = 698;
},
{
layerId = "9F43D23A-D415-475F-B4C7-798B571F7CAB";
paths = (
{
closed = 1;
nodes = (
"726 0 LINE",
"456 413 LINE",
"439 413 LINE",
"257 712 LINE",
"19 712 LINE",
"286 317 LINE",
"303 317 LINE",
"491 0 LINE"
);
},
{
closed = 1;
nodes = (
"235 0 LINE",
"424 313 LINE",
"262 381 LINE",
"6 0 LINE"
);
},
{
closed = 1;
nodes = (
"713 712 LINE",
"484 712 LINE",
"297 399 LINE",
"459 331 LINE"
);
}
);
width = 732;
},
{
layerId = "0B0D9703-EF89-4C57-A339-A59A1335C1A4";
paths = (
{
closed = 1;
nodes = (
"622 0 LINE",
"346 363 LINE",
"341 363 LINE",
"99 676 LINE",
"60 676 LINE",
"326 335 LINE",
"331 335 LINE",
"582 0 LINE"
);
},
{
closed = 1;
nodes = (
"86 0 LINE",
"343 331 LINE",
"325 352 LINE",
"49 0 LINE"
);
},
{
closed = 1;
nodes = (
"612 676 LINE",
"575 676 LINE",
"333 357 LINE",
"349 334 LINE"
);
}
);
width = 671;
}
);
unicode = 0058;
},
{
glyphname = Y;
lastChange = "2021-09-13 16:58:42 +0000";
layers = (
{
anchors = (
{
name = bottom;
position = "{336, 0}";
},
{
name = top;
position = "{336, 700}";
},
{
name = topleft;
position = "{20, 700}";
}
);
layerId = m01;
paths = (
{
closed = 1;
nodes = (
"375 280 LINE",
"650 700 LINE",
"519 700 LINE",
"306 365 LINE",
"368 365 LINE",
"155 700 LINE",
"22 700 LINE",
"295 280 LINE"
);
},
{
closed = 1;
nodes = (
"394 0 LINE",
"394 352 LINE",
"279 352 LINE",
"279 0 LINE"
);
}
);
width = 672;
},
{
anchors = (
{
name = bottom;
position = "{351, 0}";
},
{
name = top;
position = "{351, 712}";
},
{
name = topleft;
position = "{20, 712}";
}
);
layerId = "9F43D23A-D415-475F-B4C7-798B571F7CAB";
paths = (
{
closed = 1;
nodes = (
"424 245 LINE",
"697 712 LINE",
"472 712 LINE",
"267 331 LINE",
"439 331 LINE",
"234 712 LINE",
"4 712 LINE",
"275 245 LINE"
);
},
{
closed = 1;
nodes = (
"452 0 LINE",
"452 318 LINE",
"252 318 LINE",
"252 0 LINE"
);
}
);
width = 701;
},
{
anchors = (
{
name = bottom;
position = "{323, 0}";
},
{
name = top;
position = "{323, 676}";
},
{
name = topleft;
position = "{20, 676}";
}
);
layerId = "0B0D9703-EF89-4C57-A339-A59A1335C1A4";
paths = (
{
closed = 1;
nodes = (
"323 288 LINE",
"598 676 LINE",
"562 676 LINE",
"318 333 LINE",
"328 333 LINE",
"87 676 LINE",
"48 676 LINE",
"321 288 LINE"
);
},
{
closed = 1;
nodes = (
"339 0 LINE",
"339 321 LINE",
"307 321 LINE",
"307 0 LINE"
);
}
);
width = 645;
}
);
leftKerningGroup = Y;
rightKerningGroup = Y;
unicode = 0059;
userData = {
KernOnName = Y;
};
},
{
glyphname = Z;
lastChange = "2021-07-28 18:30:58 +0000";
layers = (
{
background = {
components = (
{
name = H;
transform = "{1, 0, 0, 1, -64, 0}";
}
);
};
layerId = m01;
paths = (
{
closed = 1;
nodes = (
"169 80 LINE",
"551 620 LINE",
"416 620 LINE",
"34 80 LINE"
);
},
{
closed = 1;
nodes = (
"543 0 LINE",
"543 105 LINE",
"133 105 LINE",
"34 80 LINE",
"34 0 LINE"
);
},
{
closed = 1;
nodes = (
"451 595 LINE",
"551 620 LINE",
"551 700 LINE",
"57 700 LINE",
"57 595 LINE"
);
}
);
width = 589;
},
{
layerId = "9F43D23A-D415-475F-B4C7-798B571F7CAB";
paths = (
{
closed = 1;
nodes = (
"269 139 LINE",
"598 573 LINE",
"354 573 LINE",
"26 139 LINE"
);
},
{
closed = 1;
nodes = (
"589 0 LINE",
"589 165 LINE",
"135 165 LINE",
"26 139 LINE",
"26 0 LINE"
);
},
{
closed = 1;
nodes = (
"487 547 LINE",
"598 573 LINE",
"598 712 LINE",
"42 712 LINE",
"42 547 LINE"
);
}
);
width = 626;
},
{
layerId = "0B0D9703-EF89-4C57-A339-A59A1335C1A4";
paths = (
{
closed = 1;
nodes = (
"90 18 LINE",
"512 658 LINE",
"474 658 LINE",
"52 18 LINE"
);
},
{
closed = 1;
nodes = (
"505 0 LINE",
"505 29 LINE",
"78 29 LINE",
"52 18 LINE",
"52 0 LINE"
);
},
{
closed = 1;
nodes = (
"485 647 LINE",
"512 658 LINE",
"512 676 LINE",
"67 676 LINE",
"67 647 LINE"
);
}
);
width = 565;
}
);
unicode = 005A;
},
{
glyphname = T_T;
lastChange = "2021-07-22 20:34:11 +0000";
layers = (
{
layerId = m01;
paths = (
{
closed = 1;
nodes = (
"367 0 LINE",
"367 680 LINE",
"252 680 LINE",
"252 0 LINE"
);
},
{
closed = 1;
nodes = (
"595 595 LINE",
"595 700 LINE",
"24 700 LINE",
"24 595 LINE"
);
},
{
closed = 1;
nodes = (
"851 0 LINE",
"851 680 LINE",
"736 680 LINE",
"736 0 LINE"
);
},
{
closed = 1;
nodes = (
"1079 595 LINE",
"1079 700 LINE",
"508 700 LINE",
"508 595 LINE"
);
}
);
width = 1103;
},
{
layerId = "9F43D23A-D415-475F-B4C7-798B571F7CAB";
paths = (
{
closed = 1;
nodes = (
"429 0 LINE",
"429 712 LINE",
"229 712 LINE",
"229 0 LINE"
);
},
{
closed = 1;
nodes = (
"643 542 LINE",
"643 712 LINE",
"16 712 LINE",
"16 542 LINE"
);
},
{
closed = 1;
nodes = (
"938 0 LINE",
"938 712 LINE",
"738 712 LINE",
"738 0 LINE"
);
},
{
closed = 1;
nodes = (
"1152 542 LINE",
"1152 712 LINE",
"525 712 LINE",
"525 542 LINE"
);
}
);
width = 1168;
},
{
layerId = "0B0D9703-EF89-4C57-A339-A59A1335C1A4";
paths = (
{
closed = 1;
nodes = (
"338 0 LINE",
"338 657 LINE",
"306 657 LINE",
"306 0 LINE"
);
},
{
closed = 1;
nodes = (
"595 647 LINE",
"595 676 LINE",
"49 676 LINE",
"49 647 LINE"
);
},
{
closed = 1;
nodes = (
"800 0 LINE",
"800 657 LINE",
"768 657 LINE",
"768 0 LINE"
);
},
{
closed = 1;
nodes = (
"1057 647 LINE",
"1057 676 LINE",
"511 676 LINE",
"511 647 LINE"
);
}
);
width = 1106;
}
);
leftKerningGroup = T;
leftMetricsKey = T;
rightKerningGroup = T;
rightMetricsKey = T;
},
{
glyphname = T_h;
lastChange = "2021-07-27 19:50:58 +0000";
layers = (
{
layerId = m01;
paths = (
{
closed = 1;
nodes = (
"367 0 LINE",
"367 680 LINE",
"252 680 LINE",
"252 0 LINE"
);
},
{
closed = 1;
nodes = (
"643 595 LINE",
"643 700 LINE",
"24 700 LINE",
"24 595 LINE"
);
},
{
closed = 1;
nodes = (
"1042 0 LINE",
"1042 301 LINE SMOOTH",
"1042 412 OFFCURVE",
"963 490 OFFCURVE",
"856 490 CURVE SMOOTH",
"749 490 OFFCURVE",
"670 410 OFFCURVE",
"670 301 CURVE",
"713 277 LINE",
"713 341 OFFCURVE",
"759 387 OFFCURVE",
"823 387 CURVE SMOOTH",
"887 387 OFFCURVE",
"932 341 OFFCURVE",
"932 277 CURVE SMOOTH",
"932 0 LINE"
);
},
{
closed = 1;
nodes = (
"713 0 LINE",
"713 700 LINE",
"603 700 LINE",
"603 0 LINE"
);
}
);
width = 1093;
},
{
layerId = "9F43D23A-D415-475F-B4C7-798B571F7CAB";
paths = (
{
closed = 1;
nodes = (
"429 0 LINE",
"429 712 LINE",
"229 712 LINE",
"229 0 LINE"
);
},
{
closed = 1;
nodes = (
"613 542 LINE",
"613 712 LINE",
"16 712 LINE",
"16 542 LINE"
);
},
{
closed = 1;
nodes = (
"1115 0 LINE",
"1115 321 LINE SMOOTH",
"1115 426 OFFCURVE",
"1040 502 OFFCURVE",
"920 502 CURVE SMOOTH",
"804 502 OFFCURVE",
"726 430 OFFCURVE",
"726 310 CURVE",
"802 276 LINE",
"802 314 OFFCURVE",
"827 336 OFFCURVE",
"861 336 CURVE SMOOTH",
"894 336 OFFCURVE",
"919 314 OFFCURVE",
"919 276 CURVE SMOOTH",
"919 0 LINE"
);
},
{
closed = 1;
nodes = (
"802 0 LINE",
"802 712 LINE",
"606 712 LINE",
"606 0 LINE"
);
}
);
width = 1152;
},
{
layerId = "0B0D9703-EF89-4C57-A339-A59A1335C1A4";
paths = (
{
closed = 1;
nodes = (
"338 0 LINE",
"338 657 LINE",
"306 657 LINE",
"306 0 LINE"
);
},
{
closed = 1;
nodes = (
"645 647 LINE",
"645 676 LINE",
"49 676 LINE",
"49 647 LINE"
);
},
{
closed = 1;
nodes = (
"1026 0 LINE",
"1026 275 LINE SMOOTH",
"1026 389 OFFCURVE",
"952 470 OFFCURVE",
"842 470 CURVE SMOOTH",
"732 470 OFFCURVE",
"649 392 OFFCURVE",
"649 288 CURVE",
"670 276 LINE",
"670 373 OFFCURVE",
"739 442 OFFCURVE",
"837 442 CURVE SMOOTH",
"933 442 OFFCURVE",
"996 375 OFFCURVE",
"996 275 CURVE SMOOTH",
"996 0 LINE"
);
},
{
closed = 1;
nodes = (
"670 0 LINE",
"670 676 LINE",
"639 676 LINE",
"639 0 LINE"
);
}
);
width = 1096;
}
);
leftKerningGroup = T;
leftMetricsKey = T;
rightKerningGroup = n;
rightMetricsKey = h;
},
{
glyphname = T_l;
lastChange = "2021-07-22 20:34:11 +0000";
layers = (
{
background = {
components = (
{
name = T_h;
transform = "{1, 0, 0, 1, -5, 0}";
}
);
};
layerId = m01;
paths = (
{
closed = 1;
nodes = (
"367 0 LINE",
"367 680 LINE",
"252 680 LINE",
"252 0 LINE"
);
},
{
closed = 1;
nodes = (
"655 595 LINE",
"655 700 LINE",
"24 700 LINE",
"24 595 LINE"
);
},
{
closed = 1;
nodes = (
"713 0 LINE",
"713 700 LINE",
"603 700 LINE",
"603 0 LINE"
);
}
);
width = 774;
},
{
layerId = "9F43D23A-D415-475F-B4C7-798B571F7CAB";
paths = (
{
closed = 1;
nodes = (
"429 0 LINE",
"429 712 LINE",
"229 712 LINE",
"229 0 LINE"
);
},
{
closed = 1;
nodes = (
"643 542 LINE",
"643 712 LINE",
"16 712 LINE",
"16 542 LINE"
);
},
{
closed = 1;
nodes = (
"802 0 LINE",
"802 712 LINE",
"606 712 LINE",
"606 0 LINE"
);
}
);
width = 849;
},
{
layerId = "0B0D9703-EF89-4C57-A339-A59A1335C1A4";
paths = (
{
closed = 1;
nodes = (
"338 0 LINE",
"338 657 LINE",
"306 657 LINE",
"306 0 LINE"
);
},
{
closed = 1;
nodes = (
"655 647 LINE",
"655 676 LINE",
"49 676 LINE",
"49 647 LINE"
);
},
{
closed = 1;
nodes = (
"670 0 LINE",
"670 676 LINE",
"639 676 LINE",
"639 0 LINE"
);
}
);
width = 750;
}
);
leftKerningGroup = T;
leftMetricsKey = T;
rightKerningGroup = l;
rightMetricsKey = l;
},
{
glyphname = a;
lastChange = "2021-09-28 02:46:11 +0000";
layers = (
{
anchors = (
{
name = bottom;
position = "{280, 0}";
},
{
name = ogonek;
position = "{522, 10}";
},
{
name = top;
position = "{280, 480}";
}
);
background = {
paths = (
{
closed = 1;
nodes = (
"379 480 LINE",
"379 0 LINE",
"489 0 LINE",
"489 480 LINE"
);
},
{
closed = 0;
nodes = (
"50 177 LINE",
"50 69 OFFCURVE",
"129 -10 OFFCURVE",
"235 -10 CURVE SMOOTH",
"344 -10 OFFCURVE",
"423 67 OFFCURVE",
"423 162 CURVE",
"386 166 LINE",
"368 122 OFFCURVE",
"320 93 OFFCURVE",
"266 93 CURVE SMOOTH",
"200 93 OFFCURVE",
"160 135 OFFCURVE",
"160 206 CURVE"
);
},
{
closed = 0;
nodes = (
"160 274 LINE",
"160 345 OFFCURVE",
"200 387 OFFCURVE",
"266 387 CURVE SMOOTH",
"320 387 OFFCURVE",
"368 358 OFFCURVE",
"386 314 CURVE",
"423 318 LINE",
"423 413 OFFCURVE",
"344 490 OFFCURVE",
"235 490 CURVE SMOOTH",
"129 490 OFFCURVE",
"50 411 OFFCURVE",
"50 303 CURVE"
);
}
);
};
layerId = m01;
paths = (
{
closed = 1;
nodes = (
"372 -10 OFFCURVE",
"452 66 OFFCURVE",
"452 171 CURVE",
"452 309 LINE",
"452 413 OFFCURVE",
"371 490 OFFCURVE",
"262 490 CURVE SMOOTH",
"132 490 OFFCURVE",
"31 380 OFFCURVE",
"31 239 CURVE SMOOTH",
"31 99 OFFCURVE",
"132 -10 OFFCURVE",
"262 -10 CURVE SMOOTH"
);
},
{
closed = 1;
nodes = (
"200 94 OFFCURVE",
"144 154 OFFCURVE",
"144 240 CURVE SMOOTH",
"144 326 OFFCURVE",
"200 386 OFFCURVE",
"280 386 CURVE SMOOTH",
"361 386 OFFCURVE",
"416 326 OFFCURVE",
"416 240 CURVE SMOOTH",
"416 154 OFFCURVE",
"361 94 OFFCURVE",
"280 94 CURVE SMOOTH"
);
},
{
closed = 1;
nodes = (
"519 0 LINE",
"519 480 LINE",
"409 480 LINE",
"409 362 LINE",
"428 246 LINE",
"409 129 LINE",
"409 0 LINE"
);
}
);
width = 580;
},
{
anchors = (
{
name = bottom;
position = "{284, 0}";
},
{
name = ogonek;
position = "{529, 10}";
},
{
name = top;
position = "{284, 460}";
}
);
background = {
paths = (
{
closed = 1;
nodes = (
"413 -10 OFFCURVE",
"506 68 OFFCURVE",
"506 147 CURVE",
"506 323 LINE",
"506 401 OFFCURVE",
"412 480 OFFCURVE",
"292 480 CURVE SMOOTH",
"158 480 OFFCURVE",
"54 372 OFFCURVE",
"54 234 CURVE SMOOTH",
"54 97 OFFCURVE",
"158 -10 OFFCURVE",
"292 -10 CURVE SMOOTH"
);
},
{
closed = 1;
nodes = (
"215 92 OFFCURVE",
"161 151 OFFCURVE",
"161 235 CURVE SMOOTH",
"161 319 OFFCURVE",
"215 378 OFFCURVE",
"293 378 CURVE SMOOTH",
"369 378 OFFCURVE",
"490 319 OFFCURVE",
"490 235 CURVE SMOOTH",
"490 151 OFFCURVE",
"369 92 OFFCURVE",
"293 92 CURVE SMOOTH"
);
},
{
closed = 1;
nodes = (
"520 0 LINE",
"520 470 LINE",
"489 470 LINE",
"489 355 LINE",
"502 241 LINE",
"489 126 LINE",
"489 0 LINE"
);
}
);
};
layerId = "0B0D9703-EF89-4C57-A339-A59A1335C1A4";
paths = (
{
closed = 1;
nodes = (
"391 -10 OFFCURVE",
"467 51 OFFCURVE",
"491 152 CURVE",
"491 309 LINE",
"469 409 OFFCURVE",
"390 470 OFFCURVE",
"285 470 CURVE SMOOTH",
"151 470 OFFCURVE",
"50 365 OFFCURVE",
"50 229 CURVE SMOOTH",
"50 93 OFFCURVE",
"151 -10 OFFCURVE",
"287 -10 CURVE SMOOTH"
);
},
{
closed = 1;
nodes = (
"170 19 OFFCURVE",
"82 108 OFFCURVE",
"82 230 CURVE SMOOTH",
"82 352 OFFCURVE",
"169 441 OFFCURVE",
"289 441 CURVE SMOOTH",
"403 441 OFFCURVE",
"479 357 OFFCURVE",
"479 229 CURVE SMOOTH",
"479 102 OFFCURVE",
"405 19 OFFCURVE",
"291 19 CURVE SMOOTH"
);
},
{
closed = 1;
nodes = (
"509 0 LINE",
"509 460 LINE",
"478 460 LINE",
"478 348 LINE",
"487 237 LINE",
"478 123 LINE",
"478 0 LINE"
);
}
);
width = 589;
},
{
anchors = (
{
name = bottom;
position = "{295, 0}";
},
{
name = ogonek;
position = "{549, 10}";
},
{
name = top;
position = "{295, 492}";
}
);
background = {
paths = (
{
closed = 1;
nodes = (
"361 -10 OFFCURVE",
"399 77 OFFCURVE",
"410 185 CURVE",
"410 307 LINE",
"399 417 OFFCURVE",
"358 502 OFFCURVE",
"229 502 CURVE SMOOTH",
"98 502 OFFCURVE",
"17 390 OFFCURVE",
"17 246 CURVE SMOOTH",
"17 102 OFFCURVE",
"97 -10 OFFCURVE",
"229 -10 CURVE SMOOTH"
);
},
{
closed = 1;
nodes = (
"243 169 OFFCURVE",
"215 204 OFFCURVE",
"215 253 CURVE SMOOTH",
"215 303 OFFCURVE",
"244 339 OFFCURVE",
"289 339 CURVE SMOOTH",
"337 339 OFFCURVE",
"364 304 OFFCURVE",
"364 254 CURVE SMOOTH",
"364 203 OFFCURVE",
"337 169 OFFCURVE",
"289 169 CURVE SMOOTH"
);
},
{
closed = 1;
nodes = (
"549 0 LINE",
"549 492 LINE",
"358 492 LINE",
"358 371 LINE",
"385 252 LINE",
"358 132 LINE",
"358 0 LINE"
);
}
);
};
layerId = "9F43D23A-D415-475F-B4C7-798B571F7CAB";
paths = (
{
closed = 1;
nodes = (
"338 -10 OFFCURVE",
"409 37 OFFCURVE",
"424 105 CURVE",
"424 387 LINE",
"409 455 OFFCURVE",
"338 502 OFFCURVE",
"252 502 CURVE SMOOTH",
"114 502 OFFCURVE",
"17 396 OFFCURVE",
"17 246 CURVE SMOOTH",
"17 96 OFFCURVE",
"114 -10 OFFCURVE",
"252 -10 CURVE SMOOTH"
);
},
{
closed = 1;
nodes = (
"249 162 OFFCURVE",
"214 197 OFFCURVE",
"214 246 CURVE SMOOTH",
"214 294 OFFCURVE",
"249 330 OFFCURVE",
"297 330 CURVE SMOOTH",
"345 330 OFFCURVE",
"378 295 OFFCURVE",
"378 246 CURVE SMOOTH",
"378 196 OFFCURVE",
"345 162 OFFCURVE",
"296 162 CURVE SMOOTH"
);
},
{
closed = 1;
nodes = (
"563 0 LINE",
"563 492 LINE",
"372 492 LINE",
"372 371 LINE",
"399 252 LINE",
"372 132 LINE",
"372 0 LINE"
);
}
);
width = 610;
}
);
leftKerningGroup = o;
unicode = 0061;
userData = {
KernOnName = a;
};
},
{
glyphname = ae;
lastChange = "2022-08-27 01:13:01 +0000";
layers = (
{
layerId = "0B0D9703-EF89-4C57-A339-A59A1335C1A4";
paths = (
{
closed = 1;
nodes = (
"391 -10 OFFCURVE",
"467 51 OFFCURVE",
"491 152 CURVE",
"491 309 LINE",
"469 409 OFFCURVE",
"390 470 OFFCURVE",
"285 470 CURVE SMOOTH",
"151 470 OFFCURVE",
"50 365 OFFCURVE",
"50 229 CURVE SMOOTH",
"50 93 OFFCURVE",
"151 -10 OFFCURVE",
"287 -10 CURVE SMOOTH"
);
},
{
closed = 1;
nodes = (
"170 19 OFFCURVE",
"82 108 OFFCURVE",
"82 230 CURVE SMOOTH",
"82 352 OFFCURVE",
"169 441 OFFCURVE",
"289 441 CURVE SMOOTH",
"403 441 OFFCURVE",
"479 357 OFFCURVE",
"479 229 CURVE SMOOTH",
"479 102 OFFCURVE",
"405 19 OFFCURVE",
"291 19 CURVE SMOOTH"
);
},
{
closed = 1;
nodes = (
"508 0 LINE",
"508 460 LINE",
"478 460 LINE",
"478 348 LINE",
"487 237 LINE",
"478 123 LINE",
"478 0 LINE"
);
},
{
closed = 1;
nodes = (
"791 -10 OFFCURVE",
"858 21 OFFCURVE",
"899 70 CURVE",
"878 91 LINE",
"840 43 OFFCURVE",
"785 19 OFFCURVE",
"721 19 CURVE SMOOTH",
"593 19 OFFCURVE",
"508 105 OFFCURVE",
"508 233 CURVE SMOOTH",
"508 356 OFFCURVE",
"590 441 OFFCURVE",
"710 441 CURVE SMOOTH",
"824 441 OFFCURVE",
"897 358 OFFCURVE",
"890 241 CURVE",
"899 248 LINE",
"498 248 LINE",
"498 219 LINE",
"919 219 LINE",
"921 236 OFFCURVE",
"922 248 OFFCURVE",
"922 253 CURVE SMOOTH",
"922 381 OFFCURVE",
"834 470 OFFCURVE",
"711 470 CURVE SMOOTH",
"576 470 OFFCURVE",
"485 366 OFFCURVE",
"485 231 CURVE SMOOTH",
"485 93 OFFCURVE",
"578 -10 OFFCURVE",
"717 -10 CURVE SMOOTH"
);
}
);
width = 968;
},
{
layerId = m01;
paths = (
{
closed = 1;
nodes = (
"372 -10 OFFCURVE",
"452 66 OFFCURVE",
"452 171 CURVE",
"452 309 LINE",
"452 413 OFFCURVE",
"371 490 OFFCURVE",
"262 490 CURVE SMOOTH",
"132 490 OFFCURVE",
"31 380 OFFCURVE",
"31 239 CURVE SMOOTH",
"31 99 OFFCURVE",
"132 -10 OFFCURVE",
"262 -10 CURVE SMOOTH"
);
},
{
closed = 1;
nodes = (
"200 94 OFFCURVE",
"144 154 OFFCURVE",
"144 240 CURVE SMOOTH",
"144 326 OFFCURVE",
"200 386 OFFCURVE",
"280 386 CURVE SMOOTH",
"361 386 OFFCURVE",
"416 326 OFFCURVE",
"416 240 CURVE SMOOTH",
"416 154 OFFCURVE",
"361 94 OFFCURVE",
"280 94 CURVE SMOOTH"
);
},
{
closed = 1;
nodes = (
"519 0 LINE",
"519 480 LINE",
"409 480 LINE",
"409 362 LINE",
"428 246 LINE",
"409 129 LINE",
"409 0 LINE"
);
},
{
closed = 1;
nodes = (
"745 -10 OFFCURVE",
"814 18 OFFCURVE",
"861 73 CURVE",
"791 144 LINE",
"762 110 OFFCURVE",
"718 93 OFFCURVE",
"669 93 CURVE SMOOTH",
"582 93 OFFCURVE",
"524 152 OFFCURVE",
"524 243 CURVE SMOOTH",
"524 332 OFFCURVE",
"578 389 OFFCURVE",
"662 389 CURVE SMOOTH",
"741 389 OFFCURVE",
"785 340 OFFCURVE",
"789 253 CURVE",
"830 289 LINE",
"493 289 LINE",
"493 199 LINE",
"887 199 LINE",
"891 219 OFFCURVE",
"893 235 OFFCURVE",
"893 251 CURVE SMOOTH",
"893 389 OFFCURVE",
"797 490 OFFCURVE",
"669 490 CURVE SMOOTH",
"532 490 OFFCURVE",
"456 381 OFFCURVE",
"456 240 CURVE SMOOTH",
"456 97 OFFCURVE",
"533 -10 OFFCURVE",
"680 -10 CURVE SMOOTH"
);
}
);
width = 920;
},
{
layerId = "9F43D23A-D415-475F-B4C7-798B571F7CAB";
paths = (
{
closed = 1;
nodes = (
"338 -10 OFFCURVE",
"409 37 OFFCURVE",
"424 105 CURVE",
"424 387 LINE",
"409 455 OFFCURVE",
"338 502 OFFCURVE",
"252 502 CURVE SMOOTH",
"114 502 OFFCURVE",
"17 396 OFFCURVE",
"17 246 CURVE SMOOTH",
"17 96 OFFCURVE",
"114 -10 OFFCURVE",
"252 -10 CURVE SMOOTH"
);
},
{
closed = 1;
nodes = (
"249 162 OFFCURVE",
"214 197 OFFCURVE",
"214 246 CURVE SMOOTH",
"214 294 OFFCURVE",
"249 330 OFFCURVE",
"297 330 CURVE SMOOTH",
"345 330 OFFCURVE",
"378 295 OFFCURVE",
"378 246 CURVE SMOOTH",
"378 196 OFFCURVE",
"345 162 OFFCURVE",
"296 162 CURVE SMOOTH"
);
},
{
closed = 1;
nodes = (
"563 0 LINE",
"563 492 LINE",
"372 492 LINE",
"372 371 LINE",
"399 252 LINE",
"372 132 LINE",
"372 0 LINE"
);
},
{
closed = 1;
nodes = (
"790 -12 OFFCURVE",
"849 16 OFFCURVE",
"899 72 CURVE",
"801 169 LINE",
"772 136 OFFCURVE",
"737 121 OFFCURVE",
"691 121 CURVE SMOOTH",
"619 121 OFFCURVE",
"582 163 OFFCURVE",
"582 245 CURVE SMOOTH",
"582 325 OFFCURVE",
"618 371 OFFCURVE",
"679 371 CURVE SMOOTH",
"737 371 OFFCURVE",
"765 333 OFFCURVE",
"765 254 CURVE",
"856 307 LINE",
"485 304 LINE",
"485 184 LINE",
"929 187 LINE",
"935 216 OFFCURVE",
"937 237 OFFCURVE",
"937 257 CURVE SMOOTH",
"937 401 OFFCURVE",
"838 504 OFFCURVE",
"687 504 CURVE SMOOTH",
"568 504 OFFCURVE",
"452 395 OFFCURVE",
"452 246 CURVE SMOOTH",
"452 93 OFFCURVE",
"559 -12 OFFCURVE",
"701 -12 CURVE SMOOTH"
);
}
);
width = 949;
}
);
leftKerningGroup = o;
rightKerningGroup = e;
rightMetricsKey = e;
unicode = 00E6;
},
{
glyphname = b;
lastChange = "2021-09-16 15:08:19 +0000";
layers = (
{
background = {
paths = (
{
closed = 1;
nodes = (
"171 0 LINE",
"171 720 LINE",
"61 720 LINE",
"61 0 LINE"
);
},
{
closed = 1;
nodes = (
"371 386 OFFCURVE",
"422 329 OFFCURVE",
"422 240 CURVE SMOOTH",
"422 151 OFFCURVE",
"371 94 OFFCURVE",
"289 94 CURVE SMOOTH",
"231 94 OFFCURVE",
"182 122 OFFCURVE",
"164 166 CURVE",
"127 162 LINE",
"127 62 OFFCURVE",
"207 -10 OFFCURVE",
"312 -10 CURVE SMOOTH",
"441 -10 OFFCURVE",
"535 98 OFFCURVE",
"535 239 CURVE SMOOTH",
"535 381 OFFCURVE",
"441 490 OFFCURVE",
"312 490 CURVE SMOOTH",
"207 490 OFFCURVE",
"127 418 OFFCURVE",
"127 318 CURVE",
"164 314 LINE",
"182 358 OFFCURVE",
"231 386 OFFCURVE",
"290 386 CURVE SMOOTH"
);
}
);
};
layerId = m01;
paths = (
{
closed = 1;
nodes = (
"448 -10 OFFCURVE",
"549 99 OFFCURVE",
"549 239 CURVE SMOOTH",
"549 380 OFFCURVE",
"448 490 OFFCURVE",
"318 490 CURVE SMOOTH",
"209 490 OFFCURVE",
"128 413 OFFCURVE",
"128 309 CURVE",
"128 171 LINE",
"128 66 OFFCURVE",
"208 -10 OFFCURVE",
"318 -10 CURVE SMOOTH"
);
},
{
closed = 1;
nodes = (
"219 94 OFFCURVE",
"164 154 OFFCURVE",
"164 240 CURVE SMOOTH",
"164 326 OFFCURVE",
"219 386 OFFCURVE",
"300 386 CURVE SMOOTH",
"380 386 OFFCURVE",
"436 326 OFFCURVE",
"436 240 CURVE SMOOTH",
"436 154 OFFCURVE",
"380 94 OFFCURVE",
"300 94 CURVE SMOOTH"
);
},
{
closed = 1;
nodes = (
"171 0 LINE",
"171 129 LINE",
"152 246 LINE",
"171 362 LINE",
"171 720 LINE",
"61 720 LINE",
"61 0 LINE"
);
}
);
width = 580;
},
{
background = {
paths = (
{
closed = 1;
nodes = (
"499 -10 OFFCURVE",
"579 102 OFFCURVE",
"579 246 CURVE SMOOTH",
"579 390 OFFCURVE",
"498 502 OFFCURVE",
"367 502 CURVE SMOOTH",
"238 502 OFFCURVE",
"197 417 OFFCURVE",
"186 307 CURVE",
"186 185 LINE",
"197 77 OFFCURVE",
"235 -10 OFFCURVE",
"367 -10 CURVE SMOOTH"
);
},
{
closed = 1;
nodes = (
"259 169 OFFCURVE",
"232 203 OFFCURVE",
"232 254 CURVE SMOOTH",
"232 304 OFFCURVE",
"259 339 OFFCURVE",
"307 339 CURVE SMOOTH",
"352 339 OFFCURVE",
"381 303 OFFCURVE",
"381 253 CURVE SMOOTH",
"381 204 OFFCURVE",
"353 169 OFFCURVE",
"307 169 CURVE SMOOTH"
);
},
{
closed = 1;
nodes = (
"238 0 LINE",
"238 132 LINE",
"211 252 LINE",
"243 371 LINE",
"243 732 LINE",
"47 732 LINE",
"47 0 LINE"
);
}
);
};
layerId = "9F43D23A-D415-475F-B4C7-798B571F7CAB";
paths = (
{
closed = 1;
nodes = (
"496 -10 OFFCURVE",
"593 96 OFFCURVE",
"593 246 CURVE SMOOTH",
"593 396 OFFCURVE",
"496 502 OFFCURVE",
"350 502 CURVE SMOOTH",
"262 502 OFFCURVE",
"181 455 OFFCURVE",
"166 387 CURVE",
"166 115 LINE",
"181 47 OFFCURVE",
"262 -10 OFFCURVE",
"350 -10 CURVE SMOOTH"
);
},
{
closed = 1;
nodes = (
"265 162 OFFCURVE",
"232 196 OFFCURVE",
"232 246 CURVE SMOOTH",
"232 295 OFFCURVE",
"265 330 OFFCURVE",
"313 330 CURVE SMOOTH",
"361 330 OFFCURVE",
"396 294 OFFCURVE",
"396 246 CURVE SMOOTH",
"396 197 OFFCURVE",
"361 162 OFFCURVE",
"314 162 CURVE SMOOTH"
);
},
{
closed = 1;
nodes = (
"238 0 LINE",
"238 132 LINE",
"211 252 LINE",
"243 371 LINE",
"243 732 LINE",
"47 732 LINE",
"47 0 LINE"
);
}
);
width = 610;
},
{
layerId = "0B0D9703-EF89-4C57-A339-A59A1335C1A4";
paths = (
{
closed = 1;
nodes = (
"441 -10 OFFCURVE",
"538 93 OFFCURVE",
"538 229 CURVE SMOOTH",
"538 367 OFFCURVE",
"440 470 OFFCURVE",
"309 470 CURVE SMOOTH",
"209 470 OFFCURVE",
"120 410 OFFCURVE",
"97 309 CURVE",
"97 152 LINE",
"121 53 OFFCURVE",
"205 -10 OFFCURVE",
"309 -10 CURVE SMOOTH"
);
},
{
closed = 1;
nodes = (
"189 19 OFFCURVE",
"110 106 OFFCURVE",
"110 229 CURVE SMOOTH",
"110 354 OFFCURVE",
"190 441 OFFCURVE",
"306 441 CURVE SMOOTH",
"422 441 OFFCURVE",
"506 353 OFFCURVE",
"506 230 CURVE SMOOTH",
"506 107 OFFCURVE",
"422 19 OFFCURVE",
"303 19 CURVE SMOOTH"
);
},
{
closed = 1;
nodes = (
"111 0 LINE",
"111 123 LINE",
"101 237 LINE",
"111 348 LINE",
"111 696 LINE",
"80 696 LINE",
"80 0 LINE"
);
}
);
width = 589;
}
);
leftKerningGroup = h;
rightKerningGroup = o;
unicode = 0062;
userData = {
KernOnName = b;
};
},
{
glyphname = c;
lastChange = "2021-09-28 02:46:26 +0000";
layers = (
{
anchors = (
{
name = bottom;
position = "{269, 0}";
},
{
name = top;
position = "{279, 480}";
}
);
background = {
paths = (
{
closed = 0;
nodes = (
"143 240 LINE SMOOTH",
"143 321 OFFCURVE",
"197 384 OFFCURVE",
"281 384 CURVE SMOOTH",
"365 384 OFFCURVE",
"419 321 OFFCURVE",
"419 240 CURVE SMOOTH"
);
}
);
};
layerId = m01;
paths = (
{
closed = 1;
nodes = (
"356 -10 OFFCURVE",
"424 20 OFFCURVE",
"469 73 CURVE",
"397 146 LINE",
"369 113 OFFCURVE",
"329 96 OFFCURVE",
"282 96 CURVE SMOOTH",
"200 96 OFFCURVE",
"143 155 OFFCURVE",
"143 240 CURVE SMOOTH",
"143 325 OFFCURVE",
"200 384 OFFCURVE",
"282 384 CURVE SMOOTH",
"329 384 OFFCURVE",
"369 367 OFFCURVE",
"397 334 CURVE",
"469 407 LINE",
"424 460 OFFCURVE",
"356 490 OFFCURVE",
"282 490 CURVE SMOOTH",
"139 490 OFFCURVE",
"30 381 OFFCURVE",
"30 240 CURVE SMOOTH",
"30 99 OFFCURVE",
"139 -10 OFFCURVE",
"282 -10 CURVE SMOOTH"
);
}
);
width = 487;
},
{
anchors = (
{
name = bottom;
position = "{281, 0}";
},
{
name = top;
position = "{291, 492}";
}
);
background = {
paths = (
{
closed = 1;
nodes = (
"373 -12 OFFCURVE",
"442 14 OFFCURVE",
"491 58 CURVE",
"362 190 LINE",
"348 171 OFFCURVE",
"326 160 OFFCURVE",
"297 160 CURVE SMOOTH",
"247 160 OFFCURVE",
"212 194 OFFCURVE",
"212 245 CURVE SMOOTH",
"212 297 OFFCURVE",
"247 332 OFFCURVE",
"297 332 CURVE SMOOTH",
"323 332 OFFCURVE",
"342 322 OFFCURVE",
"357 308 CURVE",
"480 431 LINE",
"430 478 OFFCURVE",
"371 504 OFFCURVE",
"294 504 CURVE SMOOTH",
"132 504 OFFCURVE",
"14 395 OFFCURVE",
"14 247 CURVE SMOOTH",
"14 98 OFFCURVE",
"133 -12 OFFCURVE",
"295 -12 CURVE SMOOTH"
);
}
);
};
layerId = "9F43D23A-D415-475F-B4C7-798B571F7CAB";
paths = (
{
closed = 1;
nodes = (
"378 -12 OFFCURVE",
"437 13 OFFCURVE",
"495 67 CURVE",
"372 190 LINE",
"355 171 OFFCURVE",
"334 160 OFFCURVE",
"299 160 CURVE SMOOTH",
"252 160 OFFCURVE",
"212 195 OFFCURVE",
"212 247 CURVE SMOOTH",
"212 298 OFFCURVE",
"251 332 OFFCURVE",
"299 332 CURVE SMOOTH",
"330 332 OFFCURVE",
"350 324 OFFCURVE",
"367 308 CURVE",
"490 431 LINE",
"437 480 OFFCURVE",
"376 504 OFFCURVE",
"299 504 CURVE SMOOTH",
"137 504 OFFCURVE",
"14 395 OFFCURVE",
"14 245 CURVE SMOOTH",
"14 96 OFFCURVE",
"136 -12 OFFCURVE",
"296 -12 CURVE SMOOTH"
);
}
);
width = 505;
},
{
anchors = (
{
name = bottom;
position = "{263, 0}";
},
{
name = top;
position = "{273, 460}";
}
);
background = {
paths = (
{
closed = 1;
nodes = (
"419 -10 OFFCURVE",
"523 94 OFFCURVE",
"523 232 CURVE SMOOTH",
"523 366 OFFCURVE",
"419 470 OFFCURVE",
"287 470 CURVE SMOOTH",
"153 470 OFFCURVE",
"50 366 OFFCURVE",
"50 232 CURVE SMOOTH",
"50 96 OFFCURVE",
"153 -10 OFFCURVE",
"287 -10 CURVE SMOOTH"
);
},
{
closed = 1;
nodes = (
"170 19 OFFCURVE",
"82 110 OFFCURVE",
"82 232 CURVE SMOOTH",
"82 351 OFFCURVE",
"170 441 OFFCURVE",
"287 441 CURVE SMOOTH",
"403 441 OFFCURVE",
"491 351 OFFCURVE",
"491 233 CURVE SMOOTH",
"491 110 OFFCURVE",
"403 19 OFFCURVE",
"287 19 CURVE SMOOTH"
);
}
);
};
guideLines = (
{
angle = 135;
position = "{287, 232}";
showMeasurement = 1;
},
{
angle = 45;
position = "{445, 390}";
}
);
layerId = "0B0D9703-EF89-4C57-A339-A59A1335C1A4";
paths = (
{
closed = 1;
nodes = (
"354 -10 OFFCURVE",
"415 16 OFFCURVE",
"458 61 CURVE",
"437 82 LINE",
"400 42 OFFCURVE",
"347 19 OFFCURVE",
"287 19 CURVE SMOOTH",
"170 19 OFFCURVE",
"82 110 OFFCURVE",
"82 232 CURVE SMOOTH",
"82 351 OFFCURVE",
"170 441 OFFCURVE",
"287 441 CURVE SMOOTH",
"346 441 OFFCURVE",
"398 418 OFFCURVE",
"434 379 CURVE",
"455 400 LINE",
"413 444 OFFCURVE",
"354 470 OFFCURVE",
"287 470 CURVE SMOOTH",
"153 470 OFFCURVE",
"50 366 OFFCURVE",
"50 232 CURVE SMOOTH",
"50 96 OFFCURVE",
"153 -10 OFFCURVE",
"287 -10 CURVE SMOOTH"
);
}
);
width = 495;
}
);
leftKerningGroup = o;
rightKerningGroup = c;
unicode = 0063;
},
{
glyphname = d;
lastChange = "2021-09-16 15:08:16 +0000";
layers = (
{
background = {
paths = (
{
closed = 1;
nodes = (
"372 -10 OFFCURVE",
"452 66 OFFCURVE",
"452 171 CURVE",
"452 309 LINE",
"452 413 OFFCURVE",
"371 490 OFFCURVE",
"262 490 CURVE SMOOTH",
"132 490 OFFCURVE",
"31 380 OFFCURVE",
"31 239 CURVE SMOOTH",
"31 99 OFFCURVE",
"132 -10 OFFCURVE",
"262 -10 CURVE SMOOTH"
);
},
{
closed = 1;
nodes = (
"200 94 OFFCURVE",
"144 154 OFFCURVE",
"144 240 CURVE SMOOTH",
"144 326 OFFCURVE",
"200 386 OFFCURVE",
"280 386 CURVE SMOOTH",
"361 386 OFFCURVE",
"416 326 OFFCURVE",
"416 240 CURVE SMOOTH",
"416 154 OFFCURVE",
"361 94 OFFCURVE",
"280 94 CURVE SMOOTH"
);
},
{
closed = 1;
nodes = (
"519 0 LINE",
"519 720 LINE",
"409 720 LINE",
"409 362 LINE",
"428 246 LINE",
"409 129 LINE",
"409 0 LINE"
);
}
);
};
layerId = m01;
paths = (
{
closed = 1;
nodes = (
"372 -10 OFFCURVE",
"452 66 OFFCURVE",
"452 171 CURVE",
"452 309 LINE",
"452 413 OFFCURVE",
"371 490 OFFCURVE",
"262 490 CURVE SMOOTH",
"132 490 OFFCURVE",
"31 380 OFFCURVE",
"31 239 CURVE SMOOTH",
"31 99 OFFCURVE",
"132 -10 OFFCURVE",
"262 -10 CURVE SMOOTH"
);
},
{
closed = 1;
nodes = (
"200 94 OFFCURVE",
"144 154 OFFCURVE",
"144 240 CURVE SMOOTH",
"144 326 OFFCURVE",
"200 386 OFFCURVE",
"280 386 CURVE SMOOTH",
"361 386 OFFCURVE",
"416 326 OFFCURVE",
"416 240 CURVE SMOOTH",
"416 154 OFFCURVE",
"361 94 OFFCURVE",
"280 94 CURVE SMOOTH"
);
},
{
closed = 1;
nodes = (
"519 720 LINE",
"409 720 LINE",
"409 362 LINE",
"428 246 LINE",
"409 129 LINE",
"409 0 LINE",
"519 0 LINE"
);
}
);
width = 580;
},
{
background = {
paths = (
{
closed = 1;
nodes = (
"338 -10 OFFCURVE",
"409 37 OFFCURVE",
"424 105 CURVE",
"424 387 LINE",
"409 455 OFFCURVE",
"338 502 OFFCURVE",
"252 502 CURVE SMOOTH",
"114 502 OFFCURVE",
"17 396 OFFCURVE",
"17 246 CURVE SMOOTH",
"17 96 OFFCURVE",
"114 -10 OFFCURVE",
"252 -10 CURVE SMOOTH"
);
},
{
closed = 1;
nodes = (
"249 162 OFFCURVE",
"214 197 OFFCURVE",
"214 246 CURVE SMOOTH",
"214 294 OFFCURVE",
"249 330 OFFCURVE",
"297 330 CURVE SMOOTH",
"345 330 OFFCURVE",
"378 295 OFFCURVE",
"378 246 CURVE SMOOTH",
"378 196 OFFCURVE",
"345 162 OFFCURVE",
"296 162 CURVE SMOOTH"
);
},
{
closed = 1;
nodes = (
"563 0 LINE",
"563 732 LINE",
"372 732 LINE",
"372 360 LINE",
"399 240 LINE",
"372 121 LINE",
"372 0 LINE"
);
}
);
};
layerId = "9F43D23A-D415-475F-B4C7-798B571F7CAB";
paths = (
{
closed = 1;
nodes = (
"348 -10 OFFCURVE",
"429 47 OFFCURVE",
"444 115 CURVE",
"444 387 LINE",
"429 455 OFFCURVE",
"348 502 OFFCURVE",
"260 502 CURVE SMOOTH",
"114 502 OFFCURVE",
"17 396 OFFCURVE",
"17 246 CURVE SMOOTH",
"17 96 OFFCURVE",
"114 -10 OFFCURVE",
"260 -10 CURVE SMOOTH"
);
},
{
closed = 1;
nodes = (
"249 162 OFFCURVE",
"214 197 OFFCURVE",
"214 246 CURVE SMOOTH",
"214 294 OFFCURVE",
"249 330 OFFCURVE",
"297 330 CURVE SMOOTH",
"345 330 OFFCURVE",
"378 295 OFFCURVE",
"378 246 CURVE SMOOTH",
"378 196 OFFCURVE",
"345 162 OFFCURVE",
"296 162 CURVE SMOOTH"
);
},
{
closed = 1;
nodes = (
"563 732 LINE",
"367 732 LINE",
"367 371 LINE",
"399 252 LINE",
"372 132 LINE",
"372 0 LINE",
"563 0 LINE"
);
}
);
width = 610;
},
{
background = {
paths = (
{
closed = 1;
nodes = (
"392 -10 OFFCURVE",
"468 51 OFFCURVE",
"492 152 CURVE",
"492 309 LINE",
"470 409 OFFCURVE",
"391 470 OFFCURVE",
"286 470 CURVE SMOOTH",
"152 470 OFFCURVE",
"51 365 OFFCURVE",
"51 229 CURVE SMOOTH",
"51 93 OFFCURVE",
"152 -10 OFFCURVE",
"288 -10 CURVE SMOOTH"
);
},
{
closed = 1;
nodes = (
"171 19 OFFCURVE",
"83 108 OFFCURVE",
"83 230 CURVE SMOOTH",
"83 352 OFFCURVE",
"170 441 OFFCURVE",
"290 441 CURVE SMOOTH",
"404 441 OFFCURVE",
"480 357 OFFCURVE",
"480 229 CURVE SMOOTH",
"480 102 OFFCURVE",
"406 19 OFFCURVE",
"292 19 CURVE SMOOTH"
);
},
{
closed = 1;
nodes = (
"509 0 LINE",
"509 696 LINE",
"479 696 LINE",
"479 317 LINE",
"488 223 LINE",
"479 132 LINE",
"479 0 LINE"
);
}
);
};
layerId = "0B0D9703-EF89-4C57-A339-A59A1335C1A4";
paths = (
{
closed = 1;
nodes = (
"384 -10 OFFCURVE",
"468 53 OFFCURVE",
"492 152 CURVE",
"492 309 LINE",
"469 410 OFFCURVE",
"380 470 OFFCURVE",
"280 470 CURVE SMOOTH",
"149 470 OFFCURVE",
"51 367 OFFCURVE",
"51 229 CURVE SMOOTH",
"51 93 OFFCURVE",
"148 -10 OFFCURVE",
"280 -10 CURVE SMOOTH"
);
},
{
closed = 1;
nodes = (
"167 19 OFFCURVE",
"83 107 OFFCURVE",
"83 230 CURVE SMOOTH",
"83 353 OFFCURVE",
"167 441 OFFCURVE",
"283 441 CURVE SMOOTH",
"399 441 OFFCURVE",
"479 354 OFFCURVE",
"479 229 CURVE SMOOTH",
"479 106 OFFCURVE",
"400 19 OFFCURVE",
"286 19 CURVE SMOOTH"
);
},
{
closed = 1;
nodes = (
"509 696 LINE",
"478 696 LINE",
"478 348 LINE",
"488 237 LINE",
"478 123 LINE",
"478 0 LINE",
"509 0 LINE"
);
}
);
width = 589;
}
);
leftKerningGroup = o;
rightKerningGroup = l;
unicode = 0064;
userData = {
KernOnName = d;
};
},
{
glyphname = eth;
lastChange = "2021-09-13 19:26:43 +0000";
layers = (
{
layerId = "0B0D9703-EF89-4C57-A339-A59A1335C1A4";
paths = (
{
closed = 1;
nodes = (
"411 -10 OFFCURVE",
"511 89 OFFCURVE",
"511 215 CURVE SMOOTH",
"511 268 OFFCURVE",
"492 319 OFFCURVE",
"456 365 CURVE SMOOTH",
"214 676 LINE",
"175 676 LINE",
"399 396 LINE",
"409 401 LINE",
"373 427 OFFCURVE",
"327 442 OFFCURVE",
"280 442 CURVE SMOOTH",
"158 442 OFFCURVE",
"57 339 OFFCURVE",
"57 216 CURVE SMOOTH",
"57 91 OFFCURVE",
"159 -10 OFFCURVE",
"285 -10 CURVE SMOOTH"
);
},
{
closed = 1;
nodes = (
"178 17 OFFCURVE",
"89 108 OFFCURVE",
"89 216 CURVE SMOOTH",
"89 324 OFFCURVE",
"178 415 OFFCURVE",
"284 415 CURVE SMOOTH",
"392 415 OFFCURVE",
"479 327 OFFCURVE",
"479 216 CURVE SMOOTH",
"479 105 OFFCURVE",
"392 17 OFFCURVE",
"284 17 CURVE SMOOTH"
);
},
{
closed = 1;
nodes = (
"411 613 LINE",
"402 637 LINE",
"118 532 LINE",
"127 508 LINE"
);
}
);
width = 568;
},
{
guideLines = (
{
angle = 111.1613;
position = "{445, 654}";
}
);
layerId = m01;
paths = (
{
closed = 1;
nodes = (
"422 -10 OFFCURVE",
"529 97 OFFCURVE",
"529 232 CURVE SMOOTH",
"529 299 OFFCURVE",
"508 359 OFFCURVE",
"462 426 CURVE SMOOTH",
"271 700 LINE",
"138 700 LINE",
"342 413 LINE",
"384 388 LINE",
"364 433 OFFCURVE",
"331 462 OFFCURVE",
"254 462 CURVE SMOOTH",
"133 462 OFFCURVE",
"34 371 OFFCURVE",
"34 236 CURVE SMOOTH",
"34 100 OFFCURVE",
"144 -10 OFFCURVE",
"282 -10 CURVE SMOOTH"
);
},
{
closed = 1;
nodes = (
"206 98 OFFCURVE",
"149 157 OFFCURVE",
"149 236 CURVE SMOOTH",
"149 314 OFFCURVE",
"207 372 OFFCURVE",
"282 372 CURVE SMOOTH",
"358 372 OFFCURVE",
"414 313 OFFCURVE",
"414 236 CURVE SMOOTH",
"414 157 OFFCURVE",
"358 98 OFFCURVE",
"282 98 CURVE SMOOTH"
);
},
{
closed = 1;
nodes = (
"458 621 LINE",
"427 700 LINE",
"78 571 LINE",
"109 492 LINE"
);
}
);
width = 562;
},
{
layerId = "9F43D23A-D415-475F-B4C7-798B571F7CAB";
paths = (
{
closed = 1;
nodes = (
"449 -12 OFFCURVE",
"568 96 OFFCURVE",
"568 238 CURVE SMOOTH",
"568 295 OFFCURVE",
"549 350 OFFCURVE",
"510 407 CURVE SMOOTH",
"303 712 LINE",
"81 712 LINE",
"320 382 LINE",
"395 398 LINE",
"361 448 OFFCURVE",
"340 479 OFFCURVE",
"265 479 CURVE SMOOTH",
"126 479 OFFCURVE",
"16 372 OFFCURVE",
"16 238 CURVE SMOOTH",
"16 96 OFFCURVE",
"135 -12 OFFCURVE",
"292 -12 CURVE SMOOTH"
);
},
{
closed = 1;
nodes = (
"242 154 OFFCURVE",
"206 192 OFFCURVE",
"206 244 CURVE SMOOTH",
"206 296 OFFCURVE",
"242 334 OFFCURVE",
"292 334 CURVE SMOOTH",
"342 334 OFFCURVE",
"378 296 OFFCURVE",
"378 244 CURVE SMOOTH",
"378 192 OFFCURVE",
"342 154 OFFCURVE",
"292 154 CURVE SMOOTH"
);
},
{
closed = 1;
nodes = (
"496 619 LINE",
"460 712 LINE",
"50 561 LINE",
"86 468 LINE"
);
}
);
width = 584;
}
);
unicode = 00F0;
},
{
glyphname = e;
lastChange = "2022-08-27 00:44:42 +0000";
layers = (
{
anchors = (
{
name = bottom;
position = "{277, 0}";
},
{
name = ogonek;
position = "{481, 10}";
},
{
name = top;
position = "{277, 480}";
}
);
layerId = m01;
paths = (
{
closed = 1;
nodes = (
"359 -10 OFFCURVE",
"428 18 OFFCURVE",
"475 73 CURVE",
"405 144 LINE",
"376 110 OFFCURVE",
"332 93 OFFCURVE",
"283 93 CURVE SMOOTH",
"196 93 OFFCURVE",
"138 152 OFFCURVE",
"138 243 CURVE SMOOTH",
"138 332 OFFCURVE",
"192 389 OFFCURVE",
"276 389 CURVE SMOOTH",
"355 389 OFFCURVE",
"399 340 OFFCURVE",
"403 253 CURVE",
"444 289 LINE",
"107 289 LINE",
"107 199 LINE",
"501 199 LINE",
"505 219 OFFCURVE",
"507 235 OFFCURVE",
"507 251 CURVE SMOOTH",
"507 389 OFFCURVE",
"411 490 OFFCURVE",
"278 490 CURVE SMOOTH",
"139 490 OFFCURVE",
"30 381 OFFCURVE",
"30 240 CURVE SMOOTH",
"30 97 OFFCURVE",
"140 -10 OFFCURVE",
"284 -10 CURVE SMOOTH"
);
}
);
width = 534;
},
{
anchors = (
{
name = bottom;
position = "{289, 0}";
},
{
name = ogonek;
position = "{505, 10}";
},
{
name = top;
position = "{289, 492}";
}
);
layerId = "9F43D23A-D415-475F-B4C7-798B571F7CAB";
paths = (
{
closed = 1;
nodes = (
"392 -12 OFFCURVE",
"461 16 OFFCURVE",
"511 72 CURVE",
"413 169 LINE",
"384 136 OFFCURVE",
"349 121 OFFCURVE",
"303 121 CURVE SMOOTH",
"231 121 OFFCURVE",
"194 163 OFFCURVE",
"194 245 CURVE SMOOTH",
"194 325 OFFCURVE",
"230 371 OFFCURVE",
"291 371 CURVE SMOOTH",
"349 371 OFFCURVE",
"377 333 OFFCURVE",
"377 254 CURVE",
"468 307 LINE",
"97 304 LINE",
"97 184 LINE",
"541 187 LINE",
"547 216 OFFCURVE",
"549 237 OFFCURVE",
"549 257 CURVE SMOOTH",
"549 401 OFFCURVE",
"440 504 OFFCURVE",
"287 504 CURVE SMOOTH",
"130 504 OFFCURVE",
"14 395 OFFCURVE",
"14 246 CURVE SMOOTH",
"14 93 OFFCURVE",
"131 -12 OFFCURVE",
"303 -12 CURVE SMOOTH"
);
}
);
width = 561;
},
{
anchors = (
{
name = bottom;
position = "{285, 0}";
},
{
name = ogonek;
position = "{488, 10}";
},
{
name = top;
position = "{285, 460}";
}
);
background = {
components = (
{
name = o;
transform = "{1, 0, 0, 1, -2, 0}";
}
);
};
layerId = "0B0D9703-EF89-4C57-A339-A59A1335C1A4";
paths = (
{
closed = 1;
nodes = (
"365 -10 OFFCURVE",
"432 21 OFFCURVE",
"473 70 CURVE",
"452 91 LINE",
"414 43 OFFCURVE",
"359 19 OFFCURVE",
"295 19 CURVE SMOOTH",
"167 19 OFFCURVE",
"82 105 OFFCURVE",
"82 233 CURVE SMOOTH",
"82 356 OFFCURVE",
"164 441 OFFCURVE",
"284 441 CURVE SMOOTH",
"398 441 OFFCURVE",
"471 358 OFFCURVE",
"464 241 CURVE",
"473 248 LINE",
"72 248 LINE",
"72 219 LINE",
"493 219 LINE",
"495 236 OFFCURVE",
"496 248 OFFCURVE",
"496 253 CURVE SMOOTH",
"496 381 OFFCURVE",
"408 470 OFFCURVE",
"285 470 CURVE SMOOTH",
"150 470 OFFCURVE",
"50 366 OFFCURVE",
"50 231 CURVE SMOOTH",
"50 93 OFFCURVE",
"152 -10 OFFCURVE",
"291 -10 CURVE SMOOTH"
);
}
);
width = 542;
}
);
leftKerningGroup = o;
rightKerningGroup = e;
unicode = 0065;
userData = {
KernOnName = e;
};
},
{
glyphname = f;
lastChange = "2021-09-16 15:06:51 +0000";
layers = (
{
layerId = m01;
paths = (
{
closed = 1;
nodes = (
"237 0 LINE",
"237 544 LINE SMOOTH",
"237 597 OFFCURVE",
"267 627 OFFCURVE",
"320 627 CURVE SMOOTH",
"349 627 OFFCURVE",
"366 617 OFFCURVE",
"382 601 CURVE",
"453 672 LINE",
"417 709 OFFCURVE",
"378 730 OFFCURVE",
"320 730 CURVE SMOOTH",
"206 730 OFFCURVE",
"127 653 OFFCURVE",
"127 543 CURVE SMOOTH",
"127 0 LINE"
);
},
{
closed = 1;
nodes = (
"382 380 LINE",
"382 480 LINE",
"12 480 LINE",
"12 380 LINE"
);
}
);
width = 403;
},
{
background = {
paths = (
{
closed = 1;
nodes = (
"301 0 LINE",
"301 522 LINE SMOOTH",
"301 557 OFFCURVE",
"320 577 OFFCURVE",
"355 577 CURVE SMOOTH",
"374 577 OFFCURVE",
"386 570 OFFCURVE",
"396 560 CURVE",
"512 676 LINE",
"469 720 OFFCURVE",
"415 744 OFFCURVE",
"337 744 CURVE SMOOTH",
"195 744 OFFCURVE",
"105 649 OFFCURVE",
"105 513 CURVE SMOOTH",
"105 0 LINE"
);
},
{
closed = 1;
nodes = (
"436 332 LINE",
"436 492 LINE",
"5 492 LINE",
"5 332 LINE"
);
}
);
};
layerId = "9F43D23A-D415-475F-B4C7-798B571F7CAB";
paths = (
{
closed = 1;
nodes = (
"301 0 LINE",
"301 521 LINE SMOOTH",
"301 552 OFFCURVE",
"321 572 OFFCURVE",
"352 572 CURVE SMOOTH",
"368 572 OFFCURVE",
"383 567 OFFCURVE",
"393 557 CURVE",
"514 678 LINE",
"475 718 OFFCURVE",
"417 744 OFFCURVE",
"342 744 CURVE SMOOTH",
"192 744 OFFCURVE",
"105 639 OFFCURVE",
"105 512 CURVE SMOOTH",
"105 0 LINE"
);
},
{
closed = 1;
nodes = (
"436 332 LINE",
"436 492 LINE",
"5 492 LINE",
"5 332 LINE"
);
}
);
width = 468;
},
{
layerId = "0B0D9703-EF89-4C57-A339-A59A1335C1A4";
paths = (
{
closed = 1;
nodes = (
"184 0 LINE",
"184 552 LINE SMOOTH",
"184 628 OFFCURVE",
"226 677 OFFCURVE",
"297 677 CURVE SMOOTH",
"329 677 OFFCURVE",
"358 666 OFFCURVE",
"383 640 CURVE",
"404 661 LINE",
"377 689 OFFCURVE",
"340 705 OFFCURVE",
"298 705 CURVE SMOOTH",
"214 705 OFFCURVE",
"153 643 OFFCURVE",
"153 556 CURVE SMOOTH",
"153 0 LINE"
);
},
{
closed = 1;
nodes = (
"354 433 LINE",
"354 460 LINE",
"31 460 LINE",
"31 433 LINE"
);
}
);
width = 386;
}
);
leftKerningGroup = f;
rightKerningGroup = f;
unicode = 0066;
userData = {
KernOnName = f;
};
},
{
glyphname = g;
lastChange = "2021-09-16 15:08:39 +0000";
layers = (
{
background = {
paths = (
{
closed = 1;
nodes = (
"514 480 LINE",
"404 480 LINE",
"404 20 LINE SMOOTH",
"404 -58 OFFCURVE",
"352 -105 OFFCURVE",
"265 -105 CURVE SMOOTH",
"204 -105 OFFCURVE",
"154 -81 OFFCURVE",
"116 -33 CURVE",
"44 -105 LINE",
"91 -172 OFFCURVE",
"170 -210 OFFCURVE",
"263 -210 CURVE SMOOTH",
"413 -210 OFFCURVE",
"514 -118 OFFCURVE",
"514 20 CURVE SMOOTH"
);
},
{
closed = 1;
nodes = (
"210 114 OFFCURVE",
"153 172 OFFCURVE",
"153 250 CURVE SMOOTH",
"153 329 OFFCURVE",
"210 386 OFFCURVE",
"289 386 CURVE SMOOTH",
"345 386 OFFCURVE",
"393 358 OFFCURVE",
"411 314 CURVE",
"448 318 LINE",
"448 415 OFFCURVE",
"367 490 OFFCURVE",
"263 490 CURVE SMOOTH",
"139 490 OFFCURVE",
"40 384 OFFCURVE",
"40 251 CURVE SMOOTH",
"40 118 OFFCURVE",
"140 10 OFFCURVE",
"263 10 CURVE SMOOTH",
"367 10 OFFCURVE",
"448 85 OFFCURVE",
"448 182 CURVE",
"411 186 LINE",
"393 142 OFFCURVE",
"345 114 OFFCURVE",
"287 114 CURVE SMOOTH"
);
}
);
};
layerId = m01;
paths = (
{
closed = 1;
nodes = (
"411 -210 OFFCURVE",
"514 -118 OFFCURVE",
"514 20 CURVE SMOOTH",
"514 480 LINE",
"404 480 LINE",
"404 351 LINE",
"423 244 LINE",
"404 138 LINE",
"404 20 LINE SMOOTH",
"404 -58 OFFCURVE",
"350 -105 OFFCURVE",
"263 -105 CURVE SMOOTH",
"194 -105 OFFCURVE",
"146 -81 OFFCURVE",
"108 -33 CURVE",
"36 -105 LINE",
"83 -172 OFFCURVE",
"160 -210 OFFCURVE",
"261 -210 CURVE SMOOTH"
);
},
{
closed = 1;
nodes = (
"368 10 OFFCURVE",
"447 85 OFFCURVE",
"447 191 CURVE",
"447 309 LINE",
"447 416 OFFCURVE",
"369 490 OFFCURVE",
"256 490 CURVE SMOOTH",
"127 490 OFFCURVE",
"30 387 OFFCURVE",
"30 251 CURVE SMOOTH",
"30 114 OFFCURVE",
"127 10 OFFCURVE",
"256 10 CURVE SMOOTH"
);
},
{
closed = 1;
nodes = (
"198 114 OFFCURVE",
"143 169 OFFCURVE",
"143 250 CURVE SMOOTH",
"143 331 OFFCURVE",
"198 386 OFFCURVE",
"278 386 CURVE SMOOTH",
"358 386 OFFCURVE",
"411 332 OFFCURVE",
"411 250 CURVE SMOOTH",
"411 168 OFFCURVE",
"358 114 OFFCURVE",
"278 114 CURVE SMOOTH"
);
}
);
width = 575;
},
{
background = {
paths = (
{
closed = 1;
nodes = (
"422 -220 OFFCURVE",
"546 -118 OFFCURVE",
"546 44 CURVE SMOOTH",
"546 492 LINE",
"355 492 LINE",
"355 371 LINE",
"382 266 LINE",
"350 160 LINE",
"350 36 LINE SMOOTH",
"350 -23 OFFCURVE",
"311 -54 OFFCURVE",
"247 -54 CURVE SMOOTH",
"194 -54 OFFCURVE",
"159 -34 OFFCURVE",
"128 0 CURVE",
"12 -115 LINE",
"58 -182 OFFCURVE",
"147 -220 OFFCURVE",
"258 -220 CURVE SMOOTH"
);
},
{
closed = 1;
nodes = (
"355 25 OFFCURVE",
"396 112 OFFCURVE",
"407 205 CURVE",
"407 307 LINE",
"396 417 OFFCURVE",
"355 502 OFFCURVE",
"226 502 CURVE SMOOTH",
"95 502 OFFCURVE",
"14 390 OFFCURVE",
"14 256 CURVE SMOOTH",
"14 122 OFFCURVE",
"95 25 OFFCURVE",
"226 25 CURVE SMOOTH"
);
},
{
closed = 1;
nodes = (
"239 187 OFFCURVE",
"212 222 OFFCURVE",
"212 263 CURVE SMOOTH",
"212 305 OFFCURVE",
"240 341 OFFCURVE",
"286 341 CURVE SMOOTH",
"335 341 OFFCURVE",
"361 306 OFFCURVE",
"361 264 CURVE SMOOTH",
"361 221 OFFCURVE",
"335 187 OFFCURVE",
"286 187 CURVE SMOOTH"
);
}
);
};
layerId = "9F43D23A-D415-475F-B4C7-798B571F7CAB";
paths = (
{
closed = 1;
nodes = (
"422 -226 OFFCURVE",
"546 -124 OFFCURVE",
"546 38 CURVE SMOOTH",
"546 492 LINE",
"355 492 LINE",
"355 371 LINE",
"382 266 LINE",
"350 160 LINE",
"350 30 LINE SMOOTH",
"350 -29 OFFCURVE",
"311 -60 OFFCURVE",
"247 -60 CURVE SMOOTH",
"194 -60 OFFCURVE",
"159 -40 OFFCURVE",
"128 -6 CURVE",
"12 -121 LINE",
"58 -188 OFFCURVE",
"147 -226 OFFCURVE",
"258 -226 CURVE SMOOTH"
);
},
{
closed = 1;
nodes = (
"335 20 OFFCURVE",
"406 67 OFFCURVE",
"421 135 CURVE",
"421 387 LINE",
"406 455 OFFCURVE",
"335 502 OFFCURVE",
"249 502 CURVE SMOOTH",
"111 502 OFFCURVE",
"14 396 OFFCURVE",
"14 261 CURVE SMOOTH",
"14 126 OFFCURVE",
"111 20 OFFCURVE",
"249 20 CURVE SMOOTH"
);
},
{
closed = 1;
nodes = (
"239 187 OFFCURVE",
"211 227 OFFCURVE",
"211 262 CURVE SMOOTH",
"211 298 OFFCURVE",
"239 337 OFFCURVE",
"286 337 CURVE SMOOTH",
"333 337 OFFCURVE",
"361 299 OFFCURVE",
"361 262 CURVE SMOOTH",
"361 224 OFFCURVE",
"333 187 OFFCURVE",
"285 187 CURVE SMOOTH"
);
}
);
width = 592;
},
{
layerId = "0B0D9703-EF89-4C57-A339-A59A1335C1A4";
paths = (
{
closed = 1;
nodes = (
"413 -206 OFFCURVE",
"510 -117 OFFCURVE",
"510 17 CURVE SMOOTH",
"510 460 LINE",
"479 460 LINE",
"479 347 LINE",
"488 242 LINE",
"479 134 LINE",
"479 17 LINE SMOOTH",
"479 -102 OFFCURVE",
"398 -177 OFFCURVE",
"270 -177 CURVE SMOOTH",
"184 -177 OFFCURVE",
"117 -142 OFFCURVE",
"81 -90 CURVE",
"62 -109 LINE",
"106 -172 OFFCURVE",
"181 -206 OFFCURVE",
"269 -206 CURVE SMOOTH"
);
},
{
closed = 1;
nodes = (
"388 0 OFFCURVE",
"468 62 OFFCURVE",
"492 160 CURVE",
"492 309 LINE",
"470 409 OFFCURVE",
"387 470 OFFCURVE",
"282 470 CURVE SMOOTH",
"150 470 OFFCURVE",
"51 368 OFFCURVE",
"51 235 CURVE SMOOTH",
"51 99 OFFCURVE",
"150 0 OFFCURVE",
"284 0 CURVE SMOOTH"
);
},
{
closed = 1;
nodes = (
"168 29 OFFCURVE",
"83 115 OFFCURVE",
"83 236 CURVE SMOOTH",
"83 355 OFFCURVE",
"167 441 OFFCURVE",
"286 441 CURVE SMOOTH",
"401 441 OFFCURVE",
"480 356 OFFCURVE",
"480 235 CURVE SMOOTH",
"480 111 OFFCURVE",
"402 29 OFFCURVE",
"288 29 CURVE SMOOTH"
);
}
);
width = 589;
}
);
leftKerningGroup = o;
unicode = 0067;
userData = {
KernOnName = g;
};
},
{
glyphname = h;
lastChange = "2021-09-16 15:07:42 +0000";
layers = (
{
background = {
paths = (
{
closed = 1;
nodes = (
"171 0 LINE",
"171 720 LINE",
"61 720 LINE",
"61 0 LINE"
);
},
{
closed = 1;
nodes = (
"500 412 OFFCURVE",
"422 490 OFFCURVE",
"315 490 CURVE SMOOTH",
"209 490 OFFCURVE",
"128 410 OFFCURVE",
"128 301 CURVE",
"171 272 LINE",
"171 339 OFFCURVE",
"218 387 OFFCURVE",
"286 387 CURVE SMOOTH",
"351 387 OFFCURVE",
"390 343 OFFCURVE",
"390 274 CURVE SMOOTH",
"390 0 LINE",
"500 0 LINE",
"500 301 LINE SMOOTH"
);
}
);
};
layerId = m01;
paths = (
{
closed = 1;
nodes = (
"500 0 LINE",
"500 301 LINE SMOOTH",
"500 412 OFFCURVE",
"421 490 OFFCURVE",
"314 490 CURVE SMOOTH",
"207 490 OFFCURVE",
"128 410 OFFCURVE",
"128 301 CURVE",
"171 277 LINE",
"171 341 OFFCURVE",
"217 387 OFFCURVE",
"281 387 CURVE SMOOTH",
"345 387 OFFCURVE",
"390 341 OFFCURVE",
"390 277 CURVE SMOOTH",
"390 0 LINE"
);
},
{
closed = 1;
nodes = (
"171 0 LINE",
"171 720 LINE",
"61 720 LINE",
"61 0 LINE"
);
}
);
width = 551;
},
{
background = {
paths = (
{
closed = 1;
nodes = (
"542 0 LINE",
"542 337 LINE SMOOTH",
"542 433 OFFCURVE",
"471 502 OFFCURVE",
"376 502 CURVE SMOOTH",
"280 502 OFFCURVE",
"202 436 OFFCURVE",
"202 327 CURVE",
"243 289 LINE",
"243 318 OFFCURVE",
"265 336 OFFCURVE",
"295 336 CURVE SMOOTH",
"324 336 OFFCURVE",
"346 318 OFFCURVE",
"346 289 CURVE SMOOTH",
"346 0 LINE"
);
},
{
closed = 1;
nodes = (
"243 0 LINE",
"243 732 LINE",
"47 732 LINE",
"47 0 LINE"
);
}
);
};
layerId = "9F43D23A-D415-475F-B4C7-798B571F7CAB";
paths = (
{
closed = 1;
nodes = (
"556 0 LINE",
"556 321 LINE SMOOTH",
"556 426 OFFCURVE",
"481 502 OFFCURVE",
"361 502 CURVE SMOOTH",
"245 502 OFFCURVE",
"167 430 OFFCURVE",
"167 310 CURVE",
"243 276 LINE",
"243 314 OFFCURVE",
"268 336 OFFCURVE",
"302 336 CURVE SMOOTH",
"335 336 OFFCURVE",
"360 314 OFFCURVE",
"360 276 CURVE SMOOTH",
"360 0 LINE"
);
},
{
closed = 1;
nodes = (
"243 0 LINE",
"243 732 LINE",
"47 732 LINE",
"47 0 LINE"
);
}
);
width = 593;
},
{
background = {
paths = (
{
closed = 1;
nodes = (
"459 0 LINE",
"459 292 LINE SMOOTH",
"459 402 OFFCURVE",
"385 480 OFFCURVE",
"278 480 CURVE SMOOTH",
"170 480 OFFCURVE",
"91 403 OFFCURVE",
"91 294 CURVE",
"112 293 LINE",
"112 386 OFFCURVE",
"182 452 OFFCURVE",
"275 452 CURVE SMOOTH",
"368 452 OFFCURVE",
"428 384 OFFCURVE",
"428 291 CURVE SMOOTH",
"428 0 LINE"
);
},
{
closed = 1;
nodes = (
"112 0 LINE",
"112 710 LINE",
"81 710 LINE",
"81 0 LINE"
);
}
);
};
layerId = "0B0D9703-EF89-4C57-A339-A59A1335C1A4";
paths = (
{
closed = 1;
nodes = (
"467 0 LINE",
"467 275 LINE SMOOTH",
"467 389 OFFCURVE",
"393 470 OFFCURVE",
"283 470 CURVE SMOOTH",
"173 470 OFFCURVE",
"90 392 OFFCURVE",
"90 288 CURVE",
"111 276 LINE",
"111 373 OFFCURVE",
"180 442 OFFCURVE",
"278 442 CURVE SMOOTH",
"374 442 OFFCURVE",
"436 375 OFFCURVE",
"436 275 CURVE SMOOTH",
"436 0 LINE"
);
},
{
closed = 1;
nodes = (
"111 0 LINE",
"111 696 LINE",
"80 696 LINE",
"80 0 LINE"
);
}
);
width = 537;
}
);
leftKerningGroup = h;
rightKerningGroup = n;
unicode = 0068;
},
{
glyphname = i;
lastChange = "2021-09-16 15:08:51 +0000";
layers = (
{
layerId = m01;
paths = (
{
closed = 1;
nodes = (
"172 0 LINE",
"172 480 LINE",
"62 480 LINE",
"62 0 LINE"
);
},
{
closed = 1;
nodes = (
"155 568 OFFCURVE",
"182 597 OFFCURVE",
"182 634 CURVE SMOOTH",
"182 671 OFFCURVE",
"155 700 OFFCURVE",
"117 700 CURVE SMOOTH",
"79 700 OFFCURVE",
"52 671 OFFCURVE",
"52 634 CURVE SMOOTH",
"52 597 OFFCURVE",
"79 568 OFFCURVE",
"117 568 CURVE SMOOTH"
);
}
);
width = 234;
},
{
layerId = "9F43D23A-D415-475F-B4C7-798B571F7CAB";
paths = (
{
closed = 1;
nodes = (
"242 0 LINE",
"242 492 LINE",
"46 492 LINE",
"46 0 LINE"
);
},
{
closed = 1;
nodes = (
"202 538 OFFCURVE",
"244 583 OFFCURVE",
"244 640 CURVE SMOOTH",
"244 697 OFFCURVE",
"202 742 OFFCURVE",
"144 742 CURVE SMOOTH",
"86 742 OFFCURVE",
"44 697 OFFCURVE",
"44 640 CURVE SMOOTH",
"44 583 OFFCURVE",
"86 538 OFFCURVE",
"144 538 CURVE SMOOTH"
);
}
);
width = 288;
},
{
layerId = "0B0D9703-EF89-4C57-A339-A59A1335C1A4";
paths = (
{
closed = 1;
nodes = (
"111 0 LINE",
"111 460 LINE",
"80 460 LINE",
"80 0 LINE"
);
},
{
closed = 1;
nodes = (
"114 575 OFFCURVE",
"128 590 OFFCURVE",
"128 608 CURVE SMOOTH",
"128 626 OFFCURVE",
"114 640 OFFCURVE",
"95 640 CURVE SMOOTH",
"77 640 OFFCURVE",
"64 626 OFFCURVE",
"64 608 CURVE SMOOTH",
"64 590 OFFCURVE",
"77 575 OFFCURVE",
"95 575 CURVE SMOOTH"
);
}
);
width = 192;
}
);
leftKerningGroup = i;
rightKerningGroup = i;
unicode = 0069;
userData = {
KernOnName = i;
};
},
{
glyphname = idotless;
lastChange = "2021-09-13 17:15:30 +0000";
layers = (
{
anchors = (
{
name = bottom;
position = "{96, 0}";
},
{
name = ogonek;
position = "{173, 10}";
},
{
name = top;
position = "{96, 460}";
}
);
layerId = "0B0D9703-EF89-4C57-A339-A59A1335C1A4";
paths = (
{
closed = 1;
nodes = (
"112 0 LINE",
"112 460 LINE",
"80 460 LINE",
"80 0 LINE"
);
}
);
width = 192;
},
{
anchors = (
{
name = bottom;
position = "{116, 0}";
},
{
name = ogonek;
position = "{209, 10}";
},
{
name = top;
position = "{116, 480}";
}
);
layerId = m01;
paths = (
{
closed = 1;
nodes = (
"171 0 LINE",
"171 480 LINE",
"61 480 LINE",
"61 0 LINE"
);
}
);
width = 232;
},
{
anchors = (
{
name = bottom;
position = "{145, 0}";
},
{
name = ogonek;
position = "{261, 10}";
},
{
name = top;
position = "{145, 492}";
}
);
layerId = "9F43D23A-D415-475F-B4C7-798B571F7CAB";
paths = (
{
closed = 1;
nodes = (
"243 0 LINE",
"243 492 LINE",
"47 492 LINE",
"47 0 LINE"
);
}
);
width = 290;
}
);
leftKerningGroup = i;
rightKerningGroup = i;
unicode = 0131;
},
{
glyphname = j;
lastChange = "2021-09-16 15:08:58 +0000";
layers = (
{
layerId = m01;
paths = (
{
closed = 1;
nodes = (
"102 -210 OFFCURVE",
"181 -151 OFFCURVE",
"181 -41 CURVE SMOOTH",
"181 480 LINE",
"71 480 LINE",
"71 -42 LINE SMOOTH",
"71 -85 OFFCURVE",
"41 -107 OFFCURVE",
"5 -107 CURVE SMOOTH",
"-24 -107 OFFCURVE",
"-43 -97 OFFCURVE",
"-59 -76 CURVE",
"-130 -147 LINE",
"-94 -189 OFFCURVE",
"-55 -210 OFFCURVE",
"13 -210 CURVE SMOOTH"
);
},
{
closed = 1;
nodes = (
"166 568 OFFCURVE",
"193 597 OFFCURVE",
"193 634 CURVE SMOOTH",
"193 671 OFFCURVE",
"166 700 OFFCURVE",
"128 700 CURVE SMOOTH",
"90 700 OFFCURVE",
"63 671 OFFCURVE",
"63 634 CURVE SMOOTH",
"63 597 OFFCURVE",
"90 568 OFFCURVE",
"128 568 CURVE SMOOTH"
);
}
);
width = 242;
},
{
layerId = "9F43D23A-D415-475F-B4C7-798B571F7CAB";
paths = (
{
closed = 1;
nodes = (
"172 -226 OFFCURVE",
"257 -136 OFFCURVE",
"257 -9 CURVE SMOOTH",
"257 492 LINE",
"61 492 LINE",
"61 -13 LINE SMOOTH",
"61 -42 OFFCURVE",
"47 -54 OFFCURVE",
"25 -54 CURVE SMOOTH",
"14 -54 OFFCURVE",
"3 -50 OFFCURVE",
"-10 -37 CURVE",
"-129 -156 LINE",
"-90 -199 OFFCURVE",
"-35 -226 OFFCURVE",
"38 -226 CURVE SMOOTH"
);
},
{
closed = 1;
nodes = (
"217 538 OFFCURVE",
"259 583 OFFCURVE",
"259 640 CURVE SMOOTH",
"259 697 OFFCURVE",
"217 742 OFFCURVE",
"159 742 CURVE SMOOTH",
"101 742 OFFCURVE",
"59 697 OFFCURVE",
"59 640 CURVE SMOOTH",
"59 583 OFFCURVE",
"101 538 OFFCURVE",
"159 538 CURVE SMOOTH"
);
}
);
width = 303;
},
{
layerId = "0B0D9703-EF89-4C57-A339-A59A1335C1A4";
paths = (
{
closed = 1;
nodes = (
"52 -206 OFFCURVE",
"113 -163 OFFCURVE",
"113 -76 CURVE SMOOTH",
"113 460 LINE",
"82 460 LINE",
"82 -77 LINE SMOOTH",
"82 -148 OFFCURVE",
"38 -178 OFFCURVE",
"-16 -178 CURVE SMOOTH",
"-48 -178 OFFCURVE",
"-77 -167 OFFCURVE",
"-102 -141 CURVE",
"-123 -162 LINE",
"-96 -190 OFFCURVE",
"-59 -206 OFFCURVE",
"-17 -206 CURVE SMOOTH"
);
},
{
closed = 1;
nodes = (
"115 575 OFFCURVE",
"129 590 OFFCURVE",
"129 608 CURVE SMOOTH",
"129 626 OFFCURVE",
"115 640 OFFCURVE",
"96 640 CURVE SMOOTH",
"78 640 OFFCURVE",
"65 626 OFFCURVE",
"65 608 CURVE SMOOTH",
"65 590 OFFCURVE",
"78 575 OFFCURVE",
"96 575 CURVE SMOOTH"
);
}
);
width = 193;
}
);
unicode = 006A;
userData = {
KernOnName = j;
KernOnSpecialSpacing = {
L = period;
};
};
},
{
glyphname = k;
lastChange = "2021-09-16 15:09:06 +0000";
layers = (
{
background = {
components = (
{
name = h;
transform = "{1, 0, 0, 1, 1, 0}";
}
);
};
layerId = m01;
paths = (
{
closed = 1;
nodes = (
"506 0 LINE",
"269 279 LINE",
"264 216 LINE",
"496 480 LINE",
"365 480 LINE",
"163 245 LINE",
"366 0 LINE"
);
},
{
closed = 1;
nodes = (
"171 0 LINE",
"171 720 LINE",
"61 720 LINE",
"61 0 LINE"
);
}
);
width = 511;
},
{
layerId = "9F43D23A-D415-475F-B4C7-798B571F7CAB";
paths = (
{
closed = 1;
nodes = (
"584 0 LINE",
"403 293 LINE",
"398 229 LINE",
"574 492 LINE",
"363 492 LINE",
"227 259 LINE",
"364 0 LINE"
);
},
{
closed = 1;
nodes = (
"243 0 LINE",
"243 732 LINE",
"47 732 LINE",
"47 0 LINE"
);
}
);
width = 580;
},
{
background = {
components = (
{
name = h;
transform = "{1, 0, 0, 1, 8, 0}";
}
);
};
layerId = "0B0D9703-EF89-4C57-A339-A59A1335C1A4";
paths = (
{
closed = 1;
nodes = (
"427 0 LINE",
"135 247 LINE",
"136 229 LINE",
"418 460 LINE",
"375 460 LINE",
"104 237 LINE",
"382 0 LINE"
);
},
{
closed = 1;
nodes = (
"111 0 LINE",
"111 696 LINE",
"80 696 LINE",
"80 0 LINE"
);
}
);
width = 457;
}
);
leftKerningGroup = h;
unicode = 006B;
userData = {
KernOnName = k;
};
},
{
glyphname = l;
lastChange = "2021-07-27 19:47:16 +0000";
layers = (
{
layerId = m01;
paths = (
{
closed = 1;
nodes = (
"171 0 LINE",
"171 720 LINE",
"61 720 LINE",
"61 0 LINE"
);
}
);
width = 232;
},
{
layerId = "9F43D23A-D415-475F-B4C7-798B571F7CAB";
paths = (
{
closed = 1;
nodes = (
"243 0 LINE",
"243 732 LINE",
"47 732 LINE",
"47 0 LINE"
);
}
);
width = 290;
},
{
layerId = "0B0D9703-EF89-4C57-A339-A59A1335C1A4";
paths = (
{
closed = 1;
nodes = (
"111 0 LINE",
"111 696 LINE",
"80 696 LINE",
"80 0 LINE"
);
}
);
width = 191;
}
);
leftKerningGroup = h;
rightKerningGroup = l;
unicode = 006C;
userData = {
KernOnName = l;
};
},
{
glyphname = m;
lastChange = "2021-09-16 15:07:18 +0000";
layers = (
{
background = {
paths = (
{
closed = 0;
nodes = (
"809 310 LINE SMOOTH",
"809 421 OFFCURVE",
"727 490 OFFCURVE",
"622 490 CURVE SMOOTH",
"517 490 OFFCURVE",
"435 421 OFFCURVE",
"435 310 CURVE SMOOTH"
);
}
);
};
layerId = m01;
paths = (
{
closed = 1;
nodes = (
"171 0 LINE",
"171 480 LINE",
"61 480 LINE",
"61 0 LINE"
);
},
{
closed = 1;
nodes = (
"490 0 LINE",
"490 310 LINE SMOOTH",
"490 421 OFFCURVE",
"411 490 OFFCURVE",
"309 490 CURVE SMOOTH",
"207 490 OFFCURVE",
"128 419 OFFCURVE",
"128 310 CURVE",
"171 286 LINE",
"171 350 OFFCURVE",
"217 387 OFFCURVE",
"276 387 CURVE SMOOTH",
"335 387 OFFCURVE",
"380 350 OFFCURVE",
"380 286 CURVE SMOOTH",
"380 0 LINE"
);
},
{
closed = 1;
nodes = (
"809 0 LINE",
"809 310 LINE SMOOTH",
"809 421 OFFCURVE",
"726 490 OFFCURVE",
"623 490 CURVE SMOOTH",
"520 490 OFFCURVE",
"438 419 OFFCURVE",
"428 310 CURVE",
"490 286 LINE",
"490 350 OFFCURVE",
"536 387 OFFCURVE",
"595 387 CURVE SMOOTH",
"654 387 OFFCURVE",
"699 350 OFFCURVE",
"699 286 CURVE SMOOTH",
"699 0 LINE"
);
}
);
width = 861;
},
{
background = {
paths = (
{
closed = 1;
nodes = (
"243 0 LINE",
"243 492 LINE",
"47 492 LINE",
"47 0 LINE"
);
},
{
closed = 1;
nodes = (
"534 0 LINE",
"534 337 LINE SMOOTH",
"534 436 OFFCURVE",
"466 502 OFFCURVE",
"372 502 CURVE SMOOTH",
"277 502 OFFCURVE",
"202 439 OFFCURVE",
"202 327 CURVE",
"243 288 LINE",
"243 317 OFFCURVE",
"262 336 OFFCURVE",
"291 336 CURVE SMOOTH",
"319 336 OFFCURVE",
"338 317 OFFCURVE",
"338 288 CURVE SMOOTH",
"338 0 LINE"
);
},
{
closed = 1;
nodes = (
"825 0 LINE",
"825 337 LINE SMOOTH",
"825 436 OFFCURVE",
"757 502 OFFCURVE",
"663 502 CURVE SMOOTH",
"568 502 OFFCURVE",
"493 439 OFFCURVE",
"493 327 CURVE",
"534 288 LINE",
"534 317 OFFCURVE",
"553 336 OFFCURVE",
"582 336 CURVE SMOOTH",
"610 336 OFFCURVE",
"629 317 OFFCURVE",
"629 288 CURVE SMOOTH",
"629 0 LINE"
);
}
);
};
layerId = "9F43D23A-D415-475F-B4C7-798B571F7CAB";
paths = (
{
closed = 1;
nodes = (
"243 0 LINE",
"243 492 LINE",
"47 492 LINE",
"47 0 LINE"
);
},
{
closed = 1;
nodes = (
"546 0 LINE",
"546 311 LINE SMOOTH",
"546 426 OFFCURVE",
"467 502 OFFCURVE",
"367 502 CURVE SMOOTH",
"253 502 OFFCURVE",
"167 430 OFFCURVE",
"167 310 CURVE",
"243 282 LINE",
"243 315 OFFCURVE",
"264 336 OFFCURVE",
"297 336 CURVE SMOOTH",
"328 336 OFFCURVE",
"350 315 OFFCURVE",
"350 282 CURVE SMOOTH",
"350 0 LINE"
);
},
{
closed = 1;
nodes = (
"849 0 LINE",
"849 292 LINE SMOOTH",
"849 424 OFFCURVE",
"764 502 OFFCURVE",
"647 502 CURVE SMOOTH",
"520 502 OFFCURVE",
"431 419 OFFCURVE",
"431 281 CURVE",
"546 282 LINE",
"546 315 OFFCURVE",
"567 336 OFFCURVE",
"600 336 CURVE SMOOTH",
"631 336 OFFCURVE",
"653 315 OFFCURVE",
"653 282 CURVE SMOOTH",
"653 0 LINE"
);
}
);
width = 885;
},
{
background = {
paths = (
{
closed = 0;
nodes = (
"448 298 LINE SMOOTH",
"448 405 OFFCURVE",
"376 480 OFFCURVE",
"273 480 CURVE SMOOTH",
"168 480 OFFCURVE",
"92 406 OFFCURVE",
"92 300 CURVE"
);
}
);
};
layerId = "0B0D9703-EF89-4C57-A339-A59A1335C1A4";
paths = (
{
closed = 1;
nodes = (
"111 0 LINE",
"111 460 LINE",
"80 460 LINE",
"80 0 LINE"
);
},
{
closed = 1;
nodes = (
"439 0 LINE",
"439 292 LINE SMOOTH",
"439 399 OFFCURVE",
"366 470 OFFCURVE",
"268 470 CURVE SMOOTH",
"168 470 OFFCURVE",
"90 399 OFFCURVE",
"90 293 CURVE",
"111 292 LINE",
"111 382 OFFCURVE",
"180 442 OFFCURVE",
"265 442 CURVE SMOOTH",
"349 442 OFFCURVE",
"408 381 OFFCURVE",
"408 290 CURVE SMOOTH",
"408 0 LINE"
);
},
{
closed = 1;
nodes = (
"767 0 LINE",
"767 291 LINE SMOOTH",
"767 399 OFFCURVE",
"694 470 OFFCURVE",
"596 470 CURVE SMOOTH",
"498 470 OFFCURVE",
"418 400 OFFCURVE",
"418 293 CURVE",
"439 292 LINE",
"439 382 OFFCURVE",
"508 442 OFFCURVE",
"593 442 CURVE SMOOTH",
"677 442 OFFCURVE",
"736 381 OFFCURVE",
"736 290 CURVE SMOOTH",
"736 0 LINE"
);
}
);
width = 837;
}
);
leftKerningGroup = n;
rightKerningGroup = n;
unicode = 006D;
},
{
glyphname = n;
lastChange = "2021-09-16 15:06:58 +0000";
layers = (
{
anchors = (
{
name = bottom;
position = "{276, 0}";
},
{
name = top;
position = "{276, 480}";
}
);
background = {
paths = (
{
closed = 1;
nodes = (
"171 0 LINE",
"171 480 LINE",
"61 480 LINE",
"61 0 LINE"
);
},
{
closed = 1;
nodes = (
"504 412 OFFCURVE",
"426 490 OFFCURVE",
"317 490 CURVE SMOOTH",
"209 490 OFFCURVE",
"128 410 OFFCURVE",
"128 301 CURVE",
"171 272 LINE",
"171 339 OFFCURVE",
"218 387 OFFCURVE",
"288 387 CURVE SMOOTH",
"355 387 OFFCURVE",
"394 343 OFFCURVE",
"394 274 CURVE SMOOTH",
"394 0 LINE",
"504 0 LINE",
"504 301 LINE SMOOTH"
);
}
);
};
layerId = m01;
paths = (
{
closed = 1;
nodes = (
"500 0 LINE",
"500 301 LINE SMOOTH",
"500 395 OFFCURVE",
"422 490 OFFCURVE",
"314 490 CURVE SMOOTH",
"207 490 OFFCURVE",
"128 410 OFFCURVE",
"128 301 CURVE",
"171 277 LINE",
"171 341 OFFCURVE",
"217 387 OFFCURVE",
"281 387 CURVE SMOOTH",
"345 387 OFFCURVE",
"390 341 OFFCURVE",
"390 277 CURVE SMOOTH",
"390 0 LINE"
);
},
{
closed = 1;
nodes = (
"171 0 LINE",
"171 480 LINE",
"61 480 LINE",
"61 0 LINE"
);
}
);
width = 551;
},
{
anchors = (
{
name = bottom;
position = "{297, 0}";
},
{
name = top;
position = "{297, 492}";
}
);
background = {
paths = (
{
closed = 1;
nodes = (
"542 0 LINE",
"542 337 LINE SMOOTH",
"542 433 OFFCURVE",
"471 502 OFFCURVE",
"376 502 CURVE SMOOTH",
"280 502 OFFCURVE",
"202 436 OFFCURVE",
"202 327 CURVE",
"243 283 LINE",
"243 317 OFFCURVE",
"265 336 OFFCURVE",
"295 336 CURVE SMOOTH",
"324 336 OFFCURVE",
"346 317 OFFCURVE",
"346 283 CURVE SMOOTH",
"346 0 LINE"
);
},
{
closed = 1;
nodes = (
"243 0 LINE",
"243 492 LINE",
"47 492 LINE",
"47 0 LINE"
);
}
);
};
layerId = "9F43D23A-D415-475F-B4C7-798B571F7CAB";
paths = (
{
closed = 1;
nodes = (
"556 0 LINE",
"556 321 LINE SMOOTH",
"556 426 OFFCURVE",
"477 502 OFFCURVE",
"372 502 CURVE SMOOTH",
"253 502 OFFCURVE",
"167 430 OFFCURVE",
"167 310 CURVE",
"243 276 LINE",
"243 314 OFFCURVE",
"268 336 OFFCURVE",
"302 336 CURVE SMOOTH",
"335 336 OFFCURVE",
"360 314 OFFCURVE",
"360 276 CURVE SMOOTH",
"360 0 LINE"
);
},
{
closed = 1;
nodes = (
"243 0 LINE",
"243 492 LINE",
"47 492 LINE",
"47 0 LINE"
);
}
);
width = 593;
},
{
anchors = (
{
name = bottom;
position = "{269, 0}";
},
{
name = top;
position = "{269, 460}";
}
);
background = {
paths = (
{
closed = 0;
nodes = (
"113 285 LINE",
"113 382 OFFCURVE",
"183 452 OFFCURVE",
"280 452 CURVE SMOOTH",
"378 452 OFFCURVE",
"447 382 OFFCURVE",
"447 285 CURVE SMOOTH"
);
}
);
};
layerId = "0B0D9703-EF89-4C57-A339-A59A1335C1A4";
paths = (
{
closed = 1;
nodes = (
"467 0 LINE",
"467 275 LINE SMOOTH",
"467 389 OFFCURVE",
"393 470 OFFCURVE",
"283 470 CURVE SMOOTH",
"173 470 OFFCURVE",
"90 392 OFFCURVE",
"90 288 CURVE",
"111 276 LINE",
"111 373 OFFCURVE",
"180 442 OFFCURVE",
"278 442 CURVE SMOOTH",
"374 442 OFFCURVE",
"436 375 OFFCURVE",
"436 275 CURVE SMOOTH",
"436 0 LINE"
);
},
{
closed = 1;
nodes = (
"111 0 LINE",
"111 460 LINE",
"80 460 LINE",
"80 0 LINE"
);
}
);
width = 537;
}
);
leftKerningGroup = n;
rightKerningGroup = n;
unicode = 006E;
userData = {
KernOnName = n;
};
},
{
glyphname = o;
lastChange = "2021-09-16 15:09:16 +0000";
layers = (
{
anchors = (
{
name = bottom;
position = "{282, 0}";
},
{
name = center;
position = "{282, 240}";
},
{
name = ogonek;
position = "{507, 10}";
},
{
name = top;
position = "{282, 480}";
},
{
name = topright;
position = "{543, 480}";
}
);
background = {
paths = (
{
closed = 1;
nodes = (
"417 315 OFFCURVE",
"358 376 OFFCURVE",
"283 376 CURVE",
"207 377 OFFCURVE",
"143 315 OFFCURVE",
"145 240 CURVE",
"145 164 OFFCURVE",
"206 103 OFFCURVE",
"281 103 CURVE",
"356 103 OFFCURVE",
"416 163 OFFCURVE",
"417 238 CURVE"
);
},
{
closed = 1;
nodes = (
"530 102 OFFCURVE",
"417 -11 OFFCURVE",
"281 -10 CURVE",
"143 -10 OFFCURVE",
"32 102 OFFCURVE",
"32 240 CURVE",
"32 377 OFFCURVE",
"143 490 OFFCURVE",
"281 489 CURVE",
"419 489 OFFCURVE",
"530 377 OFFCURVE",
"530 240 CURVE"
);
}
);
};
layerId = m01;
paths = (
{
closed = 1;
nodes = (
"423 -10 OFFCURVE",
"533 100 OFFCURVE",
"533 241 CURVE SMOOTH",
"533 381 OFFCURVE",
"422 490 OFFCURVE",
"281 490 CURVE SMOOTH",
"140 490 OFFCURVE",
"30 380 OFFCURVE",
"30 241 CURVE SMOOTH",
"30 101 OFFCURVE",
"141 -10 OFFCURVE",
"281 -10 CURVE SMOOTH"
);
},
{
closed = 1;
nodes = (
"200 96 OFFCURVE",
"143 156 OFFCURVE",
"143 241 CURVE SMOOTH",
"143 324 OFFCURVE",
"200 384 OFFCURVE",
"281 384 CURVE SMOOTH",
"362 384 OFFCURVE",
"420 325 OFFCURVE",
"420 241 CURVE SMOOTH",
"420 156 OFFCURVE",
"363 96 OFFCURVE",
"281 96 CURVE SMOOTH"
);
}
);
width = 563;
},
{
anchors = (
{
name = bottom;
position = "{294, 0}";
},
{
name = center;
position = "{294, 246}";
},
{
name = ogonek;
position = "{529, 10}";
},
{
name = top;
position = "{294, 492}";
},
{
name = topright;
position = "{568, 492}";
}
);
background = {
paths = (
{
closed = 1;
nodes = (
"446 -12 OFFCURVE",
"564 100 OFFCURVE",
"564 247 CURVE SMOOTH",
"564 394 OFFCURVE",
"445 504 OFFCURVE",
"288 504 CURVE SMOOTH",
"132 504 OFFCURVE",
"14 393 OFFCURVE",
"14 247 CURVE SMOOTH",
"14 100 OFFCURVE",
"133 -12 OFFCURVE",
"289 -12 CURVE SMOOTH"
);
},
{
closed = 1;
nodes = (
"243 154 OFFCURVE",
"212 190 OFFCURVE",
"212 245 CURVE SMOOTH",
"212 301 OFFCURVE",
"244 338 OFFCURVE",
"289 338 CURVE SMOOTH",
"336 338 OFFCURVE",
"366 302 OFFCURVE",
"366 246 CURVE SMOOTH",
"366 189 OFFCURVE",
"336 154 OFFCURVE",
"289 154 CURVE SMOOTH"
);
}
);
};
layerId = "9F43D23A-D415-475F-B4C7-798B571F7CAB";
paths = (
{
closed = 1;
nodes = (
"456 -12 OFFCURVE",
"574 98 OFFCURVE",
"574 247 CURVE SMOOTH",
"574 395 OFFCURVE",
"456 504 OFFCURVE",
"294 504 CURVE SMOOTH",
"132 504 OFFCURVE",
"14 395 OFFCURVE",
"14 247 CURVE SMOOTH",
"14 98 OFFCURVE",
"133 -12 OFFCURVE",
"295 -12 CURVE SMOOTH"
);
},
{
closed = 1;
nodes = (
"245 160 OFFCURVE",
"212 194 OFFCURVE",
"212 245 CURVE SMOOTH",
"212 297 OFFCURVE",
"245 332 OFFCURVE",
"294 332 CURVE SMOOTH",
"343 332 OFFCURVE",
"376 298 OFFCURVE",
"376 246 CURVE SMOOTH",
"376 194 OFFCURVE",
"344 160 OFFCURVE",
"294 160 CURVE SMOOTH"
);
}
);
width = 588;
},
{
anchors = (
{
name = bottom;
position = "{287, 0}";
},
{
name = center;
position = "{287, 230}";
},
{
name = ogonek;
position = "{516, 10}";
},
{
name = top;
position = "{287, 460}";
},
{
name = topright;
position = "{553, 460}";
}
);
layerId = "0B0D9703-EF89-4C57-A339-A59A1335C1A4";
paths = (
{
closed = 1;
nodes = (
"419 -10 OFFCURVE",
"523 94 OFFCURVE",
"523 232 CURVE SMOOTH",
"523 366 OFFCURVE",
"419 470 OFFCURVE",
"287 470 CURVE SMOOTH",
"153 470 OFFCURVE",
"50 366 OFFCURVE",
"50 232 CURVE SMOOTH",
"50 96 OFFCURVE",
"153 -10 OFFCURVE",
"287 -10 CURVE SMOOTH"
);
},
{
closed = 1;
nodes = (
"170 19 OFFCURVE",
"82 110 OFFCURVE",
"82 232 CURVE SMOOTH",
"82 351 OFFCURVE",
"170 441 OFFCURVE",
"287 441 CURVE SMOOTH",
"403 441 OFFCURVE",
"491 351 OFFCURVE",
"491 233 CURVE SMOOTH",
"491 110 OFFCURVE",
"403 19 OFFCURVE",
"287 19 CURVE SMOOTH"
);
}
);
width = 573;
}
);
leftKerningGroup = o;
rightKerningGroup = o;
unicode = 006F;
userData = {
KernOnName = o;
};
},
{
glyphname = oslash;
lastChange = "2021-09-13 17:27:13 +0000";
layers = (
{
layerId = "0B0D9703-EF89-4C57-A339-A59A1335C1A4";
paths = (
{
closed = 1;
nodes = (
"419 -10 OFFCURVE",
"523 94 OFFCURVE",
"523 232 CURVE SMOOTH",
"523 366 OFFCURVE",
"419 470 OFFCURVE",
"287 470 CURVE SMOOTH",
"153 470 OFFCURVE",
"50 366 OFFCURVE",
"50 232 CURVE SMOOTH",
"50 96 OFFCURVE",
"153 -10 OFFCURVE",
"287 -10 CURVE SMOOTH"
);
},
{
closed = 1;
nodes = (
"170 19 OFFCURVE",
"82 110 OFFCURVE",
"82 232 CURVE SMOOTH",
"82 351 OFFCURVE",
"170 441 OFFCURVE",
"287 441 CURVE SMOOTH",
"403 441 OFFCURVE",
"491 351 OFFCURVE",
"491 233 CURVE SMOOTH",
"491 110 OFFCURVE",
"403 19 OFFCURVE",
"287 19 CURVE SMOOTH"
);
},
{
closed = 1;
nodes = (
"530 453 LINE",
"510 473 LINE",
"44 7 LINE",
"64 -13 LINE"
);
}
);
width = 573;
},
{
layerId = m01;
paths = (
{
closed = 1;
nodes = (
"423 -10 OFFCURVE",
"533 100 OFFCURVE",
"533 241 CURVE SMOOTH",
"533 381 OFFCURVE",
"422 490 OFFCURVE",
"281 490 CURVE SMOOTH",
"140 490 OFFCURVE",
"30 380 OFFCURVE",
"30 241 CURVE SMOOTH",
"30 101 OFFCURVE",
"141 -10 OFFCURVE",
"281 -10 CURVE SMOOTH"
);
},
{
closed = 1;
nodes = (
"200 96 OFFCURVE",
"143 156 OFFCURVE",
"143 241 CURVE SMOOTH",
"143 324 OFFCURVE",
"200 384 OFFCURVE",
"281 384 CURVE SMOOTH",
"362 384 OFFCURVE",
"420 325 OFFCURVE",
"420 241 CURVE SMOOTH",
"420 156 OFFCURVE",
"363 96 OFFCURVE",
"281 96 CURVE SMOOTH"
);
},
{
closed = 1;
nodes = (
"551 437 LINE",
"479 509 LINE",
"13 43 LINE",
"85 -29 LINE"
);
}
);
width = 563;
},
{
background = {
paths = (
{
closed = 1;
nodes = (
"455 -12 OFFCURVE",
"574 98 OFFCURVE",
"574 247 CURVE SMOOTH",
"574 395 OFFCURVE",
"456 504 OFFCURVE",
"294 504 CURVE SMOOTH",
"132 504 OFFCURVE",
"14 395 OFFCURVE",
"14 247 CURVE SMOOTH",
"14 98 OFFCURVE",
"132 -12 OFFCURVE",
"293 -12 CURVE SMOOTH"
);
},
{
closed = 1;
nodes = (
"225 129 OFFCURVE",
"181 175 OFFCURVE",
"181 246 CURVE SMOOTH",
"181 317 OFFCURVE",
"226 363 OFFCURVE",
"293 363 CURVE SMOOTH",
"360 363 OFFCURVE",
"405 316 OFFCURVE",
"405 245 CURVE SMOOTH",
"405 175 OFFCURVE",
"360 129 OFFCURVE",
"293 129 CURVE SMOOTH"
);
},
{
closed = 1;
nodes = (
"506 530 LINE",
"-2 21 LINE",
"70 -51 LINE",
"578 458 LINE"
);
}
);
};
layerId = "9F43D23A-D415-475F-B4C7-798B571F7CAB";
paths = (
{
closed = 1;
nodes = (
"455 -12 OFFCURVE",
"574 98 OFFCURVE",
"574 247 CURVE SMOOTH",
"574 395 OFFCURVE",
"456 504 OFFCURVE",
"294 504 CURVE SMOOTH",
"132 504 OFFCURVE",
"14 395 OFFCURVE",
"14 247 CURVE SMOOTH",
"14 98 OFFCURVE",
"132 -12 OFFCURVE",
"293 -12 CURVE SMOOTH"
);
},
{
closed = 1;
nodes = (
"225 129 OFFCURVE",
"181 175 OFFCURVE",
"181 246 CURVE SMOOTH",
"181 317 OFFCURVE",
"226 363 OFFCURVE",
"293 363 CURVE SMOOTH",
"360 363 OFFCURVE",
"405 316 OFFCURVE",
"405 245 CURVE SMOOTH",
"405 175 OFFCURVE",
"360 129 OFFCURVE",
"293 129 CURVE SMOOTH"
);
},
{
closed = 1;
nodes = (
"569 448 LINE",
"497 520 LINE",
"19 41 LINE",
"91 -31 LINE"
);
}
);
width = 588;
}
);
leftKerningGroup = o;
rightKerningGroup = o;
unicode = 00F8;
},
{
glyphname = oe;
lastChange = "2021-09-13 17:28:14 +0000";
layers = (
{
layerId = "0B0D9703-EF89-4C57-A339-A59A1335C1A4";
paths = (
{
closed = 1;
nodes = (
"419 -10 OFFCURVE",
"523 94 OFFCURVE",
"523 232 CURVE SMOOTH",
"523 366 OFFCURVE",
"419 470 OFFCURVE",
"287 470 CURVE SMOOTH",
"153 470 OFFCURVE",
"50 366 OFFCURVE",
"50 232 CURVE SMOOTH",
"50 96 OFFCURVE",
"153 -10 OFFCURVE",
"287 -10 CURVE SMOOTH"
);
},
{
closed = 1;
nodes = (
"170 19 OFFCURVE",
"82 110 OFFCURVE",
"82 232 CURVE SMOOTH",
"82 351 OFFCURVE",
"170 441 OFFCURVE",
"287 441 CURVE SMOOTH",
"403 441 OFFCURVE",
"491 351 OFFCURVE",
"491 233 CURVE SMOOTH",
"491 110 OFFCURVE",
"403 19 OFFCURVE",
"287 19 CURVE SMOOTH"
);
},
{
closed = 1;
nodes = (
"806 -10 OFFCURVE",
"873 21 OFFCURVE",
"914 70 CURVE",
"893 91 LINE",
"855 43 OFFCURVE",
"800 19 OFFCURVE",
"736 19 CURVE SMOOTH",
"608 19 OFFCURVE",
"523 105 OFFCURVE",
"523 233 CURVE SMOOTH",
"523 356 OFFCURVE",
"605 441 OFFCURVE",
"725 441 CURVE SMOOTH",
"839 441 OFFCURVE",
"912 358 OFFCURVE",
"905 241 CURVE",
"914 248 LINE",
"513 248 LINE",
"513 219 LINE",
"934 219 LINE",
"936 236 OFFCURVE",
"937 248 OFFCURVE",
"937 253 CURVE SMOOTH",
"937 381 OFFCURVE",
"849 470 OFFCURVE",
"726 470 CURVE SMOOTH",
"591 470 OFFCURVE",
"491 366 OFFCURVE",
"491 231 CURVE SMOOTH",
"491 93 OFFCURVE",
"593 -10 OFFCURVE",
"732 -10 CURVE SMOOTH"
);
}
);
width = 983;
},
{
layerId = m01;
paths = (
{
closed = 1;
nodes = (
"423 -10 OFFCURVE",
"533 100 OFFCURVE",
"533 241 CURVE SMOOTH",
"533 381 OFFCURVE",
"422 490 OFFCURVE",
"281 490 CURVE SMOOTH",
"140 490 OFFCURVE",
"30 380 OFFCURVE",
"30 241 CURVE SMOOTH",
"30 101 OFFCURVE",
"141 -10 OFFCURVE",
"281 -10 CURVE SMOOTH"
);
},
{
closed = 1;
nodes = (
"200 96 OFFCURVE",
"143 156 OFFCURVE",
"143 241 CURVE SMOOTH",
"143 324 OFFCURVE",
"200 384 OFFCURVE",
"281 384 CURVE SMOOTH",
"362 384 OFFCURVE",
"420 325 OFFCURVE",
"420 241 CURVE SMOOTH",
"420 156 OFFCURVE",
"363 96 OFFCURVE",
"281 96 CURVE SMOOTH"
);
},
{
closed = 1;
nodes = (
"754 -10 OFFCURVE",
"823 18 OFFCURVE",
"870 73 CURVE",
"800 144 LINE",
"771 110 OFFCURVE",
"727 93 OFFCURVE",
"678 93 CURVE SMOOTH",
"591 93 OFFCURVE",
"533 152 OFFCURVE",
"533 243 CURVE SMOOTH",
"533 332 OFFCURVE",
"587 389 OFFCURVE",
"671 389 CURVE SMOOTH",
"750 389 OFFCURVE",
"794 340 OFFCURVE",
"798 253 CURVE",
"839 289 LINE",
"502 289 LINE",
"502 199 LINE",
"896 199 LINE",
"900 219 OFFCURVE",
"902 235 OFFCURVE",
"902 251 CURVE SMOOTH",
"902 389 OFFCURVE",
"806 490 OFFCURVE",
"673 490 CURVE SMOOTH",
"534 490 OFFCURVE",
"425 381 OFFCURVE",
"425 240 CURVE SMOOTH",
"425 97 OFFCURVE",
"535 -10 OFFCURVE",
"679 -10 CURVE SMOOTH"
);
}
);
width = 929;
},
{
layerId = "9F43D23A-D415-475F-B4C7-798B571F7CAB";
paths = (
{
closed = 1;
nodes = (
"456 -12 OFFCURVE",
"574 98 OFFCURVE",
"574 247 CURVE SMOOTH",
"574 395 OFFCURVE",
"456 504 OFFCURVE",
"294 504 CURVE SMOOTH",
"132 504 OFFCURVE",
"14 395 OFFCURVE",
"14 247 CURVE SMOOTH",
"14 98 OFFCURVE",
"133 -12 OFFCURVE",
"295 -12 CURVE SMOOTH"
);
},
{
closed = 1;
nodes = (
"245 160 OFFCURVE",
"212 194 OFFCURVE",
"212 245 CURVE SMOOTH",
"212 297 OFFCURVE",
"245 332 OFFCURVE",
"294 332 CURVE SMOOTH",
"343 332 OFFCURVE",
"376 298 OFFCURVE",
"376 246 CURVE SMOOTH",
"376 194 OFFCURVE",
"344 160 OFFCURVE",
"294 160 CURVE SMOOTH"
);
},
{
closed = 1;
nodes = (
"771 -12 OFFCURVE",
"840 16 OFFCURVE",
"890 72 CURVE",
"792 169 LINE",
"763 136 OFFCURVE",
"728 121 OFFCURVE",
"682 121 CURVE SMOOTH",
"610 121 OFFCURVE",
"573 163 OFFCURVE",
"573 245 CURVE SMOOTH",
"573 325 OFFCURVE",
"609 371 OFFCURVE",
"670 371 CURVE SMOOTH",
"728 371 OFFCURVE",
"756 333 OFFCURVE",
"756 254 CURVE",
"847 307 LINE",
"476 304 LINE",
"476 184 LINE",
"920 187 LINE",
"926 216 OFFCURVE",
"928 237 OFFCURVE",
"928 257 CURVE SMOOTH",
"928 401 OFFCURVE",
"819 504 OFFCURVE",
"666 504 CURVE SMOOTH",
"509 504 OFFCURVE",
"393 395 OFFCURVE",
"393 246 CURVE SMOOTH",
"393 93 OFFCURVE",
"510 -12 OFFCURVE",
"682 -12 CURVE SMOOTH"
);
}
);
width = 940;
}
);
leftKerningGroup = o;
rightKerningGroup = e;
rightMetricsKey = e;
unicode = 0153;
},
{
glyphname = p;
lastChange = "2021-09-16 15:09:25 +0000";
layers = (
{
layerId = m01;
paths = (
{
closed = 1;
nodes = (
"448 -10 OFFCURVE",
"549 99 OFFCURVE",
"549 239 CURVE SMOOTH",
"549 380 OFFCURVE",
"448 490 OFFCURVE",
"318 490 CURVE SMOOTH",
"209 490 OFFCURVE",
"128 413 OFFCURVE",
"128 309 CURVE",
"128 171 LINE",
"128 66 OFFCURVE",
"208 -10 OFFCURVE",
"318 -10 CURVE SMOOTH"
);
},
{
closed = 1;
nodes = (
"219 94 OFFCURVE",
"164 154 OFFCURVE",
"164 240 CURVE SMOOTH",
"164 326 OFFCURVE",
"219 386 OFFCURVE",
"300 386 CURVE SMOOTH",
"380 386 OFFCURVE",
"436 326 OFFCURVE",
"436 240 CURVE SMOOTH",
"436 154 OFFCURVE",
"380 94 OFFCURVE",
"300 94 CURVE SMOOTH"
);
},
{
closed = 1;
nodes = (
"171 -200 LINE",
"171 118 LINE",
"152 234 LINE",
"171 351 LINE",
"171 480 LINE",
"61 480 LINE",
"61 -200 LINE"
);
}
);
width = 580;
},
{
layerId = "9F43D23A-D415-475F-B4C7-798B571F7CAB";
paths = (
{
closed = 1;
nodes = (
"496 -10 OFFCURVE",
"593 96 OFFCURVE",
"593 246 CURVE SMOOTH",
"593 396 OFFCURVE",
"496 502 OFFCURVE",
"350 502 CURVE SMOOTH",
"262 502 OFFCURVE",
"181 445 OFFCURVE",
"166 377 CURVE",
"166 105 LINE",
"181 37 OFFCURVE",
"262 -10 OFFCURVE",
"350 -10 CURVE SMOOTH"
);
},
{
closed = 1;
nodes = (
"265 162 OFFCURVE",
"232 197 OFFCURVE",
"232 246 CURVE SMOOTH",
"232 296 OFFCURVE",
"265 330 OFFCURVE",
"314 330 CURVE SMOOTH",
"361 330 OFFCURVE",
"396 295 OFFCURVE",
"396 246 CURVE SMOOTH",
"396 198 OFFCURVE",
"361 162 OFFCURVE",
"313 162 CURVE SMOOTH"
);
},
{
closed = 1;
nodes = (
"238 -210 LINE",
"238 132 LINE",
"211 252 LINE",
"243 371 LINE",
"243 492 LINE",
"47 492 LINE",
"47 -210 LINE"
);
}
);
width = 610;
},
{
layerId = "0B0D9703-EF89-4C57-A339-A59A1335C1A4";
paths = (
{
closed = 1;
nodes = (
"441 -10 OFFCURVE",
"538 93 OFFCURVE",
"538 229 CURVE SMOOTH",
"538 367 OFFCURVE",
"440 470 OFFCURVE",
"309 470 CURVE SMOOTH",
"209 470 OFFCURVE",
"120 410 OFFCURVE",
"97 309 CURVE",
"97 152 LINE",
"121 53 OFFCURVE",
"205 -10 OFFCURVE",
"309 -10 CURVE SMOOTH"
);
},
{
closed = 1;
nodes = (
"189 19 OFFCURVE",
"110 106 OFFCURVE",
"110 229 CURVE SMOOTH",
"110 354 OFFCURVE",
"190 441 OFFCURVE",
"306 441 CURVE SMOOTH",
"422 441 OFFCURVE",
"506 353 OFFCURVE",
"506 230 CURVE SMOOTH",
"506 107 OFFCURVE",
"422 19 OFFCURVE",
"303 19 CURVE SMOOTH"
);
},
{
closed = 1;
nodes = (
"111 -196 LINE",
"111 123 LINE",
"101 237 LINE",
"111 348 LINE",
"111 460 LINE",
"80 460 LINE",
"80 -196 LINE"
);
}
);
width = 589;
}
);
leftKerningGroup = n;
rightKerningGroup = o;
unicode = 0070;
},
{
glyphname = thorn;
lastChange = "2021-09-13 17:28:47 +0000";
layers = (
{
layerId = "0B0D9703-EF89-4C57-A339-A59A1335C1A4";
paths = (
{
closed = 1;
nodes = (
"441 -10 OFFCURVE",
"538 93 OFFCURVE",
"538 229 CURVE SMOOTH",
"538 367 OFFCURVE",
"440 470 OFFCURVE",
"309 470 CURVE SMOOTH",
"209 470 OFFCURVE",
"120 410 OFFCURVE",
"97 309 CURVE",
"97 152 LINE",
"121 53 OFFCURVE",
"205 -10 OFFCURVE",
"309 -10 CURVE SMOOTH"
);
},
{
closed = 1;
nodes = (
"189 19 OFFCURVE",
"110 106 OFFCURVE",
"110 229 CURVE SMOOTH",
"110 354 OFFCURVE",
"190 441 OFFCURVE",
"306 441 CURVE SMOOTH",
"422 441 OFFCURVE",
"507 353 OFFCURVE",
"507 230 CURVE SMOOTH",
"507 107 OFFCURVE",
"422 19 OFFCURVE",
"303 19 CURVE SMOOTH"
);
},
{
closed = 1;
nodes = (
"111 -196 LINE",
"111 123 LINE",
"101 237 LINE",
"111 348 LINE",
"111 696 LINE",
"80 696 LINE",
"80 -196 LINE"
);
}
);
width = 589;
},
{
layerId = m01;
paths = (
{
closed = 1;
nodes = (
"448 -10 OFFCURVE",
"549 99 OFFCURVE",
"549 239 CURVE SMOOTH",
"549 380 OFFCURVE",
"448 490 OFFCURVE",
"318 490 CURVE SMOOTH",
"209 490 OFFCURVE",
"128 413 OFFCURVE",
"128 309 CURVE",
"128 171 LINE",
"128 66 OFFCURVE",
"208 -10 OFFCURVE",
"318 -10 CURVE SMOOTH"
);
},
{
closed = 1;
nodes = (
"219 94 OFFCURVE",
"164 154 OFFCURVE",
"164 240 CURVE SMOOTH",
"164 326 OFFCURVE",
"219 386 OFFCURVE",
"300 386 CURVE SMOOTH",
"380 386 OFFCURVE",
"436 326 OFFCURVE",
"436 240 CURVE SMOOTH",
"436 154 OFFCURVE",
"380 94 OFFCURVE",
"300 94 CURVE SMOOTH"
);
},
{
closed = 1;
nodes = (
"171 -200 LINE",
"171 118 LINE",
"152 234 LINE",
"171 351 LINE",
"171 720 LINE",
"61 720 LINE",
"61 -200 LINE"
);
}
);
width = 580;
},
{
layerId = "9F43D23A-D415-475F-B4C7-798B571F7CAB";
paths = (
{
closed = 1;
nodes = (
"496 -10 OFFCURVE",
"593 96 OFFCURVE",
"593 246 CURVE SMOOTH",
"593 396 OFFCURVE",
"496 502 OFFCURVE",
"350 502 CURVE SMOOTH",
"262 502 OFFCURVE",
"181 445 OFFCURVE",
"166 377 CURVE",
"166 105 LINE",
"181 37 OFFCURVE",
"262 -10 OFFCURVE",
"350 -10 CURVE SMOOTH"
);
},
{
closed = 1;
nodes = (
"265 162 OFFCURVE",
"232 197 OFFCURVE",
"232 246 CURVE SMOOTH",
"232 296 OFFCURVE",
"265 330 OFFCURVE",
"314 330 CURVE SMOOTH",
"361 330 OFFCURVE",
"396 295 OFFCURVE",
"396 246 CURVE SMOOTH",
"396 198 OFFCURVE",
"361 162 OFFCURVE",
"313 162 CURVE SMOOTH"
);
},
{
closed = 1;
nodes = (
"238 -210 LINE",
"238 132 LINE",
"211 252 LINE",
"243 371 LINE",
"243 732 LINE",
"47 732 LINE",
"47 -210 LINE"
);
}
);
width = 610;
}
);
leftKerningGroup = n;
rightKerningGroup = o;
unicode = 00FE;
},
{
glyphname = q;
lastChange = "2021-09-16 15:09:36 +0000";
layers = (
{
layerId = m01;
paths = (
{
closed = 1;
nodes = (
"372 -10 OFFCURVE",
"452 66 OFFCURVE",
"452 171 CURVE",
"452 309 LINE",
"452 413 OFFCURVE",
"371 490 OFFCURVE",
"262 490 CURVE SMOOTH",
"132 490 OFFCURVE",
"31 380 OFFCURVE",
"31 239 CURVE SMOOTH",
"31 99 OFFCURVE",
"132 -10 OFFCURVE",
"262 -10 CURVE SMOOTH"
);
},
{
closed = 1;
nodes = (
"200 94 OFFCURVE",
"144 154 OFFCURVE",
"144 240 CURVE SMOOTH",
"144 326 OFFCURVE",
"200 386 OFFCURVE",
"280 386 CURVE SMOOTH",
"361 386 OFFCURVE",
"416 326 OFFCURVE",
"416 240 CURVE SMOOTH",
"416 154 OFFCURVE",
"361 94 OFFCURVE",
"280 94 CURVE SMOOTH"
);
},
{
closed = 1;
nodes = (
"519 -200 LINE",
"519 480 LINE",
"409 480 LINE",
"409 351 LINE",
"428 234 LINE",
"409 118 LINE",
"409 -200 LINE"
);
}
);
width = 580;
},
{
layerId = "9F43D23A-D415-475F-B4C7-798B571F7CAB";
paths = (
{
closed = 1;
nodes = (
"338 -10 OFFCURVE",
"409 37 OFFCURVE",
"424 105 CURVE",
"424 387 LINE",
"409 455 OFFCURVE",
"338 502 OFFCURVE",
"252 502 CURVE SMOOTH",
"114 502 OFFCURVE",
"17 396 OFFCURVE",
"17 246 CURVE SMOOTH",
"17 96 OFFCURVE",
"114 -10 OFFCURVE",
"252 -10 CURVE SMOOTH"
);
},
{
closed = 1;
nodes = (
"249 162 OFFCURVE",
"214 197 OFFCURVE",
"214 246 CURVE SMOOTH",
"214 294 OFFCURVE",
"249 330 OFFCURVE",
"297 330 CURVE SMOOTH",
"345 330 OFFCURVE",
"378 295 OFFCURVE",
"378 246 CURVE SMOOTH",
"378 196 OFFCURVE",
"345 162 OFFCURVE",
"296 162 CURVE SMOOTH"
);
},
{
closed = 1;
nodes = (
"563 -210 LINE",
"563 492 LINE",
"372 492 LINE",
"372 371 LINE",
"399 252 LINE",
"372 132 LINE",
"372 -210 LINE"
);
}
);
width = 610;
},
{
layerId = "0B0D9703-EF89-4C57-A339-A59A1335C1A4";
paths = (
{
closed = 1;
nodes = (
"392 -10 OFFCURVE",
"468 51 OFFCURVE",
"492 152 CURVE",
"492 309 LINE",
"470 409 OFFCURVE",
"391 470 OFFCURVE",
"286 470 CURVE SMOOTH",
"152 470 OFFCURVE",
"51 365 OFFCURVE",
"51 229 CURVE SMOOTH",
"51 93 OFFCURVE",
"152 -10 OFFCURVE",
"288 -10 CURVE SMOOTH"
);
},
{
closed = 1;
nodes = (
"171 19 OFFCURVE",
"83 108 OFFCURVE",
"83 230 CURVE SMOOTH",
"83 352 OFFCURVE",
"170 441 OFFCURVE",
"290 441 CURVE SMOOTH",
"404 441 OFFCURVE",
"480 357 OFFCURVE",
"480 229 CURVE SMOOTH",
"480 102 OFFCURVE",
"406 19 OFFCURVE",
"292 19 CURVE SMOOTH"
);
},
{
closed = 1;
nodes = (
"510 -196 LINE",
"510 460 LINE",
"479 460 LINE",
"479 348 LINE",
"488 237 LINE",
"479 123 LINE",
"479 -196 LINE"
);
}
);
width = 590;
}
);
leftKerningGroup = o;
unicode = 0071;
userData = {
KernOnName = q;
};
},
{
glyphname = r;
lastChange = "2021-07-28 19:10:24 +0000";
layers = (
{
background = {
paths = (
{
closed = 1;
nodes = (
"171 0 LINE",
"171 480 LINE",
"61 480 LINE",
"61 0 LINE"
);
},
{
closed = 1;
nodes = (
"415 435 LINE",
"382 473 OFFCURVE",
"345 490 OFFCURVE",
"295 490 CURVE SMOOTH",
"195 490 OFFCURVE",
"137 419 OFFCURVE",
"137 298 CURVE",
"164 294 LINE",
"183 356 OFFCURVE",
"221 387 OFFCURVE",
"277 387 CURVE SMOOTH",
"305 387 OFFCURVE",
"325 379 OFFCURVE",
"343 361 CURVE"
);
}
);
};
layerId = m01;
paths = (
{
closed = 1;
nodes = (
"171 0 LINE",
"171 480 LINE",
"61 480 LINE",
"61 0 LINE"
);
},
{
closed = 1;
nodes = (
"171 349 OFFCURVE",
"215 387 OFFCURVE",
"277 387 CURVE SMOOTH",
"305 387 OFFCURVE",
"325 379 OFFCURVE",
"343 361 CURVE",
"415 435 LINE",
"382 473 OFFCURVE",
"344 490 OFFCURVE",
"296 490 CURVE SMOOTH",
"187 490 OFFCURVE",
"133 407 OFFCURVE",
"133 286 CURVE",
"171 267 LINE"
);
}
);
width = 425;
},
{
background = {
paths = (
{
closed = 1;
nodes = (
"243 0 LINE",
"243 492 LINE",
"47 492 LINE",
"47 0 LINE"
);
},
{
closed = 1;
nodes = (
"243 302 OFFCURVE",
"265 331 OFFCURVE",
"302 331 CURVE SMOOTH",
"319 331 OFFCURVE",
"334 325 OFFCURVE",
"343 315 CURVE",
"460 472 LINE",
"439 493 OFFCURVE",
"406 504 OFFCURVE",
"366 504 CURVE SMOOTH",
"266 504 OFFCURVE",
"202 423 OFFCURVE",
"202 297 CURVE",
"243 253 LINE"
);
}
);
};
layerId = "9F43D23A-D415-475F-B4C7-798B571F7CAB";
paths = (
{
closed = 1;
nodes = (
"243 0 LINE",
"243 492 LINE",
"47 492 LINE",
"47 0 LINE"
);
},
{
closed = 1;
nodes = (
"243 310 OFFCURVE",
"263 334 OFFCURVE",
"303 334 CURVE SMOOTH",
"327 334 OFFCURVE",
"345 325 OFFCURVE",
"355 315 CURVE",
"465 471 LINE",
"445 491 OFFCURVE",
"412 502 OFFCURVE",
"367 502 CURVE SMOOTH",
"266 502 OFFCURVE",
"202 453 OFFCURVE",
"152 347 CURVE",
"243 266 LINE"
);
}
);
width = 462;
},
{
layerId = "0B0D9703-EF89-4C57-A339-A59A1335C1A4";
paths = (
{
closed = 1;
nodes = (
"111 0 LINE",
"111 460 LINE",
"80 460 LINE",
"80 0 LINE"
);
},
{
closed = 1;
nodes = (
"111 382 OFFCURVE",
"167 440 OFFCURVE",
"248 440 CURVE SMOOTH",
"290 440 OFFCURVE",
"322 427 OFFCURVE",
"350 397 CURVE",
"371 420 LINE",
"338 455 OFFCURVE",
"298 470 OFFCURVE",
"253 470 CURVE SMOOTH",
"160 470 OFFCURVE",
"90 404 OFFCURVE",
"90 287 CURVE",
"111 281 LINE"
);
}
);
width = 402;
}
);
leftKerningGroup = n;
unicode = 0072;
userData = {
KernOnName = r;
};
},
{
glyphname = s;
lastChange = "2021-07-28 20:38:24 +0000";
layers = (
{
layerId = m01;
paths = (
{
closed = 1;
nodes = (
"330 -10 OFFCURVE",
"400 48 OFFCURVE",
"400 142 CURVE SMOOTH",
"400 319 OFFCURVE",
"151 272 OFFCURVE",
"151 351 CURVE SMOOTH",
"151 376 OFFCURVE",
"176 390 OFFCURVE",
"220 390 CURVE SMOOTH",
"267 390 OFFCURVE",
"302 373 OFFCURVE",
"330 338 CURVE",
"400 408 LINE",
"360 462 OFFCURVE",
"300 490 OFFCURVE",
"223 490 CURVE SMOOTH",
"113 490 OFFCURVE",
"46 434 OFFCURVE",
"46 342 CURVE SMOOTH",
"46 168 OFFCURVE",
"295 220 OFFCURVE",
"295 133 CURVE SMOOTH",
"295 105 OFFCURVE",
"269 90 OFFCURVE",
"220 90 CURVE SMOOTH",
"165 90 OFFCURVE",
"122 109 OFFCURVE",
"89 148 CURVE",
"19 78 LINE",
"65 22 OFFCURVE",
"137 -10 OFFCURVE",
"218 -10 CURVE SMOOTH"
);
}
);
width = 430;
},
{
background = {
paths = (
{
closed = 1;
nodes = (
"378 -15 OFFCURVE",
"449 46 OFFCURVE",
"449 143 CURVE SMOOTH",
"449 328 OFFCURVE",
"224 298 OFFCURVE",
"224 349 CURVE SMOOTH",
"224 362 OFFCURVE",
"234 371 OFFCURVE",
"262 371 CURVE SMOOTH",
"292 371 OFFCURVE",
"336 360 OFFCURVE",
"371 321 CURVE",
"468 420 LINE",
"421 477 OFFCURVE",
"336 507 OFFCURVE",
"250 507 CURVE SMOOTH",
"114 507 OFFCURVE",
"40 438 OFFCURVE",
"40 346 CURVE SMOOTH",
"40 162 OFFCURVE",
"267 201 OFFCURVE",
"267 142 CURVE SMOOTH",
"267 129 OFFCURVE",
"254 121 OFFCURVE",
"227 121 CURVE SMOOTH",
"178 121 OFFCURVE",
"130 141 OFFCURVE",
"96 177 CURVE",
"-1 78 LINE",
"51 23 OFFCURVE",
"147 -15 OFFCURVE",
"238 -15 CURVE SMOOTH"
);
}
);
};
layerId = "9F43D23A-D415-475F-B4C7-798B571F7CAB";
paths = (
{
closed = 1;
nodes = (
"374 -15 OFFCURVE",
"457 46 OFFCURVE",
"457 144 CURVE SMOOTH",
"457 330 OFFCURVE",
"235 297 OFFCURVE",
"235 343 CURVE SMOOTH",
"235 354 OFFCURVE",
"243 362 OFFCURVE",
"269 362 CURVE SMOOTH",
"296 362 OFFCURVE",
"341 352 OFFCURVE",
"374 315 CURVE",
"478 421 LINE",
"430 479 OFFCURVE",
"342 509 OFFCURVE",
"255 509 CURVE SMOOTH",
"126 509 OFFCURVE",
"41 439 OFFCURVE",
"41 346 CURVE SMOOTH",
"41 161 OFFCURVE",
"266 203 OFFCURVE",
"266 149 CURVE SMOOTH",
"266 138 OFFCURVE",
"253 132 OFFCURVE",
"230 132 CURVE SMOOTH",
"181 132 OFFCURVE",
"134 152 OFFCURVE",
"102 184 CURVE",
"-1 78 LINE",
"52 23 OFFCURVE",
"151 -15 OFFCURVE",
"243 -15 CURVE SMOOTH"
);
}
);
width = 485;
},
{
layerId = "0B0D9703-EF89-4C57-A339-A59A1335C1A4";
paths = (
{
closed = 1;
nodes = (
"306 -10 OFFCURVE",
"368 38 OFFCURVE",
"368 114 CURVE SMOOTH",
"368 292 OFFCURVE",
"97 214 OFFCURVE",
"97 355 CURVE SMOOTH",
"97 404 OFFCURVE",
"136 442 OFFCURVE",
"211 442 CURVE SMOOTH",
"269 442 OFFCURVE",
"320 418 OFFCURVE",
"347 381 CURVE",
"368 402 LINE",
"337 446 OFFCURVE",
"279 470 OFFCURVE",
"214 470 CURVE SMOOTH",
"123 470 OFFCURVE",
"67 422 OFFCURVE",
"67 354 CURVE SMOOTH",
"67 185 OFFCURVE",
"338 263 OFFCURVE",
"338 110 CURVE SMOOTH",
"338 53 OFFCURVE",
"289 18 OFFCURVE",
"213 18 CURVE SMOOTH",
"152 18 OFFCURVE",
"99 42 OFFCURVE",
"59 94 CURVE",
"38 72 LINE",
"77 23 OFFCURVE",
"138 -10 OFFCURVE",
"212 -10 CURVE SMOOTH"
);
}
);
width = 417;
}
);
unicode = 0073;
userData = {
KernOnName = s;
};
},
{
glyphname = germandbls;
lastChange = "2021-09-16 16:02:46 +0000";
layers = (
{
background = {
paths = (
{
closed = 0;
nodes = (
"306 -10 LINE",
"447 -10 OFFCURVE",
"538 67 OFFCURVE",
"538 187 CURVE SMOOTH",
"538 280 OFFCURVE",
"481 350 OFFCURVE",
"385 373 CURVE",
"379 360 LINE",
"460 385 OFFCURVE",
"503 445 OFFCURVE",
"503 529 CURVE SMOOTH",
"503 638 OFFCURVE",
"424 705 OFFCURVE",
"302 705 CURVE SMOOTH"
);
},
{
closed = 0;
nodes = (
"302 677 LINE",
"404 677 OFFCURVE",
"469 619 OFFCURVE",
"469 527 CURVE SMOOTH",
"469 436 OFFCURVE",
"412 380 OFFCURVE",
"319 380 CURVE SMOOTH",
"251 380 LINE",
"251 352 LINE",
"324 352 LINE SMOOTH",
"429 352 OFFCURVE",
"503 283 OFFCURVE",
"503 187 CURVE SMOOTH",
"503 86 OFFCURVE",
"427 21 OFFCURVE",
"312 21 CURVE SMOOTH"
);
},
{
closed = 0;
nodes = (
"225 705 LINE",
"141 705 OFFCURVE",
"80 643 OFFCURVE",
"80 556 CURVE SMOOTH",
"80 0 LINE",
"112 0 LINE",
"112 552 LINE SMOOTH",
"112 628 OFFCURVE",
"153 677 OFFCURVE",
"224 677 CURVE SMOOTH"
);
}
);
};
guideLines = (
{
angle = 45;
position = "{290, 189}";
}
);
layerId = "0B0D9703-EF89-4C57-A339-A59A1335C1A4";
paths = (
{
closed = 1;
nodes = (
"440 -10 OFFCURVE",
"510 79 OFFCURVE",
"510 190 CURVE SMOOTH",
"510 302 OFFCURVE",
"430 382 OFFCURVE",
"306 382 CURVE",
"307 373 LINE",
"392 387 OFFCURVE",
"445 455 OFFCURVE",
"445 538 CURVE SMOOTH",
"445 631 OFFCURVE",
"379 706 OFFCURVE",
"263 706 CURVE SMOOTH",
"155 706 OFFCURVE",
"80 633 OFFCURVE",
"80 528 CURVE SMOOTH",
"80 0 LINE",
"112 0 LINE",
"112 528 LINE SMOOTH",
"112 618 OFFCURVE",
"174 679 OFFCURVE",
"263 679 CURVE SMOOTH",
"359 679 OFFCURVE",
"413 614 OFFCURVE",
"413 538 CURVE SMOOTH",
"413 462 OFFCURVE",
"359 388 OFFCURVE",
"268 388 CURVE SMOOTH",
"239 388 LINE",
"239 361 LINE",
"300 361 LINE SMOOTH",
"410 361 OFFCURVE",
"478 285 OFFCURVE",
"478 190 CURVE SMOOTH",
"478 96 OFFCURVE",
"420 19 OFFCURVE",
"309 19 CURVE SMOOTH",
"263 19 OFFCURVE",
"215 37 OFFCURVE",
"184 70 CURVE",
"162 49 LINE",
"199 10 OFFCURVE",
"255 -10 OFFCURVE",
"309 -10 CURVE SMOOTH"
);
}
);
width = 558;
},
{
background = {
paths = (
{
closed = 1;
nodes = (
"331 420 OFFCURVE",
"377 466 OFFCURVE",
"377 523 CURVE SMOOTH",
"377 580 OFFCURVE",
"331 626 OFFCURVE",
"274 626 CURVE SMOOTH",
"217 626 OFFCURVE",
"171 580 OFFCURVE",
"171 523 CURVE SMOOTH",
"171 466 OFFCURVE",
"217 420 OFFCURVE",
"274 420 CURVE SMOOTH"
);
}
);
};
layerId = m01;
paths = (
{
closed = 1;
nodes = (
"454 -10 OFFCURVE",
"550 78 OFFCURVE",
"550 200 CURVE SMOOTH",
"550 316 OFFCURVE",
"477 391 OFFCURVE",
"373 406 CURVE",
"363 362 LINE",
"440 383 OFFCURVE",
"492 446 OFFCURVE",
"492 531 CURVE SMOOTH",
"492 640 OFFCURVE",
"408 730 OFFCURVE",
"281 730 CURVE SMOOTH",
"151 730 OFFCURVE",
"61 637 OFFCURVE",
"61 523 CURVE SMOOTH",
"61 0 LINE",
"171 0 LINE",
"171 523 LINE SMOOTH",
"171 584 OFFCURVE",
"217 626 OFFCURVE",
"281 626 CURVE SMOOTH",
"343 626 OFFCURVE",
"383 582 OFFCURVE",
"383 523 CURVE SMOOTH",
"383 456 OFFCURVE",
"346 416 OFFCURVE",
"290 416 CURVE SMOOTH",
"253 416 LINE",
"253 319 LINE",
"313 319 LINE SMOOTH",
"377 319 OFFCURVE",
"429 269 OFFCURVE",
"429 203 CURVE SMOOTH",
"429 135 OFFCURVE",
"383 94 OFFCURVE",
"332 94 CURVE SMOOTH",
"294 94 OFFCURVE",
"275 105 OFFCURVE",
"261 118 CURVE",
"196 34 LINE",
"228 5 OFFCURVE",
"262 -10 OFFCURVE",
"328 -10 CURVE SMOOTH"
);
}
);
width = 578;
},
{
background = {
paths = (
{
closed = 1;
nodes = (
"484 -9 OFFCURVE",
"590 79 OFFCURVE",
"590 211 CURVE SMOOTH",
"590 315 OFFCURVE",
"530 387 OFFCURVE",
"425 416 CURVE",
"407 348 LINE",
"478 373 OFFCURVE",
"533 430 OFFCURVE",
"533 515 CURVE SMOOTH",
"533 638 OFFCURVE",
"432 737 OFFCURVE",
"301 737 CURVE SMOOTH",
"153 737 OFFCURVE",
"47 632 OFFCURVE",
"47 506 CURVE SMOOTH",
"47 0 LINE",
"219 0 LINE",
"219 506 LINE SMOOTH",
"219 546 OFFCURVE",
"258 577 OFFCURVE",
"301 577 CURVE SMOOTH",
"329 577 OFFCURVE",
"363 546 OFFCURVE",
"363 510 CURVE SMOOTH",
"363 460 OFFCURVE",
"335 446 OFFCURVE",
"304 446 CURVE SMOOTH",
"275 446 LINE",
"275 297 LINE",
"335 297 LINE SMOOTH",
"368 297 OFFCURVE",
"395 272 OFFCURVE",
"395 230 CURVE SMOOTH",
"395 182 OFFCURVE",
"372 169 OFFCURVE",
"353 169 CURVE SMOOTH",
"347 169 OFFCURVE",
"349 165 OFFCURVE",
"347 165 CURVE",
"243 30 LINE",
"272 4 OFFCURVE",
"298 -9 OFFCURVE",
"363 -9 CURVE SMOOTH"
);
}
);
};
guideLines = (
{
angle = 90;
position = "{237, 177}";
}
);
layerId = "9F43D23A-D415-475F-B4C7-798B571F7CAB";
paths = (
{
closed = 1;
nodes = (
"500 -9 OFFCURVE",
"592 110 OFFCURVE",
"592 220 CURVE SMOOTH",
"592 310 OFFCURVE",
"553 383 OFFCURVE",
"449 420 CURVE",
"471 386 LINE",
"524 422 OFFCURVE",
"543 474 OFFCURVE",
"543 535 CURVE SMOOTH",
"543 634 OFFCURVE",
"460 739 OFFCURVE",
"305 739 CURVE SMOOTH",
"139 739 OFFCURVE",
"47 632 OFFCURVE",
"47 494 CURVE SMOOTH",
"47 0 LINE",
"237 0 LINE",
"237 507 LINE SMOOTH",
"237 555 OFFCURVE",
"261 578 OFFCURVE",
"298 578 CURVE SMOOTH",
"336 578 OFFCURVE",
"357 553 OFFCURVE",
"357 519 CURVE SMOOTH",
"357 484 OFFCURVE",
"332 459 OFFCURVE",
"296 459 CURVE SMOOTH",
"280 459 LINE",
"280 309 LINE",
"308 309 LINE SMOOTH",
"363 309 OFFCURVE",
"400 275 OFFCURVE",
"400 230 CURVE SMOOTH",
"400 185 OFFCURVE",
"367 152 OFFCURVE",
"320 152 CURVE SMOOTH",
"309 152 OFFCURVE",
"301 154 OFFCURVE",
"293 157 CURVE",
"255 13 LINE",
"280 -1 OFFCURVE",
"308 -9 OFFCURVE",
"346 -9 CURVE SMOOTH"
);
}
);
width = 605;
}
);
unicode = 00DF;
},
{
glyphname = t;
lastChange = "2021-09-16 15:09:52 +0000";
layers = (
{
background = {
paths = (
{
closed = 1;
nodes = (
"244 0 LINE",
"244 640 LINE",
"134 640 LINE",
"134 0 LINE"
);
},
{
closed = 1;
nodes = (
"-11 380 LINE",
"389 380 LINE",
"389 480 LINE",
"-11 480 LINE"
);
}
);
};
layerId = m01;
paths = (
{
closed = 1;
nodes = (
"244 0 LINE",
"244 680 LINE",
"134 680 LINE",
"134 0 LINE"
);
},
{
closed = 1;
nodes = (
"359 380 LINE",
"359 480 LINE",
"19 480 LINE",
"19 380 LINE"
);
}
);
width = 378;
},
{
layerId = "9F43D23A-D415-475F-B4C7-798B571F7CAB";
paths = (
{
closed = 1;
nodes = (
"308 0 LINE",
"308 694 LINE",
"112 694 LINE",
"112 0 LINE"
);
},
{
closed = 1;
nodes = (
"413 332 LINE",
"413 492 LINE",
"7 492 LINE",
"7 332 LINE"
);
}
);
width = 420;
},
{
layerId = "0B0D9703-EF89-4C57-A339-A59A1335C1A4";
paths = (
{
closed = 1;
nodes = (
"184 0 LINE",
"184 656 LINE",
"153 656 LINE",
"153 0 LINE"
);
},
{
closed = 1;
nodes = (
"305 433 LINE",
"305 460 LINE",
"31 460 LINE",
"31 433 LINE"
);
}
);
width = 336;
}
);
leftKerningGroup = f;
rightKerningGroup = t;
unicode = 0074;
userData = {
KernOnName = t;
};
},
{
glyphname = u;
lastChange = "2021-09-13 17:30:05 +0000";
layers = (
{
anchors = (
{
name = bottom;
position = "{259, 0}";
},
{
name = ogonek;
position = "{465, 10}";
},
{
name = top;
position = "{259, 480}";
},
{
name = topright;
position = "{497, 480}";
}
);
background = {
paths = (
{
closed = 1;
nodes = (
"369 480 LINE",
"369 108 LINE",
"369 0 LINE",
"479 0 LINE",
"479 480 LINE"
);
},
{
closed = 1;
nodes = (
"376 166 LINE",
"358 122 OFFCURVE",
"310 93 OFFCURVE",
"254 93 CURVE SMOOTH",
"186 93 OFFCURVE",
"146 135 OFFCURVE",
"146 206 CURVE SMOOTH",
"146 480 LINE",
"36 480 LINE",
"36 177 LINE SMOOTH",
"36 69 OFFCURVE",
"115 -10 OFFCURVE",
"223 -10 CURVE SMOOTH",
"328 -10 OFFCURVE",
"413 67 OFFCURVE",
"413 162 CURVE"
);
}
);
};
layerId = m01;
paths = (
{
closed = 1;
nodes = (
"382 -10 OFFCURVE",
"467 75 OFFCURVE",
"467 201 CURVE SMOOTH",
"467 480 LINE",
"357 480 LINE",
"357 206 LINE SMOOTH",
"357 135 OFFCURVE",
"322 96 OFFCURVE",
"258 96 CURVE SMOOTH",
"195 96 OFFCURVE",
"159 136 OFFCURVE",
"159 206 CURVE SMOOTH",
"159 480 LINE",
"49 480 LINE",
"49 201 LINE SMOOTH",
"49 77 OFFCURVE",
"135 -10 OFFCURVE",
"258 -10 CURVE SMOOTH"
);
}
);
width = 517;
},
{
anchors = (
{
name = bottom;
position = "{281, 0}";
},
{
name = ogonek;
position = "{505, 10}";
},
{
name = top;
position = "{281, 492}";
},
{
name = topright;
position = "{541, 492}";
}
);
background = {
paths = (
{
closed = 1;
nodes = (
"408 -12 OFFCURVE",
"506 78 OFFCURVE",
"506 208 CURVE SMOOTH",
"506 492 LINE",
"309 492 LINE",
"309 197 LINE SMOOTH",
"309 173 OFFCURVE",
"292 154 OFFCURVE",
"268 154 CURVE SMOOTH",
"243 154 OFFCURVE",
"227 173 OFFCURVE",
"227 197 CURVE SMOOTH",
"227 492 LINE",
"30 492 LINE",
"30 208 LINE SMOOTH",
"30 79 OFFCURVE",
"129 -12 OFFCURVE",
"268 -12 CURVE SMOOTH"
);
}
);
};
layerId = "9F43D23A-D415-475F-B4C7-798B571F7CAB";
paths = (
{
closed = 1;
nodes = (
"425 -12 OFFCURVE",
"527 78 OFFCURVE",
"527 208 CURVE SMOOTH",
"527 492 LINE",
"331 492 LINE",
"331 206 LINE SMOOTH",
"331 175 OFFCURVE",
"309 154 OFFCURVE",
"281 154 CURVE SMOOTH",
"251 154 OFFCURVE",
"230 175 OFFCURVE",
"230 206 CURVE SMOOTH",
"230 492 LINE",
"34 492 LINE",
"34 208 LINE SMOOTH",
"34 79 OFFCURVE",
"137 -12 OFFCURVE",
"281 -12 CURVE SMOOTH"
);
}
);
width = 561;
},
{
anchors = (
{
name = bottom;
position = "{256, 0}";
},
{
name = ogonek;
position = "{461, 10}";
},
{
name = top;
position = "{256, 460}";
},
{
name = topright;
position = "{492, 460}";
}
);
background = {
components = (
{
name = n;
transform = "{1, 0, 0, 1, -24, 0}";
}
);
};
layerId = "0B0D9703-EF89-4C57-A339-A59A1335C1A4";
paths = (
{
closed = 1;
nodes = (
"366 -10 OFFCURVE",
"443 73 OFFCURVE",
"443 192 CURVE SMOOTH",
"443 460 LINE",
"412 460 LINE",
"412 193 LINE SMOOTH",
"412 90 OFFCURVE",
"349 18 OFFCURVE",
"256 18 CURVE SMOOTH",
"163 18 OFFCURVE",
"100 91 OFFCURVE",
"100 193 CURVE SMOOTH",
"100 460 LINE",
"69 460 LINE",
"69 192 LINE SMOOTH",
"69 72 OFFCURVE",
"147 -10 OFFCURVE",
"256 -10 CURVE SMOOTH"
);
}
);
width = 512;
}
);
leftKerningGroup = u;
rightKerningGroup = u;
unicode = 0075;
userData = {
KernOnName = u;
};
},
{
glyphname = v;
lastChange = "2021-07-28 20:39:35 +0000";
layers = (
{
background = {
paths = (
{
closed = 1;
nodes = (
"250 -5 LINE",
"260 -5 LINE",
"503 480 LINE",
"386 480 LINE",
"216 123 LINE",
"301 123 LINE",
"131 480 LINE",
"7 480 LINE"
);
}
);
};
layerId = m01;
paths = (
{
closed = 1;
nodes = (
"287 0 LINE",
"506 480 LINE",
"389 480 LINE",
"221 89 LINE",
"293 89 LINE",
"126 480 LINE",
"4 480 LINE",
"223 0 LINE"
);
}
);
width = 510;
},
{
layerId = "9F43D23A-D415-475F-B4C7-798B571F7CAB";
paths = (
{
closed = 1;
nodes = (
"373 1 LINE",
"566 492 LINE",
"359 492 LINE",
"247 73 LINE",
"318 73 LINE",
"205 492 LINE",
"-3 492 LINE",
"190 0 LINE"
);
}
);
width = 563;
},
{
guideLines = (
{
angle = 25.1531;
position = "{81, 448}";
showMeasurement = 1;
}
);
layerId = "0B0D9703-EF89-4C57-A339-A59A1335C1A4";
paths = (
{
closed = 1;
nodes = (
"265 0 LINE",
"483 460 LINE",
"449 460 LINE",
"248 28 LINE",
"265 28 LINE",
"65 460 LINE",
"31 460 LINE",
"247 0 LINE"
);
}
);
width = 514;
}
);
leftKerningGroup = v;
rightKerningGroup = v;
unicode = 0076;
userData = {
KernOnName = v;
};
},
{
glyphname = w;
lastChange = "2021-07-28 20:39:52 +0000";
layers = (
{
background = {
paths = (
{
closed = 1;
nodes = (
"639 480 LINE",
"496 156 LINE",
"552 156 LINE",
"414 480 LINE",
"303 480 LINE",
"518 -5 LINE",
"528 -5 LINE",
"756 480 LINE"
);
},
{
closed = 1;
nodes = (
"353 438 LINE",
"216 156 LINE",
"267 156 LINE",
"115 480 LINE",
"-2 480 LINE",
"236 -5 LINE",
"246 -5 LINE",
"408 335 LINE"
);
}
);
};
layerId = m01;
paths = (
{
closed = 1;
nodes = (
"265 0 LINE",
"395 332 LINE",
"359 332 LINE",
"489 0 LINE",
"553 0 LINE",
"746 480 LINE",
"632 480 LINE",
"502 131 LINE",
"536 130 LINE",
"409 480 LINE",
"345 480 LINE",
"218 130 LINE",
"252 131 LINE",
"122 480 LINE",
"8 480 LINE",
"201 0 LINE"
);
}
);
width = 754;
},
{
background = {
components = (
{
name = m;
transform = "{1, 0, 0, 1, -42, 0}";
}
);
};
layerId = "9F43D23A-D415-475F-B4C7-798B571F7CAB";
paths = (
{
closed = 1;
nodes = (
"329 0 LINE",
"428 340 LINE",
"388 340 LINE",
"484 0 LINE",
"671 0 LINE",
"814 492 LINE",
"628 492 LINE",
"547 134 LINE",
"603 133 LINE",
"499 492 LINE",
"314 492 LINE",
"211 133 LINE",
"266 134 LINE",
"187 492 LINE",
"1 492 LINE",
"144 0 LINE"
);
}
);
width = 815;
},
{
background = {
paths = (
{
closed = 1;
nodes = (
"227 0 LINE",
"381 438 LINE",
"361 438 LINE",
"490 0 LINE",
"509 0 LINE",
"704 460 LINE",
"601 460 LINE",
"420 26 LINE",
"509 26 LINE",
"377 460 LINE",
"360 460 LINE",
"208 28 LINE",
"226 28 LINE",
"66 460 LINE",
"33 460 LINE",
"208 0 LINE"
);
}
);
};
layerId = "0B0D9703-EF89-4C57-A339-A59A1335C1A4";
paths = (
{
closed = 1;
nodes = (
"222 0 LINE",
"381 438 LINE",
"357 438 LINE",
"516 0 LINE",
"535 0 LINE",
"705 460 LINE",
"672 460 LINE",
"517 28 LINE",
"535 28 LINE",
"378 460 LINE",
"360 460 LINE",
"203 28 LINE",
"221 28 LINE",
"66 460 LINE",
"33 460 LINE",
"203 0 LINE"
);
}
);
width = 738;
}
);
unicode = 0077;
userData = {
KernOnName = w;
};
},
{
glyphname = x;
lastChange = "2021-07-28 20:22:12 +0000";
layers = (
{
background = {
components = (
{
name = n;
transform = "{1, 0, 0, 1, -33, 0}";
}
);
};
layerId = m01;
paths = (
{
closed = 1;
nodes = (
"497 0 LINE",
"296 285 LINE",
"277 302 LINE",
"154 480 LINE",
"21 480 LINE",
"207 221 LINE",
"227 203 LINE",
"365 0 LINE"
);
},
{
closed = 1;
nodes = (
"140 0 LINE",
"270 190 LINE",
"206 269 LINE",
"12 0 LINE"
);
},
{
closed = 1;
nodes = (
"488 480 LINE",
"361 480 LINE",
"241 301 LINE",
"306 223 LINE"
);
}
);
width = 509;
},
{
background = {
paths = (
{
closed = 1;
nodes = (
"566 0 LINE",
"362 293 LINE",
"341 316 LINE",
"231 492 LINE",
"7 492 LINE",
"213 199 LINE",
"235 174 LINE",
"344 0 LINE"
);
},
{
closed = 1;
nodes = (
"147 0 LINE",
"299 195 LINE",
"225 276 LINE",
"-3 0 LINE"
);
},
{
closed = 1;
nodes = (
"556 492 LINE",
"407 492 LINE",
"266 309 LINE",
"342 229 LINE"
);
}
);
};
layerId = "9F43D23A-D415-475F-B4C7-798B571F7CAB";
paths = (
{
closed = 1;
nodes = (
"566 0 LINE",
"372 293 LINE",
"327 316 LINE",
"231 492 LINE",
"7 492 LINE",
"203 199 LINE",
"249 174 LINE",
"344 0 LINE"
);
},
{
closed = 1;
nodes = (
"203 0 LINE",
"311 179 LINE",
"201 296 LINE",
"-3 0 LINE"
);
},
{
closed = 1;
nodes = (
"556 492 LINE",
"350 492 LINE",
"250 316 LINE",
"360 199 LINE"
);
}
);
width = 563;
},
{
background = {
paths = (
{
closed = 1;
nodes = (
"466 0 LINE",
"263 247 LINE",
"254 253 LINE",
"80 460 LINE",
"40 460 LINE",
"236 231 LINE",
"245 224 LINE",
"426 0 LINE"
);
},
{
closed = 1;
nodes = (
"71 0 LINE",
"252 222 LINE",
"238 247 LINE",
"32 0 LINE"
);
},
{
closed = 1;
nodes = (
"458 460 LINE",
"419 460 LINE",
"248 254 LINE",
"262 231 LINE"
);
}
);
};
layerId = "0B0D9703-EF89-4C57-A339-A59A1335C1A4";
paths = (
{
closed = 1;
nodes = (
"457 0 LINE",
"258 247 LINE",
"249 253 LINE",
"79 460 LINE",
"39 460 LINE",
"231 231 LINE",
"240 224 LINE",
"417 0 LINE"
);
},
{
closed = 1;
nodes = (
"70 0 LINE",
"247 222 LINE",
"233 247 LINE",
"31 0 LINE"
);
},
{
closed = 1;
nodes = (
"449 460 LINE",
"410 460 LINE",
"243 254 LINE",
"257 231 LINE"
);
}
);
width = 488;
}
);
unicode = 0078;
userData = {
KernOnName = x;
};
},
{
glyphname = y;
lastChange = "2021-09-13 17:31:07 +0000";
layers = (
{
anchors = (
{
name = bottom;
position = "{259, 0}";
},
{
name = top;
position = "{259, 480}";
}
);
layerId = m01;
paths = (
{
closed = 1;
nodes = (
"284 -5 LINE",
"507 480 LINE",
"385 480 LINE",
"237 124 LINE",
"272 124 LINE",
"132 480 LINE",
"11 480 LINE",
"216 -5 LINE"
);
},
{
closed = 1;
nodes = (
"195 -200 LINE",
"284 -5 LINE",
"222 107 LINE",
"73 -200 LINE"
);
}
);
width = 518;
},
{
anchors = (
{
name = bottom;
position = "{275, 0}";
},
{
name = top;
position = "{275, 492}";
}
);
background = {
paths = (
{
closed = 1;
nodes = (
"359 1 LINE",
"552 492 LINE",
"345 492 LINE",
"233 73 LINE",
"304 73 LINE",
"191 492 LINE",
"-17 492 LINE",
"176 0 LINE"
);
}
);
};
layerId = "9F43D23A-D415-475F-B4C7-798B571F7CAB";
paths = (
{
closed = 1;
nodes = (
"359 1 LINE",
"552 492 LINE",
"345 492 LINE",
"233 73 LINE",
"319 73 LINE",
"205 492 LINE",
"-3 492 LINE",
"191 0 LINE"
);
},
{
closed = 1;
nodes = (
"276 -210 LINE",
"359 1 LINE",
"227 113 LINE",
"84 -210 LINE"
);
}
);
width = 549;
},
{
anchors = (
{
name = bottom;
position = "{251, 0}";
},
{
name = top;
position = "{251, 460}";
}
);
background = {
components = (
{
name = v;
transform = "{1, 0, 0, 1, -14, 0}";
}
);
};
layerId = "0B0D9703-EF89-4C57-A339-A59A1335C1A4";
paths = (
{
closed = 1;
nodes = (
"252 0 LINE",
"470 460 LINE",
"436 460 LINE",
"235 28 LINE",
"258 28 LINE",
"66 460 LINE",
"32 460 LINE",
"240 0 LINE"
);
},
{
closed = 1;
nodes = (
"159 -196 LINE",
"252 0 LINE",
"236 30 LINE",
"126 -196 LINE"
);
}
);
width = 502;
}
);
leftKerningGroup = v;
rightKerningGroup = y;
unicode = 0079;
userData = {
KernOnName = y;
};
},
{
glyphname = z;
lastChange = "2021-07-28 19:11:48 +0000";
layers = (
{
background = {
paths = (
{
closed = 1;
nodes = (
"25 10 LINE",
"25 0 LINE",
"442 0 LINE",
"442 100 LINE",
"125 100 LINE"
);
},
{
closed = 1;
nodes = (
"43 380 LINE",
"348 380 LINE",
"448 470 LINE",
"448 480 LINE",
"43 480 LINE"
);
},
{
closed = 1;
nodes = (
"145 10 LINE",
"448 470 LINE",
"328 470 LINE",
"25 10 LINE"
);
}
);
};
layerId = m01;
paths = (
{
closed = 1;
nodes = (
"154 60 LINE",
"422 420 LINE",
"293 420 LINE",
"25 60 LINE"
);
},
{
closed = 1;
nodes = (
"416 0 LINE",
"416 100 LINE",
"125 100 LINE",
"25 60 LINE",
"25 0 LINE"
);
},
{
closed = 1;
nodes = (
"322 380 LINE",
"422 420 LINE",
"422 480 LINE",
"43 480 LINE",
"43 380 LINE"
);
}
);
width = 451;
},
{
layerId = "9F43D23A-D415-475F-B4C7-798B571F7CAB";
paths = (
{
closed = 1;
nodes = (
"264 119 LINE",
"484 373 LINE",
"241 373 LINE",
"21 119 LINE"
);
},
{
closed = 1;
nodes = (
"478 0 LINE",
"478 156 LINE",
"138 156 LINE",
"21 119 LINE",
"21 0 LINE"
);
},
{
closed = 1;
nodes = (
"367 336 LINE",
"484 373 LINE",
"484 492 LINE",
"38 492 LINE",
"38 336 LINE"
);
}
);
width = 510;
},
{
layerId = "0B0D9703-EF89-4C57-A339-A59A1335C1A4";
paths = (
{
closed = 1;
nodes = (
"72 17 LINE",
"397 443 LINE",
"360 443 LINE",
"35 17 LINE"
);
},
{
closed = 1;
nodes = (
"392 0 LINE",
"392 27 LINE",
"56 27 LINE",
"35 17 LINE",
"35 0 LINE"
);
},
{
closed = 1;
nodes = (
"366 433 LINE",
"397 443 LINE",
"397 460 LINE",
"51 460 LINE",
"51 433 LINE"
);
}
);
width = 433;
}
);
unicode = 007A;
},
{
glyphname = e.ss01;
lastChange = "2021-07-22 20:34:11 +0000";
layers = (
{
background = {
paths = (
{
closed = 1;
nodes = (
"491 366 LINE",
"452 444 OFFCURVE",
"379 490 OFFCURVE",
"283 490 CURVE SMOOTH",
"139 490 OFFCURVE",
"30 381 OFFCURVE",
"30 240 CURVE SMOOTH",
"30 97 OFFCURVE",
"140 -10 OFFCURVE",
"289 -10 CURVE SMOOTH",
"369 -10 OFFCURVE",
"438 18 OFFCURVE",
"485 73 CURVE",
"415 144 LINE",
"386 110 OFFCURVE",
"342 93 OFFCURVE",
"288 93 CURVE SMOOTH",
"196 93 OFFCURVE",
"138 152 OFFCURVE",
"138 243 CURVE SMOOTH",
"138 332 OFFCURVE",
"192 389 OFFCURVE",
"281 389 CURVE SMOOTH",
"335 389 OFFCURVE",
"371 370 OFFCURVE",
"392 335 CURVE"
);
},
{
closed = 1;
nodes = (
"210 84 LINE",
"491 366 LINE",
"427 429 LINE",
"146 148 LINE"
);
}
);
};
layerId = m01;
paths = (
{
closed = 1;
nodes = (
"369 -10 OFFCURVE",
"438 18 OFFCURVE",
"485 73 CURVE",
"415 144 LINE",
"386 110 OFFCURVE",
"342 93 OFFCURVE",
"288 93 CURVE SMOOTH",
"195 93 OFFCURVE",
"138 153 OFFCURVE",
"138 241 CURVE SMOOTH",
"138 327 OFFCURVE",
"195 389 OFFCURVE",
"286 389 CURVE SMOOTH",
"349 389 OFFCURVE",
"382 363 OFFCURVE",
"402 321 CURVE",
"400 402 LINE",
"146 148 LINE",
"210 84 LINE",
"491 366 LINE",
"450 445 OFFCURVE",
"382 490 OFFCURVE",
"284 490 CURVE SMOOTH",
"140 490 OFFCURVE",
"30 380 OFFCURVE",
"30 241 CURVE SMOOTH",
"30 101 OFFCURVE",
"136 -10 OFFCURVE",
"289 -10 CURVE SMOOTH"
);
}
);
width = 513;
},
{
layerId = "9F43D23A-D415-475F-B4C7-798B571F7CAB";
paths = (
{
closed = 1;
nodes = (
"396 -12 OFFCURVE",
"465 16 OFFCURVE",
"523 76 CURVE",
"425 173 LINE",
"391 137 OFFCURVE",
"361 123 OFFCURVE",
"320 123 CURVE SMOOTH",
"245 123 OFFCURVE",
"191 178 OFFCURVE",
"191 256 CURVE SMOOTH",
"191 321 OFFCURVE",
"229 361 OFFCURVE",
"293 361 CURVE SMOOTH",
"342 361 OFFCURVE",
"375 336 OFFCURVE",
"387 290 CURVE",
"407 412 LINE",
"126 150 LINE",
"218 55 LINE",
"529 346 LINE",
"492 448 OFFCURVE",
"409 504 OFFCURVE",
"293 504 CURVE SMOOTH",
"133 504 OFFCURVE",
"15 395 OFFCURVE",
"15 247 CURVE SMOOTH",
"15 96 OFFCURVE",
"138 -12 OFFCURVE",
"308 -12 CURVE SMOOTH"
);
}
);
width = 537;
},
{
layerId = "0B0D9703-EF89-4C57-A339-A59A1335C1A4";
paths = (
{
closed = 1;
nodes = (
"362 -10 OFFCURVE",
"416 14 OFFCURVE",
"462 59 CURVE",
"441 80 LINE",
"401 40 OFFCURVE",
"355 19 OFFCURVE",
"287 19 CURVE SMOOTH",
"170 19 OFFCURVE",
"82 110 OFFCURVE",
"82 232 CURVE SMOOTH",
"82 351 OFFCURVE",
"170 441 OFFCURVE",
"287 441 CURVE SMOOTH",
"345 441 OFFCURVE",
"396 418 OFFCURVE",
"429 381 CURVE",
"430 399 LINE",
"119 88 LINE",
"138 66 LINE",
"463 391 LINE",
"421 440 OFFCURVE",
"358 470 OFFCURVE",
"287 470 CURVE SMOOTH",
"153 470 OFFCURVE",
"50 366 OFFCURVE",
"50 232 CURVE SMOOTH",
"50 96 OFFCURVE",
"153 -10 OFFCURVE",
"287 -10 CURVE SMOOTH"
);
}
);
width = 501;
}
);
leftKerningGroup = o;
},
{
glyphname = g.ss01;
lastChange = "2021-07-22 20:34:11 +0000";
layers = (
{
background = {
paths = (
{
closed = 1;
nodes = (
"21 -117 LINE",
"66 -179 OFFCURVE",
"138 -211 OFFCURVE",
"228 -211 CURVE SMOOTH",
"370 -211 OFFCURVE",
"468 -131 OFFCURVE",
"468 -15 CURVE SMOOTH",
"468 97 OFFCURVE",
"376 176 OFFCURVE",
"247 176 CURVE",
"253 117 LINE",
"366 117 OFFCURVE",
"449 194 OFFCURVE",
"449 301 CURVE SMOOTH",
"449 408 OFFCURVE",
"361 490 OFFCURVE",
"248 490 CURVE SMOOTH",
"133 490 OFFCURVE",
"47 406 OFFCURVE",
"47 291 CURVE SMOOTH",
"47 176 OFFCURVE",
"132 94 OFFCURVE",
"245 94 CURVE SMOOTH",
"309 94 OFFCURVE",
"355 50 OFFCURVE",
"355 -8 CURVE SMOOTH",
"355 -69 OFFCURVE",
"308 -105 OFFCURVE",
"228 -105 CURVE SMOOTH",
"168 -105 OFFCURVE",
"134 -87 OFFCURVE",
"97 -41 CURVE"
);
},
{
closed = 1;
nodes = (
"191 197 OFFCURVE",
"152 236 OFFCURVE",
"152 291 CURVE SMOOTH",
"152 346 OFFCURVE",
"190 385 OFFCURVE",
"248 385 CURVE SMOOTH",
"306 385 OFFCURVE",
"344 346 OFFCURVE",
"344 291 CURVE SMOOTH",
"344 236 OFFCURVE",
"305 197 OFFCURVE",
"248 197 CURVE SMOOTH"
);
},
{
closed = 1;
nodes = (
"386 360 LINE",
"502 477 LINE",
"434 545 LINE",
"318 428 LINE"
);
}
);
};
layerId = m01;
paths = (
{
closed = 1;
nodes = (
"380 -210 OFFCURVE",
"469 -131 OFFCURVE",
"469 -15 CURVE SMOOTH",
"469 97 OFFCURVE",
"377 176 OFFCURVE",
"248 176 CURVE",
"254 117 LINE",
"367 117 OFFCURVE",
"450 194 OFFCURVE",
"450 301 CURVE SMOOTH",
"450 408 OFFCURVE",
"362 490 OFFCURVE",
"249 490 CURVE SMOOTH",
"134 490 OFFCURVE",
"48 406 OFFCURVE",
"48 291 CURVE SMOOTH",
"48 176 OFFCURVE",
"133 94 OFFCURVE",
"246 94 CURVE SMOOTH",
"310 94 OFFCURVE",
"356 50 OFFCURVE",
"356 -8 CURVE SMOOTH",
"356 -69 OFFCURVE",
"314 -104 OFFCURVE",
"241 -104 CURVE SMOOTH",
"173 -104 OFFCURVE",
"130 -73 OFFCURVE",
"130 -26 CURVE SMOOTH",
"130 0 OFFCURVE",
"137 17 OFFCURVE",
"151 29 CURVE",
"63 86 LINE",
"32 58 OFFCURVE",
"17 27 OFFCURVE",
"17 -28 CURVE SMOOTH",
"17 -137 OFFCURVE",
"116 -210 OFFCURVE",
"241 -210 CURVE SMOOTH"
);
},
{
closed = 1;
nodes = (
"192 197 OFFCURVE",
"153 236 OFFCURVE",
"153 291 CURVE SMOOTH",
"153 346 OFFCURVE",
"191 385 OFFCURVE",
"249 385 CURVE SMOOTH",
"307 385 OFFCURVE",
"345 346 OFFCURVE",
"345 291 CURVE SMOOTH",
"345 236 OFFCURVE",
"306 197 OFFCURVE",
"249 197 CURVE SMOOTH"
);
},
{
closed = 1;
nodes = (
"503 477 LINE",
"435 545 LINE",
"319 428 LINE",
"387 360 LINE"
);
}
);
width = 514;
},
{
background = {
paths = (
{
closed = 0;
nodes = (
"245 -222 LINE SMOOTH",
"392 -222 OFFCURVE",
"493 -132 OFFCURVE",
"493 0 CURVE SMOOTH",
"493 131 OFFCURVE",
"392 222 OFFCURVE",
"245 222 CURVE SMOOTH"
);
}
);
};
layerId = "9F43D23A-D415-475F-B4C7-798B571F7CAB";
paths = (
{
closed = 1;
nodes = (
"397 -222 OFFCURVE",
"498 -131 OFFCURVE",
"498 -1 CURVE SMOOTH",
"498 120 OFFCURVE",
"406 215 OFFCURVE",
"264 222 CURVE",
"260 116 LINE",
"382 116 OFFCURVE",
"472 196 OFFCURVE",
"472 306 CURVE SMOOTH",
"472 417 OFFCURVE",
"377 502 OFFCURVE",
"255 502 CURVE SMOOTH",
"130 502 OFFCURVE",
"37 415 OFFCURVE",
"37 296 CURVE SMOOTH",
"37 181 OFFCURVE",
"126 92 OFFCURVE",
"241 92 CURVE SMOOTH",
"299 92 OFFCURVE",
"338 62 OFFCURVE",
"338 12 CURVE SMOOTH",
"338 -36 OFFCURVE",
"306 -64 OFFCURVE",
"252 -64 CURVE SMOOTH",
"201 -64 OFFCURVE",
"174 -44 OFFCURVE",
"174 -11 CURVE SMOOTH",
"174 4 OFFCURVE",
"179 15 OFFCURVE",
"191 28 CURVE",
"60 112 LINE",
"23 67 OFFCURVE",
"4 33 OFFCURVE",
"4 -28 CURVE SMOOTH",
"4 -141 OFFCURVE",
"105 -222 OFFCURVE",
"250 -222 CURVE SMOOTH"
);
},
{
closed = 1;
nodes = (
"221 240 OFFCURVE",
"197 263 OFFCURVE",
"197 296 CURVE SMOOTH",
"197 329 OFFCURVE",
"221 352 OFFCURVE",
"255 352 CURVE SMOOTH",
"289 352 OFFCURVE",
"312 329 OFFCURVE",
"312 296 CURVE SMOOTH",
"312 263 OFFCURVE",
"288 240 OFFCURVE",
"255 240 CURVE SMOOTH"
);
},
{
closed = 1;
nodes = (
"523 458 LINE",
"414 567 LINE",
"307 463 LINE",
"416 354 LINE"
);
}
);
width = 525;
},
{
background = {
paths = (
{
closed = 0;
nodes = (
"61 301 LINE SMOOTH",
"61 193 OFFCURVE",
"137 114 OFFCURVE",
"240 114 CURVE SMOOTH",
"340 114 OFFCURVE",
"419 191 OFFCURVE",
"419 292 CURVE SMOOTH",
"419 393 OFFCURVE",
"340 470 OFFCURVE",
"240 470 CURVE SMOOTH",
"137 470 OFFCURVE",
"61 391 OFFCURVE",
"61 283 CURVE SMOOTH"
);
},
{
closed = 0;
nodes = (
"239 137 LINE",
"343 137 OFFCURVE",
"435 71 OFFCURVE",
"435 -37 CURVE SMOOTH",
"435 -149 OFFCURVE",
"356 -206 OFFCURVE",
"232 -206 CURVE SMOOTH",
"108 -206 OFFCURVE",
"29 -149 OFFCURVE",
"29 -37 CURVE SMOOTH",
"29 71 OFFCURVE",
"121 137 OFFCURVE",
"225 137 CURVE"
);
},
{
closed = 0;
nodes = (
"237 114 LINE SMOOTH",
"314 114 OFFCURVE",
"404 60 OFFCURVE",
"404 -36 CURVE SMOOTH",
"404 -134 OFFCURVE",
"333 -178 OFFCURVE",
"232 -178 CURVE SMOOTH",
"131 -178 OFFCURVE",
"60 -134 OFFCURVE",
"60 -36 CURVE SMOOTH",
"60 60 OFFCURVE",
"150 114 OFFCURVE",
"227 114 CURVE SMOOTH"
);
}
);
};
guideLines = (
{
position = "{212, 470}";
}
);
layerId = "0B0D9703-EF89-4C57-A339-A59A1335C1A4";
paths = (
{
closed = 1;
nodes = (
"356 -206 OFFCURVE",
"435 -136 OFFCURVE",
"435 -31 CURVE SMOOTH",
"435 74 OFFCURVE",
"355 147 OFFCURVE",
"239 147 CURVE",
"247 128 LINE",
"336 128 OFFCURVE",
"414 207 OFFCURVE",
"414 298 CURVE SMOOTH",
"414 391 OFFCURVE",
"335 470 OFFCURVE",
"241 470 CURVE SMOOTH",
"144 470 OFFCURVE",
"65 392 OFFCURVE",
"65 296 CURVE SMOOTH",
"65 201 OFFCURVE",
"142 124 OFFCURVE",
"237 124 CURVE SMOOTH",
"332 124 OFFCURVE",
"404 58 OFFCURVE",
"404 -31 CURVE SMOOTH",
"404 -119 OFFCURVE",
"336 -178 OFFCURVE",
"236 -178 CURVE SMOOTH",
"136 -178 OFFCURVE",
"68 -120 OFFCURVE",
"68 -27 CURVE SMOOTH",
"68 12 OFFCURVE",
"83 42 OFFCURVE",
"111 68 CURVE",
"90 89 LINE",
"55 55 OFFCURVE",
"37 16 OFFCURVE",
"37 -34 CURVE SMOOTH",
"37 -136 OFFCURVE",
"119 -206 OFFCURVE",
"237 -206 CURVE SMOOTH"
);
},
{
closed = 1;
nodes = (
"159 152 OFFCURVE",
"96 216 OFFCURVE",
"96 297 CURVE SMOOTH",
"96 379 OFFCURVE",
"158 442 OFFCURVE",
"240 442 CURVE SMOOTH",
"320 442 OFFCURVE",
"383 378 OFFCURVE",
"383 297 CURVE SMOOTH",
"383 216 OFFCURVE",
"320 152 OFFCURVE",
"240 152 CURVE SMOOTH"
);
},
{
closed = 1;
nodes = (
"459 493 LINE",
"441 511 LINE",
"345 415 LINE",
"362 397 LINE"
);
}
);
width = 478;
}
);
},
{
glyphname = k.ss01;
lastChange = "2021-09-27 21:44:23 +0000";
layers = (
{
background = {
components = (
{
name = h;
transform = "{1, 0, 0, 1, 1, 0}";
}
);
};
layerId = m01;
paths = (
{
closed = 1;
nodes = (
"486 57 LINE",
"273 283 LINE",
"268 212 LINE",
"478 427 LINE",
"405 496 LINE",
"163 245 LINE",
"406 -16 LINE"
);
},
{
closed = 1;
nodes = (
"171 0 LINE",
"171 720 LINE",
"61 720 LINE",
"61 0 LINE"
);
}
);
width = 503;
},
{
background = {
paths = (
{
closed = 1;
nodes = (
"584 0 LINE",
"403 293 LINE",
"398 229 LINE",
"515 403 LINE",
"363 492 LINE",
"227 259 LINE",
"364 0 LINE"
);
},
{
closed = 1;
nodes = (
"243 0 LINE",
"243 732 LINE",
"47 732 LINE",
"47 0 LINE"
);
}
);
};
layerId = "9F43D23A-D415-475F-B4C7-798B571F7CAB";
paths = (
{
closed = 1;
nodes = (
"562 84 LINE",
"403 293 LINE",
"398 229 LINE",
"547 416 LINE",
"406 518 LINE",
"227 259 LINE",
"409 -20 LINE"
);
},
{
closed = 1;
nodes = (
"243 0 LINE",
"243 732 LINE",
"47 732 LINE",
"47 0 LINE"
);
}
);
width = 563;
},
{
background = {
components = (
{
name = h;
transform = "{1, 0, 0, 1, 8, 0}";
}
);
};
layerId = "0B0D9703-EF89-4C57-A339-A59A1335C1A4";
paths = (
{
closed = 1;
nodes = (
"412 13 LINE",
"136 248 LINE",
"137 228 LINE",
"394 448 LINE",
"375 470 LINE",
"104 237 LINE",
"392 -10 LINE"
);
},
{
closed = 1;
nodes = (
"111 0 LINE",
"111 696 LINE",
"80 696 LINE",
"80 0 LINE"
);
}
);
width = 444;
}
);
leftKerningGroup = h;
userData = {
KernOnName = k;
};
},
{
glyphname = m.ss01;
lastChange = "2021-09-16 14:31:00 +0000";
layers = (
{
background = {
paths = (
{
closed = 1;
nodes = (
"159 0 LINE",
"159 480 LINE",
"49 480 LINE",
"49 0 LINE"
);
},
{
closed = 1;
nodes = (
"478 0 LINE",
"478 310 LINE SMOOTH",
"478 421 OFFCURVE",
"399 490 OFFCURVE",
"297 490 CURVE SMOOTH",
"195 490 OFFCURVE",
"116 419 OFFCURVE",
"116 310 CURVE",
"159 286 LINE",
"159 350 OFFCURVE",
"205 387 OFFCURVE",
"264 387 CURVE SMOOTH",
"323 387 OFFCURVE",
"368 350 OFFCURVE",
"368 286 CURVE SMOOTH",
"368 0 LINE"
);
},
{
closed = 1;
nodes = (
"797 0 LINE",
"797 310 LINE SMOOTH",
"797 421 OFFCURVE",
"714 490 OFFCURVE",
"611 490 CURVE SMOOTH",
"508 490 OFFCURVE",
"426 419 OFFCURVE",
"416 310 CURVE",
"478 286 LINE",
"478 350 OFFCURVE",
"524 387 OFFCURVE",
"583 387 CURVE SMOOTH",
"642 387 OFFCURVE",
"687 350 OFFCURVE",
"687 286 CURVE SMOOTH",
"687 0 LINE"
);
}
);
};
layerId = m01;
paths = (
{
closed = 1;
nodes = (
"159 0 LINE",
"159 264 LINE SMOOTH",
"159 342 OFFCURVE",
"195 384 OFFCURVE",
"262 384 CURVE SMOOTH",
"330 384 OFFCURVE",
"365 343 OFFCURVE",
"365 264 CURVE SMOOTH",
"365 0 LINE",
"475 0 LINE",
"475 264 LINE SMOOTH",
"475 342 OFFCURVE",
"510 384 OFFCURVE",
"578 384 CURVE SMOOTH",
"645 384 OFFCURVE",
"681 341 OFFCURVE",
"681 264 CURVE SMOOTH",
"681 0 LINE",
"791 0 LINE",
"791 279 LINE SMOOTH",
"791 403 OFFCURVE",
"705 490 OFFCURVE",
"578 490 CURVE SMOOTH",
"495 490 OFFCURVE",
"435 451 OFFCURVE",
"403 388 CURVE",
"437 388 LINE",
"405 451 OFFCURVE",
"345 490 OFFCURVE",
"262 490 CURVE SMOOTH",
"135 490 OFFCURVE",
"49 403 OFFCURVE",
"49 279 CURVE SMOOTH",
"49 0 LINE"
);
}
);
width = 840;
},
{
background = {
paths = (
{
closed = 1;
nodes = (
"232 0 LINE",
"232 492 LINE",
"36 492 LINE",
"36 0 LINE"
);
},
{
closed = 1;
nodes = (
"535 0 LINE",
"535 311 LINE SMOOTH",
"535 426 OFFCURVE",
"456 502 OFFCURVE",
"356 502 CURVE SMOOTH",
"242 502 OFFCURVE",
"156 430 OFFCURVE",
"156 310 CURVE",
"232 282 LINE",
"232 315 OFFCURVE",
"253 336 OFFCURVE",
"286 336 CURVE SMOOTH",
"317 336 OFFCURVE",
"339 315 OFFCURVE",
"339 282 CURVE SMOOTH",
"339 0 LINE"
);
},
{
closed = 1;
nodes = (
"838 0 LINE",
"838 292 LINE SMOOTH",
"838 424 OFFCURVE",
"753 502 OFFCURVE",
"636 502 CURVE SMOOTH",
"509 502 OFFCURVE",
"420 419 OFFCURVE",
"420 281 CURVE",
"535 282 LINE",
"535 315 OFFCURVE",
"556 336 OFFCURVE",
"589 336 CURVE SMOOTH",
"620 336 OFFCURVE",
"642 315 OFFCURVE",
"642 282 CURVE SMOOTH",
"642 0 LINE"
);
}
);
};
layerId = "9F43D23A-D415-475F-B4C7-798B571F7CAB";
paths = (
{
closed = 1;
nodes = (
"232 0 LINE",
"232 286 LINE SMOOTH",
"232 317 OFFCURVE",
"253 338 OFFCURVE",
"283 338 CURVE SMOOTH",
"311 338 OFFCURVE",
"333 317 OFFCURVE",
"333 286 CURVE SMOOTH",
"333 0 LINE",
"529 0 LINE",
"529 286 LINE SMOOTH",
"529 317 OFFCURVE",
"551 338 OFFCURVE",
"579 338 CURVE SMOOTH",
"609 338 OFFCURVE",
"630 317 OFFCURVE",
"630 286 CURVE SMOOTH",
"630 0 LINE",
"826 0 LINE",
"826 284 LINE SMOOTH",
"826 413 OFFCURVE",
"739 504 OFFCURVE",
"598 504 CURVE SMOOTH",
"506 504 OFFCURVE",
"436 468 OFFCURVE",
"398 376 CURVE",
"464 376 LINE",
"426 468 OFFCURVE",
"356 504 OFFCURVE",
"264 504 CURVE SMOOTH",
"123 504 OFFCURVE",
"36 413 OFFCURVE",
"36 284 CURVE SMOOTH",
"36 0 LINE"
);
}
);
width = 861;
},
{
background = {
paths = (
{
closed = 1;
nodes = (
"101 0 LINE",
"101 460 LINE",
"70 460 LINE",
"70 0 LINE"
);
},
{
closed = 1;
nodes = (
"429 0 LINE",
"429 292 LINE SMOOTH",
"429 399 OFFCURVE",
"356 470 OFFCURVE",
"258 470 CURVE SMOOTH",
"158 470 OFFCURVE",
"80 399 OFFCURVE",
"80 293 CURVE",
"101 292 LINE",
"101 382 OFFCURVE",
"170 442 OFFCURVE",
"255 442 CURVE SMOOTH",
"339 442 OFFCURVE",
"398 381 OFFCURVE",
"398 290 CURVE SMOOTH",
"398 0 LINE"
);
},
{
closed = 1;
nodes = (
"757 0 LINE",
"757 291 LINE SMOOTH",
"757 399 OFFCURVE",
"684 470 OFFCURVE",
"586 470 CURVE SMOOTH",
"488 470 OFFCURVE",
"408 400 OFFCURVE",
"408 293 CURVE",
"429 292 LINE",
"429 382 OFFCURVE",
"498 442 OFFCURVE",
"583 442 CURVE SMOOTH",
"667 442 OFFCURVE",
"727 381 OFFCURVE",
"727 290 CURVE SMOOTH",
"727 0 LINE"
);
}
);
};
layerId = "0B0D9703-EF89-4C57-A339-A59A1335C1A4";
paths = (
{
closed = 1;
nodes = (
"101 0 LINE",
"101 282 LINE SMOOTH",
"101 384 OFFCURVE",
"164 442 OFFCURVE",
"249 442 CURVE SMOOTH",
"334 442 OFFCURVE",
"397 385 OFFCURVE",
"397 282 CURVE SMOOTH",
"397 0 LINE",
"428 0 LINE",
"428 282 LINE SMOOTH",
"428 384 OFFCURVE",
"491 442 OFFCURVE",
"576 442 CURVE SMOOTH",
"661 442 OFFCURVE",
"724 385 OFFCURVE",
"724 282 CURVE SMOOTH",
"724 0 LINE",
"755 0 LINE",
"755 283 LINE SMOOTH",
"755 402 OFFCURVE",
"678 470 OFFCURVE",
"576 470 CURVE SMOOTH",
"493 470 OFFCURVE",
"429 424 OFFCURVE",
"409 340 CURVE",
"414 340 LINE",
"396 423 OFFCURVE",
"333 470 OFFCURVE",
"249 470 CURVE SMOOTH",
"148 470 OFFCURVE",
"70 403 OFFCURVE",
"70 283 CURVE SMOOTH",
"70 0 LINE"
);
}
);
width = 825;
}
);
leftKerningGroup = n;
rightKerningGroup = n;
},
{
glyphname = n.ss01;
lastChange = "2021-09-16 14:33:27 +0000";
layers = (
{
anchors = (
{
name = bottom;
position = "{264, 0}";
},
{
name = top;
position = "{264, 480}";
}
);
background = {
paths = (
{
closed = 1;
nodes = (
"488 0 LINE",
"488 301 LINE SMOOTH",
"488 395 OFFCURVE",
"410 490 OFFCURVE",
"302 490 CURVE SMOOTH",
"195 490 OFFCURVE",
"116 410 OFFCURVE",
"116 301 CURVE",
"159 277 LINE",
"159 341 OFFCURVE",
"205 387 OFFCURVE",
"269 387 CURVE SMOOTH",
"333 387 OFFCURVE",
"378 341 OFFCURVE",
"378 277 CURVE SMOOTH",
"378 0 LINE"
);
},
{
closed = 1;
nodes = (
"159 0 LINE",
"159 480 LINE",
"49 480 LINE",
"49 0 LINE"
);
}
);
};
layerId = m01;
paths = (
{
closed = 1;
nodes = (
"159 0 LINE",
"159 266 LINE SMOOTH",
"159 336 OFFCURVE",
"195 384 OFFCURVE",
"263 384 CURVE SMOOTH",
"332 384 OFFCURVE",
"367 337 OFFCURVE",
"367 266 CURVE SMOOTH",
"367 0 LINE",
"477 0 LINE",
"477 274 LINE SMOOTH",
"477 404 OFFCURVE",
"392 490 OFFCURVE",
"263 490 CURVE SMOOTH",
"135 490 OFFCURVE",
"49 402 OFFCURVE",
"49 274 CURVE SMOOTH",
"49 0 LINE"
);
}
);
width = 526;
},
{
anchors = (
{
name = bottom;
position = "{286, 0}";
},
{
name = top;
position = "{286, 492}";
}
);
background = {
paths = (
{
closed = 1;
nodes = (
"543 0 LINE",
"543 321 LINE SMOOTH",
"543 426 OFFCURVE",
"464 502 OFFCURVE",
"359 502 CURVE SMOOTH",
"240 502 OFFCURVE",
"154 430 OFFCURVE",
"154 310 CURVE",
"230 276 LINE",
"230 314 OFFCURVE",
"255 336 OFFCURVE",
"289 336 CURVE SMOOTH",
"322 336 OFFCURVE",
"347 314 OFFCURVE",
"347 276 CURVE SMOOTH",
"347 0 LINE"
);
},
{
closed = 1;
nodes = (
"230 0 LINE",
"230 492 LINE",
"34 492 LINE",
"34 0 LINE"
);
}
);
};
layerId = "9F43D23A-D415-475F-B4C7-798B571F7CAB";
paths = (
{
closed = 1;
nodes = (
"230 0 LINE",
"230 274 LINE SMOOTH",
"230 315 OFFCURVE",
"251 338 OFFCURVE",
"286 338 CURVE SMOOTH",
"319 338 OFFCURVE",
"341 315 OFFCURVE",
"341 274 CURVE SMOOTH",
"341 0 LINE",
"537 0 LINE",
"537 272 LINE SMOOTH",
"537 412 OFFCURVE",
"435 504 OFFCURVE",
"286 504 CURVE SMOOTH",
"137 504 OFFCURVE",
"34 411 OFFCURVE",
"34 272 CURVE SMOOTH",
"34 0 LINE"
);
}
);
width = 571;
},
{
anchors = (
{
name = bottom;
position = "{261, 0}";
},
{
name = top;
position = "{261, 460}";
}
);
background = {
paths = (
{
closed = 1;
nodes = (
"455 0 LINE",
"455 275 LINE SMOOTH",
"455 389 OFFCURVE",
"381 470 OFFCURVE",
"271 470 CURVE SMOOTH",
"161 470 OFFCURVE",
"78 392 OFFCURVE",
"78 288 CURVE",
"99 276 LINE",
"99 373 OFFCURVE",
"168 442 OFFCURVE",
"266 442 CURVE SMOOTH",
"362 442 OFFCURVE",
"425 375 OFFCURVE",
"425 275 CURVE SMOOTH",
"425 0 LINE"
);
},
{
closed = 1;
nodes = (
"99 0 LINE",
"99 460 LINE",
"68 460 LINE",
"68 0 LINE"
);
}
);
};
layerId = "0B0D9703-EF89-4C57-A339-A59A1335C1A4";
paths = (
{
closed = 1;
nodes = (
"100 0 LINE",
"100 267 LINE SMOOTH",
"100 369 OFFCURVE",
"163 442 OFFCURVE",
"261 442 CURVE SMOOTH",
"359 442 OFFCURVE",
"422 370 OFFCURVE",
"422 267 CURVE SMOOTH",
"422 0 LINE",
"453 0 LINE",
"453 268 LINE SMOOTH",
"453 387 OFFCURVE",
"376 470 OFFCURVE",
"261 470 CURVE SMOOTH",
"147 470 OFFCURVE",
"69 388 OFFCURVE",
"69 268 CURVE SMOOTH",
"69 0 LINE"
);
}
);
width = 522;
}
);
leftKerningGroup = n;
rightKerningGroup = n;
userData = {
KernOnName = n;
};
},
{
glyphname = t.ss01;
lastChange = "2021-07-22 20:34:11 +0000";
layers = (
{
background = {
paths = (
{
closed = 1;
nodes = (
"358 103 OFFCURVE",
"341 93 OFFCURVE",
"312 93 CURVE SMOOTH",
"268 93 OFFCURVE",
"244 117 OFFCURVE",
"244 161 CURVE SMOOTH",
"244 640 LINE",
"134 640 LINE",
"134 162 LINE SMOOTH",
"134 61 OFFCURVE",
"207 -10 OFFCURVE",
"312 -10 CURVE SMOOTH",
"370 -10 OFFCURVE",
"409 11 OFFCURVE",
"445 48 CURVE",
"374 119 LINE"
);
},
{
closed = 1;
nodes = (
"417 377 LINE",
"417 480 LINE",
"19 480 LINE",
"19 377 LINE"
);
}
);
};
layerId = m01;
paths = (
{
closed = 1;
nodes = (
"366 -10 OFFCURVE",
"405 11 OFFCURVE",
"441 55 CURVE",
"375 122 LINE",
"357 103 OFFCURVE",
"337 93 OFFCURVE",
"308 93 CURVE SMOOTH",
"274 93 OFFCURVE",
"244 115 OFFCURVE",
"244 160 CURVE SMOOTH",
"244 680 LINE",
"134 680 LINE",
"134 159 LINE SMOOTH",
"134 49 OFFCURVE",
"211 -10 OFFCURVE",
"300 -10 CURVE SMOOTH"
);
},
{
closed = 1;
nodes = (
"417 377 LINE",
"417 480 LINE",
"19 480 LINE",
"19 377 LINE"
);
}
);
width = 460;
},
{
layerId = "9F43D23A-D415-475F-B4C7-798B571F7CAB";
paths = (
{
closed = 1;
nodes = (
"414 -12 OFFCURVE",
"460 14 OFFCURVE",
"499 54 CURVE",
"378 175 LINE",
"368 165 OFFCURVE",
"357 160 OFFCURVE",
"342 160 CURVE SMOOTH",
"322 160 OFFCURVE",
"307 174 OFFCURVE",
"307 197 CURVE SMOOTH",
"307 694 LINE",
"111 694 LINE",
"111 200 LINE SMOOTH",
"111 73 OFFCURVE",
"188 -12 OFFCURVE",
"331 -12 CURVE SMOOTH"
);
},
{
closed = 1;
nodes = (
"452 332 LINE",
"452 492 LINE",
"11 492 LINE",
"11 332 LINE"
);
}
);
width = 499;
},
{
layerId = "0B0D9703-EF89-4C57-A339-A59A1335C1A4";
paths = (
{
closed = 1;
nodes = (
"322 -10 OFFCURVE",
"357 6 OFFCURVE",
"384 34 CURVE",
"363 55 LINE",
"338 29 OFFCURVE",
"311 18 OFFCURVE",
"279 18 CURVE SMOOTH",
"215 18 OFFCURVE",
"185 57 OFFCURVE",
"185 126 CURVE SMOOTH",
"185 656 LINE",
"153 656 LINE",
"153 122 LINE SMOOTH",
"153 37 OFFCURVE",
"203 -10 OFFCURVE",
"280 -10 CURVE SMOOTH"
);
},
{
closed = 1;
nodes = (
"374 433 LINE",
"374 460 LINE",
"31 460 LINE",
"31 433 LINE"
);
}
);
width = 420;
}
);
leftKerningGroup = f;
},
{
glyphname = f_f;
lastChange = "2021-07-22 20:34:11 +0000";
layers = (
{
background = {
components = (
{
name = f_t;
}
);
};
layerId = m01;
paths = (
{
closed = 1;
nodes = (
"237 0 LINE",
"237 525 LINE SMOOTH",
"237 583 OFFCURVE",
"267 620 OFFCURVE",
"327 620 CURVE SMOOTH",
"387 620 OFFCURVE",
"417 583 OFFCURVE",
"417 522 CURVE",
"497 521 LINE",
"497 636 OFFCURVE",
"446 720 OFFCURVE",
"327 720 CURVE SMOOTH",
"208 720 OFFCURVE",
"127 636 OFFCURVE",
"127 521 CURVE SMOOTH",
"127 0 LINE"
);
},
{
closed = 1;
nodes = (
"672 380 LINE",
"672 480 LINE",
"12 480 LINE",
"12 380 LINE"
);
},
{
closed = 1;
nodes = (
"527 0 LINE",
"527 544 LINE SMOOTH",
"527 597 OFFCURVE",
"557 627 OFFCURVE",
"610 627 CURVE SMOOTH",
"639 627 OFFCURVE",
"656 617 OFFCURVE",
"672 601 CURVE",
"743 672 LINE",
"707 709 OFFCURVE",
"668 730 OFFCURVE",
"610 730 CURVE SMOOTH",
"496 730 OFFCURVE",
"417 653 OFFCURVE",
"417 543 CURVE SMOOTH",
"417 0 LINE"
);
}
);
width = 693;
},
{
layerId = "9F43D23A-D415-475F-B4C7-798B571F7CAB";
paths = (
{
closed = 1;
nodes = (
"301 0 LINE",
"301 511 LINE SMOOTH",
"301 549 OFFCURVE",
"326 572 OFFCURVE",
"366 572 CURVE SMOOTH",
"406 572 OFFCURVE",
"431 549 OFFCURVE",
"431 511 CURVE",
"587 542 LINE",
"587 629 OFFCURVE",
"500 734 OFFCURVE",
"346 734 CURVE SMOOTH",
"192 734 OFFCURVE",
"105 629 OFFCURVE",
"105 492 CURVE SMOOTH",
"105 0 LINE"
);
},
{
closed = 1;
nodes = (
"762 332 LINE",
"762 492 LINE",
"5 492 LINE",
"5 332 LINE"
);
},
{
closed = 1;
nodes = (
"627 0 LINE",
"627 521 LINE SMOOTH",
"627 552 OFFCURVE",
"647 572 OFFCURVE",
"678 572 CURVE SMOOTH",
"694 572 OFFCURVE",
"709 567 OFFCURVE",
"719 557 CURVE",
"840 678 LINE",
"801 718 OFFCURVE",
"743 744 OFFCURVE",
"668 744 CURVE SMOOTH",
"518 744 OFFCURVE",
"431 639 OFFCURVE",
"431 511 CURVE SMOOTH",
"431 0 LINE"
);
}
);
width = 794;
},
{
background = {
paths = (
{
closed = 0;
nodes = (
"185 542 LINE SMOOTH",
"185 618 OFFCURVE",
"226 667 OFFCURVE",
"300 667 CURVE SMOOTH",
"374 667 OFFCURVE",
"415 618 OFFCURVE",
"415 542 CURVE SMOOTH"
);
},
{
closed = 0;
nodes = (
"153 546 LINE SMOOTH",
"153 633 OFFCURVE",
"214 695 OFFCURVE",
"300 695 CURVE SMOOTH",
"386 695 OFFCURVE",
"447 633 OFFCURVE",
"447 546 CURVE SMOOTH"
);
}
);
};
layerId = "0B0D9703-EF89-4C57-A339-A59A1335C1A4";
paths = (
{
closed = 1;
nodes = (
"185 0 LINE",
"185 542 LINE SMOOTH",
"185 618 OFFCURVE",
"226 667 OFFCURVE",
"300 667 CURVE SMOOTH",
"374 667 OFFCURVE",
"411 618 OFFCURVE",
"415 556 CURVE",
"439 556 LINE",
"439 633 OFFCURVE",
"386 695 OFFCURVE",
"300 695 CURVE SMOOTH",
"214 695 OFFCURVE",
"153 633 OFFCURVE",
"153 546 CURVE SMOOTH",
"153 0 LINE"
);
},
{
closed = 1;
nodes = (
"616 433 LINE",
"616 460 LINE",
"31 460 LINE",
"31 433 LINE"
);
},
{
closed = 1;
nodes = (
"447 0 LINE",
"447 552 LINE SMOOTH",
"447 628 OFFCURVE",
"488 677 OFFCURVE",
"559 677 CURVE SMOOTH",
"591 677 OFFCURVE",
"620 666 OFFCURVE",
"645 640 CURVE",
"666 661 LINE",
"639 689 OFFCURVE",
"602 705 OFFCURVE",
"560 705 CURVE SMOOTH",
"476 705 OFFCURVE",
"415 643 OFFCURVE",
"415 556 CURVE SMOOTH",
"415 0 LINE"
);
}
);
width = 648;
}
);
leftKerningGroup = f;
leftMetricsKey = f;
rightKerningGroup = f;
rightMetricsKey = f;
},
{
glyphname = f_j;
lastChange = "2021-07-22 20:34:11 +0000";
layers = (
{
layerId = m01;
paths = (
{
closed = 1;
nodes = (
"237 0 LINE",
"237 564 LINE SMOOTH",
"237 602 OFFCURVE",
"258 627 OFFCURVE",
"297 627 CURVE SMOOTH",
"317 627 OFFCURVE",
"332 621 OFFCURVE",
"345 610 CURVE",
"417 682 LINE",
"384 713 OFFCURVE",
"347 730 OFFCURVE",
"297 730 CURVE SMOOTH",
"196 730 OFFCURVE",
"127 658 OFFCURVE",
"127 563 CURVE SMOOTH",
"127 0 LINE"
);
},
{
closed = 1;
nodes = (
"480 380 LINE",
"480 480 LINE",
"12 480 LINE",
"12 380 LINE"
);
},
{
closed = 1;
nodes = (
"448 -210 OFFCURVE",
"527 -151 OFFCURVE",
"527 -41 CURVE SMOOTH",
"527 480 LINE",
"417 480 LINE",
"417 -42 LINE SMOOTH",
"417 -85 OFFCURVE",
"387 -107 OFFCURVE",
"351 -107 CURVE SMOOTH",
"322 -107 OFFCURVE",
"303 -97 OFFCURVE",
"287 -76 CURVE",
"216 -147 LINE",
"252 -189 OFFCURVE",
"291 -210 OFFCURVE",
"359 -210 CURVE SMOOTH"
);
},
{
closed = 1;
nodes = (
"510 522 OFFCURVE",
"537 551 OFFCURVE",
"537 588 CURVE SMOOTH",
"537 625 OFFCURVE",
"510 654 OFFCURVE",
"472 654 CURVE SMOOTH",
"434 654 OFFCURVE",
"407 625 OFFCURVE",
"407 588 CURVE SMOOTH",
"407 551 OFFCURVE",
"434 522 OFFCURVE",
"472 522 CURVE SMOOTH"
);
}
);
width = 586;
},
{
layerId = "9F43D23A-D415-475F-B4C7-798B571F7CAB";
paths = (
{
closed = 1;
nodes = (
"301 0 LINE",
"301 528 LINE SMOOTH",
"301 554 OFFCURVE",
"315 572 OFFCURVE",
"342 572 CURVE SMOOTH",
"353 572 OFFCURVE",
"362 570 OFFCURVE",
"374 564 CURVE",
"455 716 LINE",
"417 737 OFFCURVE",
"382 744 OFFCURVE",
"342 744 CURVE SMOOTH",
"192 744 OFFCURVE",
"105 639 OFFCURVE",
"105 512 CURVE SMOOTH",
"105 0 LINE"
);
},
{
closed = 1;
nodes = (
"516 332 LINE",
"516 492 LINE",
"5 492 LINE",
"5 332 LINE"
);
},
{
closed = 1;
nodes = (
"562 -226 OFFCURVE",
"647 -136 OFFCURVE",
"647 -9 CURVE SMOOTH",
"647 492 LINE",
"451 492 LINE",
"451 -13 LINE SMOOTH",
"451 -42 OFFCURVE",
"437 -54 OFFCURVE",
"415 -54 CURVE SMOOTH",
"404 -54 OFFCURVE",
"393 -50 OFFCURVE",
"380 -37 CURVE",
"261 -156 LINE",
"300 -199 OFFCURVE",
"355 -226 OFFCURVE",
"428 -226 CURVE SMOOTH"
);
},
{
closed = 1;
nodes = (
"603 520 OFFCURVE",
"642 562 OFFCURVE",
"642 615 CURVE SMOOTH",
"642 668 OFFCURVE",
"603 710 OFFCURVE",
"549 710 CURVE SMOOTH",
"495 710 OFFCURVE",
"456 668 OFFCURVE",
"456 615 CURVE SMOOTH",
"456 562 OFFCURVE",
"495 520 OFFCURVE",
"549 520 CURVE SMOOTH"
);
}
);
width = 691;
},
{
layerId = "0B0D9703-EF89-4C57-A339-A59A1335C1A4";
paths = (
{
closed = 1;
nodes = (
"185 0 LINE",
"185 552 LINE SMOOTH",
"185 628 OFFCURVE",
"226 677 OFFCURVE",
"297 677 CURVE SMOOTH",
"329 677 OFFCURVE",
"358 666 OFFCURVE",
"383 640 CURVE",
"404 661 LINE",
"377 689 OFFCURVE",
"340 705 OFFCURVE",
"298 705 CURVE SMOOTH",
"214 705 OFFCURVE",
"153 643 OFFCURVE",
"153 556 CURVE SMOOTH",
"153 0 LINE"
);
},
{
closed = 1;
nodes = (
"430 433 LINE",
"430 460 LINE",
"31 460 LINE",
"31 433 LINE"
);
},
{
closed = 1;
nodes = (
"385 -206 OFFCURVE",
"446 -163 OFFCURVE",
"446 -76 CURVE SMOOTH",
"446 460 LINE",
"414 460 LINE",
"414 -77 LINE SMOOTH",
"414 -148 OFFCURVE",
"371 -178 OFFCURVE",
"317 -178 CURVE SMOOTH",
"285 -178 OFFCURVE",
"256 -167 OFFCURVE",
"231 -141 CURVE",
"210 -162 LINE",
"237 -190 OFFCURVE",
"274 -206 OFFCURVE",
"316 -206 CURVE SMOOTH"
);
},
{
closed = 1;
nodes = (
"448 533 OFFCURVE",
"462 548 OFFCURVE",
"462 566 CURVE SMOOTH",
"462 584 OFFCURVE",
"448 598 OFFCURVE",
"429 598 CURVE SMOOTH",
"411 598 OFFCURVE",
"398 584 OFFCURVE",
"398 566 CURVE SMOOTH",
"398 548 OFFCURVE",
"411 533 OFFCURVE",
"429 533 CURVE SMOOTH"
);
}
);
width = 526;
}
);
leftKerningGroup = f;
leftMetricsKey = f;
rightMetricsKey = j;
},
{
glyphname = f_t;
lastChange = "2021-07-22 20:34:11 +0000";
layers = (
{
background = {
components = (
{
name = fl;
transform = "{1, 0, 0, 1, -5, 0}";
}
);
};
layerId = m01;
paths = (
{
closed = 1;
nodes = (
"237 0 LINE",
"237 544 LINE SMOOTH",
"237 597 OFFCURVE",
"267 627 OFFCURVE",
"320 627 CURVE",
"320 730 LINE",
"206 730 OFFCURVE",
"127 653 OFFCURVE",
"127 543 CURVE SMOOTH",
"127 0 LINE"
);
},
{
closed = 1;
nodes = (
"642 380 LINE",
"642 480 LINE",
"12 480 LINE",
"12 380 LINE"
);
},
{
closed = 1;
nodes = (
"527 0 LINE",
"527 680 LINE",
"417 680 LINE",
"417 0 LINE"
);
}
);
width = 661;
},
{
layerId = "9F43D23A-D415-475F-B4C7-798B571F7CAB";
paths = (
{
closed = 1;
nodes = (
"301 0 LINE",
"301 521 LINE SMOOTH",
"301 552 OFFCURVE",
"321 572 OFFCURVE",
"347 572 CURVE",
"347 744 LINE",
"192 744 OFFCURVE",
"105 639 OFFCURVE",
"105 512 CURVE SMOOTH",
"105 0 LINE"
);
},
{
closed = 1;
nodes = (
"732 332 LINE",
"732 492 LINE",
"5 492 LINE",
"5 332 LINE"
);
},
{
closed = 1;
nodes = (
"627 0 LINE",
"627 694 LINE",
"431 694 LINE",
"431 0 LINE"
);
}
);
width = 739;
},
{
layerId = "0B0D9703-EF89-4C57-A339-A59A1335C1A4";
paths = (
{
closed = 1;
nodes = (
"185 0 LINE",
"185 552 LINE SMOOTH",
"185 628 OFFCURVE",
"226 677 OFFCURVE",
"297 677 CURVE",
"298 705 LINE",
"214 705 OFFCURVE",
"153 643 OFFCURVE",
"153 556 CURVE SMOOTH",
"153 0 LINE"
);
},
{
closed = 1;
nodes = (
"568 433 LINE",
"568 460 LINE",
"31 460 LINE",
"31 433 LINE"
);
},
{
closed = 1;
nodes = (
"447 0 LINE",
"447 656 LINE",
"415 656 LINE",
"415 0 LINE"
);
}
);
width = 599;
}
);
leftKerningGroup = f;
leftMetricsKey = f;
rightKerningGroup = t;
rightMetricsKey = t;
},
{
glyphname = fi;
lastChange = "2021-07-22 20:34:11 +0000";
layers = (
{
background = {
paths = (
{
closed = 1;
nodes = (
"453 672 LINE",
"417 709 OFFCURVE",
"378 730 OFFCURVE",
"320 730 CURVE SMOOTH",
"206 730 OFFCURVE",
"127 653 OFFCURVE",
"127 543 CURVE SMOOTH",
"127 0 LINE",
"237 0 LINE",
"237 544 LINE SMOOTH",
"237 597 OFFCURVE",
"267 627 OFFCURVE",
"320 627 CURVE SMOOTH",
"349 627 OFFCURVE",
"366 617 OFFCURVE",
"382 601 CURVE"
);
},
{
closed = 1;
nodes = (
"12 380 LINE",
"382 380 LINE",
"382 480 LINE",
"12 480 LINE"
);
},
{
closed = 1;
nodes = (
"570 0 LINE",
"570 480 LINE",
"460 480 LINE",
"460 0 LINE"
);
},
{
closed = 1;
nodes = (
"551 570 OFFCURVE",
"577 598 OFFCURVE",
"577 633 CURVE SMOOTH",
"577 668 OFFCURVE",
"551 696 OFFCURVE",
"515 696 CURVE SMOOTH",
"479 696 OFFCURVE",
"453 668 OFFCURVE",
"453 633 CURVE SMOOTH",
"453 598 OFFCURVE",
"479 570 OFFCURVE",
"515 570 CURVE SMOOTH"
);
}
);
};
layerId = m01;
paths = (
{
closed = 1;
nodes = (
"237 0 LINE",
"237 564 LINE SMOOTH",
"237 602 OFFCURVE",
"258 627 OFFCURVE",
"297 627 CURVE SMOOTH",
"317 627 OFFCURVE",
"332 621 OFFCURVE",
"345 610 CURVE",
"417 682 LINE",
"384 713 OFFCURVE",
"347 730 OFFCURVE",
"297 730 CURVE SMOOTH",
"196 730 OFFCURVE",
"127 658 OFFCURVE",
"127 563 CURVE SMOOTH",
"127 0 LINE"
);
},
{
closed = 1;
nodes = (
"480 380 LINE",
"480 480 LINE",
"12 480 LINE",
"12 380 LINE"
);
},
{
closed = 1;
nodes = (
"527 0 LINE",
"527 480 LINE",
"417 480 LINE",
"417 0 LINE"
);
},
{
closed = 1;
nodes = (
"510 522 OFFCURVE",
"537 551 OFFCURVE",
"537 588 CURVE SMOOTH",
"537 625 OFFCURVE",
"510 654 OFFCURVE",
"472 654 CURVE SMOOTH",
"434 654 OFFCURVE",
"407 625 OFFCURVE",
"407 588 CURVE SMOOTH",
"407 551 OFFCURVE",
"434 522 OFFCURVE",
"472 522 CURVE SMOOTH"
);
}
);
width = 589;
},
{
layerId = "9F43D23A-D415-475F-B4C7-798B571F7CAB";
paths = (
{
closed = 1;
nodes = (
"301 0 LINE",
"301 528 LINE SMOOTH",
"301 554 OFFCURVE",
"315 572 OFFCURVE",
"342 572 CURVE SMOOTH",
"353 572 OFFCURVE",
"362 570 OFFCURVE",
"374 564 CURVE",
"455 716 LINE",
"417 737 OFFCURVE",
"382 744 OFFCURVE",
"342 744 CURVE SMOOTH",
"192 744 OFFCURVE",
"105 639 OFFCURVE",
"105 512 CURVE SMOOTH",
"105 0 LINE"
);
},
{
closed = 1;
nodes = (
"516 332 LINE",
"516 492 LINE",
"5 492 LINE",
"5 332 LINE"
);
},
{
closed = 1;
nodes = (
"647 0 LINE",
"647 492 LINE",
"451 492 LINE",
"451 0 LINE"
);
},
{
closed = 1;
nodes = (
"603 520 OFFCURVE",
"642 562 OFFCURVE",
"642 615 CURVE SMOOTH",
"642 668 OFFCURVE",
"603 710 OFFCURVE",
"549 710 CURVE SMOOTH",
"495 710 OFFCURVE",
"456 668 OFFCURVE",
"456 615 CURVE SMOOTH",
"456 562 OFFCURVE",
"495 520 OFFCURVE",
"549 520 CURVE SMOOTH"
);
}
);
width = 691;
},
{
layerId = "0B0D9703-EF89-4C57-A339-A59A1335C1A4";
paths = (
{
closed = 1;
nodes = (
"185 0 LINE",
"185 552 LINE SMOOTH",
"185 628 OFFCURVE",
"226 677 OFFCURVE",
"297 677 CURVE SMOOTH",
"329 677 OFFCURVE",
"358 666 OFFCURVE",
"383 640 CURVE",
"404 661 LINE",
"377 689 OFFCURVE",
"340 705 OFFCURVE",
"298 705 CURVE SMOOTH",
"214 705 OFFCURVE",
"153 643 OFFCURVE",
"153 556 CURVE SMOOTH",
"153 0 LINE"
);
},
{
closed = 1;
nodes = (
"430 433 LINE",
"430 460 LINE",
"31 460 LINE",
"31 433 LINE"
);
},
{
closed = 1;
nodes = (
"446 0 LINE",
"446 460 LINE",
"414 460 LINE",
"414 0 LINE"
);
},
{
closed = 1;
nodes = (
"448 533 OFFCURVE",
"462 548 OFFCURVE",
"462 566 CURVE SMOOTH",
"462 584 OFFCURVE",
"448 598 OFFCURVE",
"429 598 CURVE SMOOTH",
"411 598 OFFCURVE",
"398 584 OFFCURVE",
"398 566 CURVE SMOOTH",
"398 548 OFFCURVE",
"411 533 OFFCURVE",
"429 533 CURVE SMOOTH"
);
}
);
width = 526;
}
);
leftKerningGroup = f;
leftMetricsKey = f;
rightMetricsKey = i;
unicode = FB01;
},
{
glyphname = fl;
lastChange = "2021-07-22 20:34:11 +0000";
layers = (
{
background = {
paths = (
{
closed = 1;
nodes = (
"7 380 LINE",
"338 380 LINE",
"338 480 LINE",
"7 480 LINE"
);
},
{
closed = 1;
nodes = (
"491 670 LINE",
"453 707 OFFCURVE",
"400 730 OFFCURVE",
"335 730 CURVE SMOOTH",
"211 730 OFFCURVE",
"122 632 OFFCURVE",
"122 523 CURVE SMOOTH",
"122 0 LINE",
"232 0 LINE",
"232 524 LINE SMOOTH",
"232 584 OFFCURVE",
"269 627 OFFCURVE",
"335 627 CURVE SMOOTH",
"374 627 OFFCURVE",
"400 616 OFFCURVE",
"418 597 CURVE"
);
},
{
closed = 1;
nodes = (
"527 0 LINE",
"527 728 LINE",
"517 728 LINE",
"417 662 LINE",
"417 0 LINE"
);
}
);
};
layerId = m01;
paths = (
{
closed = 1;
nodes = (
"237 0 LINE",
"237 534 LINE SMOOTH",
"237 584 OFFCURVE",
"269 627 OFFCURVE",
"333 627 CURVE",
"333 730 LINE",
"206 730 OFFCURVE",
"127 637 OFFCURVE",
"127 533 CURVE SMOOTH",
"127 0 LINE"
);
},
{
closed = 1;
nodes = (
"463 380 LINE",
"463 480 LINE",
"12 480 LINE",
"12 380 LINE"
);
},
{
closed = 1;
nodes = (
"527 0 LINE",
"527 720 LINE",
"417 720 LINE",
"417 0 LINE"
);
}
);
width = 588;
},
{
layerId = "9F43D23A-D415-475F-B4C7-798B571F7CAB";
paths = (
{
closed = 1;
nodes = (
"301 0 LINE",
"301 521 LINE SMOOTH",
"301 552 OFFCURVE",
"321 572 OFFCURVE",
"347 572 CURVE",
"347 744 LINE",
"192 744 OFFCURVE",
"105 639 OFFCURVE",
"105 512 CURVE SMOOTH",
"105 0 LINE"
);
},
{
closed = 1;
nodes = (
"517 332 LINE",
"517 492 LINE",
"5 492 LINE",
"5 332 LINE"
);
},
{
closed = 1;
nodes = (
"627 0 LINE",
"627 732 LINE",
"431 732 LINE",
"431 0 LINE"
);
}
);
width = 674;
},
{
layerId = "0B0D9703-EF89-4C57-A339-A59A1335C1A4";
paths = (
{
closed = 1;
nodes = (
"185 0 LINE",
"185 552 LINE SMOOTH",
"185 628 OFFCURVE",
"226 677 OFFCURVE",
"297 677 CURVE",
"298 705 LINE",
"214 705 OFFCURVE",
"153 643 OFFCURVE",
"153 556 CURVE SMOOTH",
"153 0 LINE"
);
},
{
closed = 1;
nodes = (
"427 433 LINE",
"427 460 LINE",
"31 460 LINE",
"31 433 LINE"
);
},
{
closed = 1;
nodes = (
"446 0 LINE",
"446 710 LINE",
"415 710 LINE",
"415 0 LINE"
);
}
);
width = 526;
}
);
leftKerningGroup = f;
leftMetricsKey = f;
rightKerningGroup = l;
rightMetricsKey = l;
unicode = FB02;
},
